<svg width="50" height="51" viewBox="0 0 50 51" fill="none" xmlns="http://www.w3.org/2000/svg">
<g clip-path="url(#clip0_108_244)">
<path fill-rule="evenodd" clip-rule="evenodd" d="M40.4181 24.8447C40.1167 24.8447 39.8721 24.6015 39.8721 24.2991C39.8721 23.9977 40.1165 23.7533 40.4179 23.7533C40.7189 23.7533 40.9637 23.9978 40.9637 24.2991C40.9638 24.6015 40.7191 24.8449 40.4181 24.8447Z" fill="#024873"/>
<path fill-rule="evenodd" clip-rule="evenodd" d="M25.9874 24.8447C25.686 24.8447 25.4414 24.6015 25.4414 24.2991C25.4414 23.9977 25.6858 23.7533 25.9872 23.7533C26.2882 23.7533 26.533 23.9978 26.533 24.2991C26.5331 24.6015 26.2885 24.8449 25.9874 24.8447Z" fill="#024873"/>
<path fill-rule="evenodd" clip-rule="evenodd" d="M38.2914 23.9477L46.907 32.5644L48.682 30.7894L40.0664 22.1727L38.2914 23.9477ZM46.907 33.881C46.7627 33.881 46.6237 33.8243 46.5214 33.7219L37.1339 24.3331C36.9203 24.1205 36.9201 23.7749 37.1339 23.5622L39.6799 21.0151C39.8937 20.8014 40.2392 20.8014 40.4519 21.0153L49.8407 30.4027C49.943 30.5051 49.9997 30.6439 49.9997 30.7894C49.9999 30.9338 49.9429 31.0725 49.8405 31.1748L47.2936 33.7218C47.1913 33.8243 47.0525 33.8811 46.907 33.881Z" fill="#024873"/>
<path fill-rule="evenodd" clip-rule="evenodd" d="M17.7222 30.7894L19.4985 32.5644L28.1139 23.9477L26.3389 22.1727L17.7222 30.7894ZM19.4985 33.881C19.3529 33.881 19.214 33.8243 19.1117 33.7219L16.5647 31.1747C16.3522 30.961 16.3521 30.6166 16.5647 30.4029L25.9536 21.0151C26.1662 20.8014 26.5118 20.8014 26.7243 21.0153L29.2716 23.5621C29.3739 23.6644 29.4317 23.8033 29.4317 23.9477C29.4317 24.0921 29.3738 24.2309 29.2713 24.3332L19.8838 33.7218C19.7814 33.8243 19.6427 33.8811 19.4985 33.881Z" fill="#024873"/>
<path fill-rule="evenodd" clip-rule="evenodd" d="M40.4963 39.1934C40.3576 39.1934 40.2189 39.1411 40.1119 39.0366C39.8982 38.8239 39.8959 38.4782 40.1073 38.2645C41.1014 37.2593 41.4878 36.5748 41.8221 35.7299L41.8495 35.6594C42.1746 34.8362 42.7193 33.4592 43.0729 32.7043C43.2016 32.4301 43.5265 32.313 43.7994 32.4415C44.0725 32.5689 44.1894 32.8941 44.0621 33.167C43.7222 33.8913 43.1649 35.3025 42.8647 36.0609L42.8364 36.1312C42.3931 37.2536 41.8641 38.0405 40.884 39.032C40.7772 39.1399 40.6362 39.1934 40.4963 39.1934Z" fill="#024873"/>
<path fill-rule="evenodd" clip-rule="evenodd" d="M32.5403 40.0042C32.233 40.0042 31.9044 39.9019 31.5611 39.6971C31.2895 39.5345 30.8959 39.1275 30.2034 38.2895C29.6746 37.6504 28.8025 37.0898 28.0339 36.5941L28.0191 36.585C26.6798 35.722 28.0009 33.3206 28.1555 33.0498C28.682 32.1299 29.1471 31.4421 29.6644 30.819C30.3615 29.9809 31.5519 29.3579 33.3041 28.9121C33.4452 28.8768 33.5861 28.8416 33.7282 28.8064C35.2168 28.4356 36.622 28.0855 37.6546 27.0302C37.8661 26.8154 38.2105 26.8119 38.4266 27.0223C38.6415 27.2338 38.6449 27.5795 38.4345 27.7944C37.1861 29.0701 35.5624 29.4738 33.992 29.865C33.8522 29.9002 33.7123 29.9355 33.5725 29.9708C32.0524 30.3561 31.0481 30.8621 30.5036 31.5172C30.0226 32.0969 29.603 32.7167 29.1026 33.5923C28.598 34.4746 28.3534 35.5026 28.6104 35.6674L28.6251 35.6765C29.461 36.2143 30.4081 36.825 31.0436 37.5936C31.8134 38.5237 32.0522 38.7181 32.1193 38.7591C32.3231 38.8796 32.498 38.9342 32.5992 38.9046C32.6994 38.8773 32.7868 38.7478 32.839 38.6556C33.0348 38.1098 33.0279 37.6084 32.8186 37.124C32.8142 37.1126 32.8095 37.1024 32.8061 37.0921C32.5891 36.4906 31.9806 35.9494 30.9982 35.4821C30.7254 35.3523 30.6094 35.0273 30.7389 34.7544C30.8687 34.4825 31.1938 34.3666 31.4666 34.4962C32.7107 35.0875 33.5054 35.8312 33.8272 36.7055C34.1467 37.456 34.1546 38.2519 33.8499 39.0718C33.8409 39.0933 33.8317 39.115 33.8204 39.1366C33.5897 39.572 33.278 39.8484 32.8948 39.9564C32.78 39.9882 32.6616 40.0042 32.5403 40.0042Z" fill="#024873"/>
<path fill-rule="evenodd" clip-rule="evenodd" d="M44.7584 34.6725C44.6198 34.6725 44.4797 34.6191 44.3728 34.5122L36.3431 26.4821C36.1306 26.2696 36.1303 25.9239 36.3429 25.7113L37.8132 24.241C38.026 24.0273 38.3716 24.0273 38.5853 24.241C38.7979 24.4536 38.7979 24.7994 38.5853 25.0131L37.5005 26.0968L44.7584 33.3546L45.8432 32.271C46.0558 32.0571 46.4013 32.0572 46.6152 32.2711C46.828 32.4836 46.8278 32.8293 46.6152 33.0431L45.145 34.5121C45.0381 34.619 44.8982 34.6725 44.7584 34.6725Z" fill="#024873"/>
<path fill-rule="evenodd" clip-rule="evenodd" d="M33.9404 45.6428C33.4958 45.6428 33.0522 45.4747 32.7133 45.1369L31.8548 44.2772C31.6422 44.0646 31.6421 43.719 31.8548 43.5052C32.0686 43.2925 32.4142 43.2926 32.6269 43.5052L33.4855 44.3648C33.7367 44.6149 34.1436 44.615 34.395 44.3648C34.5155 44.2442 34.5815 44.0828 34.5815 43.91C34.5815 43.7371 34.5155 43.5758 34.395 43.4551C34.1814 43.2424 34.1812 42.8969 34.395 42.6843C34.6077 42.4705 34.9533 42.4705 35.1659 42.6831C35.4936 43.0105 35.6731 43.4461 35.6731 43.91C35.6732 44.3739 35.4934 44.8095 35.1671 45.1358C34.8284 45.4745 34.3848 45.6428 33.9404 45.6428Z" fill="#024873"/>
<path fill-rule="evenodd" clip-rule="evenodd" d="M35.98 44.3216C35.5161 44.3216 35.0803 44.142 34.754 43.8145L33.8058 42.8661C33.5922 42.6535 33.592 42.3079 33.8058 42.0941C34.0185 41.8814 34.3641 41.8815 34.5768 42.0941L35.5264 43.0436C35.6469 43.164 35.8081 43.23 35.9799 43.23C36.1529 43.23 36.3142 43.1641 36.4347 43.0436C36.5553 42.9231 36.6211 42.7616 36.6211 42.5888C36.6213 42.4158 36.5552 42.2544 36.4347 42.1339C36.2222 41.9212 36.222 41.5756 36.4347 41.3619C36.6484 41.1492 36.9929 41.1492 37.2067 41.3629C37.5332 41.6892 37.7127 42.1248 37.7127 42.5888C37.7128 43.0526 37.5331 43.4881 37.2067 43.8156C36.8805 44.1419 36.4448 44.3216 35.98 44.3216Z" fill="#024873"/>
<path fill-rule="evenodd" clip-rule="evenodd" d="M38.362 43.3415C37.8982 43.3415 37.4626 43.1618 37.1361 42.8355L34.837 40.5363C34.6234 40.3237 34.6233 39.978 34.837 39.7643C35.0497 39.5516 35.3953 39.5516 35.6091 39.7643L37.9071 42.0634C38.0276 42.1839 38.1891 42.2499 38.3619 42.2499C38.535 42.2498 38.6963 42.1839 38.8168 42.0634C39.0671 41.8132 39.0668 41.405 38.8168 41.1548L36.5996 38.9376C36.387 38.7249 36.3868 38.3794 36.5994 38.1655C36.8134 37.9528 37.1589 37.9529 37.3715 38.1655L39.589 40.3829C40.2644 41.0593 40.2642 42.1589 39.5888 42.8355C39.2615 43.1617 38.8258 43.3415 38.362 43.3415Z" fill="#024873"/>
<path fill-rule="evenodd" clip-rule="evenodd" d="M40.0425 41.6609C39.5787 41.6609 39.143 41.4813 38.8167 41.1549C38.603 40.941 38.6028 40.5954 38.8167 40.3829C39.0294 40.1701 39.3749 40.169 39.5887 40.3829C39.7094 40.5033 39.8707 40.5693 40.0424 40.5693C40.2154 40.5691 40.3767 40.5034 40.4972 40.3829C40.7737 40.1065 40.6905 39.696 40.4733 39.4481L36.6744 35.1353C35.2815 36.0937 34.2558 35.7709 33.2484 34.8647C32.9199 35.2137 32.4844 35.647 32.2444 35.8153C31.9979 35.988 31.6577 35.9289 31.4837 35.6822C31.311 35.4365 31.3701 35.0955 31.6168 34.9227C31.8557 34.7544 32.6333 33.9448 32.7913 33.7412C32.8892 33.6161 33.0358 33.5389 33.195 33.5308C33.353 33.5229 33.5077 33.5844 33.6168 33.6991C34.6665 34.7986 35.1871 34.9795 36.4004 33.9732C36.6278 33.7855 36.9632 33.8118 37.1587 34.0335L41.2933 38.7272C41.9345 39.456 41.9242 40.4988 41.2693 41.1549C40.943 41.4812 40.5075 41.6609 40.0425 41.6609Z" fill="#024873"/>
<path fill-rule="evenodd" clip-rule="evenodd" d="M21.646 34.6725C21.5063 34.6725 21.3673 34.6191 21.2605 34.5122L19.7903 33.0431C19.5778 32.8293 19.5777 32.4836 19.7902 32.2711C20.0042 32.0571 20.3496 32.0572 20.5623 32.2711L21.646 33.3546L28.9039 26.0968L27.8204 25.0131C27.6076 24.7994 27.6076 24.4537 27.8201 24.241C28.034 24.0273 28.3797 24.0273 28.5922 24.241L30.0625 25.7102C30.2752 25.9239 30.2751 26.2696 30.0625 26.4823L22.0326 34.5121C21.9259 34.619 21.7858 34.6725 21.646 34.6725Z" fill="#024873"/>
<path fill-rule="evenodd" clip-rule="evenodd" d="M33.1809 30.0549C33.0274 30.0549 32.8749 29.9912 32.7668 29.8661C31.7641 28.7005 31.3569 28.7325 30.7394 28.7814C30.0868 28.8314 29.2738 28.8951 27.9331 27.9842C27.6842 27.8148 27.6193 27.476 27.7887 27.2259C27.9582 26.9768 28.2971 26.912 28.5472 27.0815C29.5708 27.7772 30.0971 27.7364 30.6553 27.6921C31.5776 27.6203 32.3291 27.683 33.5935 29.1531C33.7903 29.3817 33.764 29.7263 33.5366 29.9229C33.4331 30.0116 33.3069 30.0549 33.1809 30.0549Z" fill="#024873"/>
<path fill-rule="evenodd" clip-rule="evenodd" d="M25.0895 39.115C24.9472 39.115 24.8051 39.0593 24.6982 38.9501C23.5145 37.7323 23.2621 36.5442 23.0187 35.3934C22.8698 34.6883 22.7151 33.9596 22.3434 33.167C22.2162 32.894 22.3331 32.5689 22.606 32.4415C22.879 32.3129 23.2041 32.4302 23.3314 32.7043C23.7568 33.6094 23.9318 34.4371 24.0864 35.1671C24.3174 36.2564 24.5163 37.1979 25.4805 38.1884C25.691 38.4043 25.6864 38.75 25.4703 38.9603C25.3648 39.0638 25.2269 39.115 25.0895 39.115Z" fill="#024873"/>
<path fill-rule="evenodd" clip-rule="evenodd" d="M31.5422 42.4749C31.4002 42.4749 31.2568 42.5285 31.1487 42.6377L29.9685 43.8167C29.7526 44.0339 29.7523 44.3875 29.9684 44.6047C30.1857 44.8219 30.5392 44.8219 30.7564 44.6047L31.9357 43.4243C32.0403 43.3198 32.097 43.18 32.097 43.031C32.097 42.8809 32.0402 42.741 31.9355 42.6377C31.8277 42.5285 31.6842 42.4751 31.5422 42.4749ZM30.363 45.8577C29.9401 45.8577 29.5182 45.6975 29.1976 45.3757C28.5539 44.7332 28.5539 43.6872 29.1976 43.0447L30.3768 41.8655C31.0193 41.2231 32.0652 41.2231 32.7077 41.8656C33.0182 42.1759 33.1886 42.5898 33.1886 43.031C33.1887 43.4722 33.018 43.8862 32.7077 44.1965L31.5286 45.3756C31.2068 45.6974 30.7848 45.8578 30.363 45.8577Z" fill="#024873"/>
<path fill-rule="evenodd" clip-rule="evenodd" d="M28.8028 44.2989C28.3615 44.2989 27.9474 44.1272 27.637 43.8167C26.9948 43.1743 26.9946 42.1282 27.637 41.4858L28.8173 40.3066C29.4598 39.6642 30.5058 39.6631 31.1483 40.3066C31.4589 40.617 31.6293 41.031 31.6293 41.4722C31.6295 41.9132 31.4587 42.3272 31.1483 42.6377C30.9347 42.8503 30.5889 42.8503 30.3763 42.6377C30.1638 42.4237 30.1636 42.0782 30.3763 41.8656C30.481 41.7609 30.5377 41.6211 30.5377 41.4722C30.5379 41.322 30.4808 41.1822 30.3763 41.0787C30.2718 40.9741 30.1318 40.9161 29.9829 40.9161C29.8328 40.9161 29.6929 40.9741 29.5883 41.0787L28.4092 42.2578C28.1921 42.475 28.1919 42.8276 28.4091 43.0447C28.514 43.1492 28.6535 43.2073 28.8026 43.2073C28.9526 43.2073 29.0925 43.1494 29.1972 43.0447C29.4098 42.8319 29.7554 42.8321 29.968 43.0447C30.1819 43.2585 30.1818 43.6042 29.968 43.8167C29.6577 44.1271 29.2437 44.2989 28.8028 44.2989Z" fill="#024873"/>
<path fill-rule="evenodd" clip-rule="evenodd" d="M29.2032 41.2378C29.0632 41.2378 28.9234 41.1845 28.8176 41.0787C28.604 40.8649 28.6039 40.5193 28.8176 40.3066C28.9212 40.2019 28.9791 40.0622 28.9791 39.9122C28.9791 39.763 28.9211 39.6232 28.8176 39.5187C28.6004 39.3014 28.2468 39.3014 28.0296 39.5187C27.817 39.7323 27.4713 39.7325 27.2576 39.5187C27.0449 39.306 27.0449 38.9604 27.2576 38.7466C27.9012 38.1041 28.9461 38.1042 29.5885 38.7466C29.9003 39.0569 30.0707 39.4709 30.0707 39.9122C30.0707 40.3532 29.9001 40.7672 29.5885 41.0787C29.4828 41.1844 29.3429 41.2379 29.2032 41.2378ZM27.244 42.7389C26.8029 42.7389 26.3888 42.5683 26.0784 42.2579C25.4362 41.6153 25.436 40.5693 26.0784 39.9268C26.2922 39.7131 26.6367 39.7131 26.8504 39.9268C27.0633 40.1395 27.0631 40.4852 26.8504 40.6979C26.6335 40.9149 26.6332 41.2686 26.8504 41.4858C26.955 41.5904 27.0949 41.6473 27.2439 41.6473C27.3941 41.6471 27.5338 41.5904 27.6373 41.4858C27.8514 41.2731 28.1967 41.272 28.4094 41.4858C28.6231 41.6984 28.6231 42.0441 28.4094 42.2579C28.099 42.5681 27.685 42.7389 27.244 42.7389Z" fill="#024873"/>
<path fill-rule="evenodd" clip-rule="evenodd" d="M26.864 37.797C26.7218 37.797 26.5784 37.8506 26.4705 37.9598L25.2915 39.1388C25.1867 39.2434 25.1287 39.3834 25.1287 39.5323C25.1289 39.6823 25.1867 39.8223 25.2913 39.9268C25.395 40.0303 25.5346 40.0884 25.6848 40.0884C25.8338 40.0884 25.9736 40.0304 26.0782 39.9268L27.2576 38.7466C27.4745 38.5305 27.4745 38.1769 27.2574 37.9598C27.149 37.8505 27.0072 37.7971 26.864 37.797ZM25.6849 41.1799C25.2436 41.1799 24.8296 41.0093 24.5192 40.6979C24.209 40.3884 24.0371 39.9735 24.0371 39.5323C24.0372 39.0922 24.2089 38.6783 24.5192 38.3668L25.6984 37.1877C26.3408 36.5452 27.387 36.5452 28.0293 37.1877C28.672 37.8301 28.6718 38.8763 28.0293 39.5187L26.8502 40.6989C26.5399 41.0093 26.126 41.1799 25.6849 41.1799Z" fill="#024873"/>
<path fill-rule="evenodd" clip-rule="evenodd" d="M24.4909 15.5994H10.3789C10.0775 15.5994 9.83301 15.3549 9.83301 15.0536C9.83312 14.7522 10.0775 14.5079 10.3788 14.5079L24.4909 14.5078C24.7923 14.5078 25.0367 14.7523 25.0367 15.0536C25.0369 15.3548 24.7922 15.5994 24.4909 15.5994Z" fill="#024873"/>
<path fill-rule="evenodd" clip-rule="evenodd" d="M28.4123 18.533H6.45912C6.15773 18.533 5.91309 18.2886 5.91309 17.9872C5.91309 17.6859 6.15761 17.4414 6.45889 17.4414L28.4123 17.4413C28.7135 17.4413 28.958 17.6859 28.958 17.9872C28.958 18.2884 28.7135 18.533 28.4123 18.533Z" fill="#024873"/>
<path fill-rule="evenodd" clip-rule="evenodd" d="M19.0638 23.5599H4.39443C4.09304 23.5599 3.84863 23.3155 3.84863 23.0141C3.84875 22.7128 4.09304 22.4683 4.39443 22.4683L19.0638 22.4682C19.3652 22.4682 19.6095 22.7129 19.6095 23.0141C19.6095 23.3154 19.365 23.5599 19.0638 23.5599Z" fill="#024873"/>
<path fill-rule="evenodd" clip-rule="evenodd" d="M16.3348 26.9654H4.39443C4.09304 26.9654 3.84863 26.721 3.84863 26.4197C3.84875 26.1184 4.09304 25.8739 4.39443 25.8739L16.3348 25.8737C16.6361 25.8737 16.8805 26.1184 16.8805 26.4197C16.8807 26.721 16.6361 26.9654 16.3348 26.9654Z" fill="#024873"/>
<path fill-rule="evenodd" clip-rule="evenodd" d="M13.7424 30.3698H4.39443C4.09304 30.3698 3.84863 30.1265 3.84863 29.8241C3.84875 29.5227 4.09304 29.2783 4.39443 29.2783H13.7424C14.0437 29.2783 14.288 29.5228 14.288 29.8241C14.288 30.1265 14.0435 30.3699 13.7424 30.3698Z" fill="#024873"/>
<path fill-rule="evenodd" clip-rule="evenodd" d="M16.3348 33.7753H4.39443C4.09304 33.7753 3.84863 33.532 3.84863 33.2296C3.84875 32.9282 4.09304 32.6838 4.39443 32.6838H16.3348C16.6361 32.6838 16.8805 32.9283 16.8805 33.2296C16.8807 33.532 16.6361 33.7754 16.3348 33.7753Z" fill="#024873"/>
<path fill-rule="evenodd" clip-rule="evenodd" d="M19.0638 37.1808H4.39443C4.09304 37.1808 3.84863 36.9364 3.84863 36.635C3.84875 36.3336 4.09304 36.0892 4.39443 36.0892H19.0638C19.3652 36.0892 19.6095 36.3338 19.6095 36.635C19.6095 36.9364 19.365 37.1808 19.0638 37.1808Z" fill="#024873"/>
<path fill-rule="evenodd" clip-rule="evenodd" d="M4.94046 11.2023H29.9295V6.52226H4.94046V11.2023ZM30.4752 12.294H4.39443C4.09304 12.294 3.84863 12.0495 3.84863 11.7482L3.84875 5.97634C3.84875 5.67495 4.09304 5.43066 4.39443 5.43066L30.4752 5.43054C30.7766 5.43054 31.021 5.67507 31.021 5.97634L31.0212 11.7481C31.0212 12.0493 30.7766 12.294 30.4752 12.294Z" fill="#024873"/>
<path fill-rule="evenodd" clip-rule="evenodd" d="M12.8134 44.6309H4.39443C4.09304 44.6309 3.84863 44.3876 3.84863 44.0851C3.84875 43.7836 4.09304 43.5393 4.39443 43.5393L12.8134 43.5392C13.1148 43.5392 13.359 43.7839 13.359 44.0851C13.3591 44.3874 13.1145 44.6309 12.8134 44.6309Z" fill="#024873"/>
<path fill-rule="evenodd" clip-rule="evenodd" d="M5.67529 42.8457C5.62281 42.8457 5.57044 42.8378 5.51704 42.8219C5.22937 42.7354 5.06559 42.4318 5.15198 42.143C5.70239 40.3077 6.3084 39.4652 7.11799 39.4095C7.77648 39.3662 8.29148 39.8905 8.6803 40.5124C9.75483 38.9501 10.9033 38.933 11.7265 39.2447C12.0086 39.3503 12.1506 39.6653 12.0448 39.9473C11.9383 40.2293 11.623 40.3726 11.341 40.2657C11.0205 40.1451 10.1676 39.8223 9.14536 41.8804C9.05239 42.0691 8.8577 42.1862 8.64847 42.1839C8.43831 42.1805 8.24823 42.0566 8.16068 41.8644C7.55364 40.5396 7.19873 40.4988 7.19308 40.4988C7.18846 40.4988 6.75985 40.5795 6.19698 42.4568C6.12662 42.6933 5.90932 42.8457 5.67529 42.8457Z" fill="#024873"/>
<path fill-rule="evenodd" clip-rule="evenodd" d="M33.3433 48.6651H1.52713C0.68571 48.6651 0 47.9807 0 47.1393V2.92335C0 2.08193 0.685595 1.39748 1.52702 1.39748L33.3433 1.39737C34.1847 1.39737 34.8703 2.08193 34.8703 2.92346L34.8704 29.2224C34.8704 29.5238 34.6258 29.7684 34.3245 29.7684C34.0234 29.7682 33.7787 29.5238 33.7787 29.2226V2.92335C33.7787 2.68344 33.5831 2.48908 33.3432 2.48908H1.52713C1.28711 2.48908 1.0916 2.68344 1.0916 2.92346L1.09172 47.1393C1.09172 47.3791 1.28711 47.5737 1.52702 47.5737L33.3433 47.5735C33.5832 47.5735 33.7787 47.3792 33.7787 47.1393V45.0345C33.7787 44.7321 34.0231 44.4888 34.3245 44.4888C34.626 44.4888 34.8703 44.7321 34.8703 45.0345L34.8704 47.1393C34.8704 47.9806 34.1846 48.6653 33.3433 48.6651Z" fill="#024873"/>
</g>
<defs>
<clipPath id="clip0_108_244">
<rect width="50" height="50" fill="white" transform="translate(0 0.03125)"/>
</clipPath>
</defs>
</svg>
