<svg width="45" height="44" viewBox="0 0 45 44" fill="none" xmlns="http://www.w3.org/2000/svg">
<path d="M27.6699 1.375H2.91992C2.73759 1.375 2.56272 1.44743 2.43379 1.57636C2.30485 1.7053 2.23242 1.88016 2.23242 2.0625V10.3125C2.23242 10.4948 2.30485 10.6697 2.43379 10.7986C2.56272 10.9276 2.73759 11 2.91992 11H27.6699C27.8523 11 28.0271 10.9276 28.1561 10.7986C28.285 10.6697 28.3574 10.4948 28.3574 10.3125V2.0625C28.3574 1.88016 28.285 1.7053 28.1561 1.57636C28.0271 1.44743 27.8523 1.375 27.6699 1.375ZM26.9824 9.625H3.60742V2.75H4.98242V5.5H6.35742V2.75H7.73242V5.5H9.10742V2.75H10.4824V5.5H11.8574V2.75H13.2324V5.5H14.6074V2.75H15.9824V5.5H17.3574V2.75H18.7324V5.5H20.1074V2.75H21.4824V5.5H22.8574V2.75H24.2324V5.5H25.6074V2.75H26.9824V9.625Z" fill="#024873"/>
<path d="M22.1699 23.375H15.2949C15.1126 23.375 14.9377 23.3026 14.8088 23.1736C14.6799 23.0447 14.6074 22.8698 14.6074 22.6875V17.1875C14.6074 17.0052 14.6799 16.8303 14.8088 16.7014C14.9377 16.5724 15.1126 16.5 15.2949 16.5H22.1699C22.3523 16.5 22.5271 16.5724 22.6561 16.7014C22.785 16.8303 22.8574 17.0052 22.8574 17.1875V22.6875C22.8574 22.8698 22.785 23.0447 22.6561 23.1736C22.5271 23.3026 22.3523 23.375 22.1699 23.375ZM15.9824 22H21.4824V17.875H15.9824V22Z" fill="#024873"/>
<path d="M22.1699 32.3125H15.2949C15.1126 32.3125 14.9377 32.2401 14.8088 32.1111C14.6799 31.9822 14.6074 31.8073 14.6074 31.625V26.125C14.6074 25.9427 14.6799 25.7678 14.8088 25.6389C14.9377 25.5099 15.1126 25.4375 15.2949 25.4375H22.1699C22.3523 25.4375 22.5271 25.5099 22.6561 25.6389C22.785 25.7678 22.8574 25.9427 22.8574 26.125V31.625C22.8574 31.8073 22.785 31.9822 22.6561 32.1111C22.5271 32.2401 22.3523 32.3125 22.1699 32.3125ZM15.9824 30.9375H21.4824V26.8125H15.9824V30.9375Z" fill="#024873"/>
<path d="M22.1699 35.75H15.2949C15.1126 35.75 14.9377 35.6776 14.8088 35.5486C14.6799 35.4197 14.6074 35.2448 14.6074 35.0625C14.6074 34.8802 14.6799 34.7053 14.8088 34.5764C14.9377 34.4474 15.1126 34.375 15.2949 34.375H22.1699C22.3523 34.375 22.5271 34.4474 22.6561 34.5764C22.785 34.7053 22.8574 34.8802 22.8574 35.0625C22.8574 35.2448 22.785 35.4197 22.6561 35.5486C22.5271 35.6776 22.3523 35.75 22.1699 35.75Z" fill="#024873"/>
<path d="M22.1699 38.5H15.2949C15.1126 38.5 14.9377 38.4276 14.8088 38.2986C14.6799 38.1697 14.6074 37.9948 14.6074 37.8125C14.6074 37.6302 14.6799 37.4553 14.8088 37.3264C14.9377 37.1974 15.1126 37.125 15.2949 37.125H22.1699C22.3523 37.125 22.5271 37.1974 22.6561 37.3264C22.785 37.4553 22.8574 37.6302 22.8574 37.8125C22.8574 37.9948 22.785 38.1697 22.6561 38.2986C22.5271 38.4276 22.3523 38.5 22.1699 38.5Z" fill="#024873"/>
<path d="M5.66993 12.375C4.75858 12.3761 3.88488 12.7386 3.24046 13.383C2.59604 14.0274 2.23352 14.9012 2.23243 15.8125V37.125C2.23179 37.2456 2.2631 37.3642 2.32318 37.4688L5.07318 42.2812C5.13334 42.3864 5.22021 42.4738 5.325 42.5346C5.4298 42.5954 5.54879 42.6274 5.66993 42.6274C5.79107 42.6274 5.91007 42.5954 6.01486 42.5346C6.11965 42.4738 6.20653 42.3864 6.26668 42.2812L9.01668 37.4688C9.07676 37.3642 9.10807 37.2456 9.10743 37.125V15.8125C9.10634 14.9012 8.74383 14.0274 8.09941 13.383C7.45499 12.7386 6.58128 12.3761 5.66993 12.375ZM7.73243 19.25H3.60743V17.875H7.73243V19.25ZM3.60743 20.625H4.98243V34.0904L3.60743 35.4654V20.625ZM5.66993 35.3471L7.56262 37.2398L7.08549 38.0744C6.17004 37.7479 5.16982 37.7479 4.25437 38.0744L3.77724 37.2398L5.66993 35.3471ZM6.35743 34.0904V20.625H7.73243V35.4654L6.35743 34.0904ZM3.60743 15.8125C3.60743 15.2655 3.82473 14.7409 4.21152 14.3541C4.59832 13.9673 5.12292 13.75 5.66993 13.75C6.21694 13.75 6.74155 13.9673 7.12834 14.3541C7.51513 14.7409 7.73243 15.2655 7.73243 15.8125V16.5H3.60743V15.8125ZM5.66993 40.5515L4.94806 39.2886C5.42126 39.1641 5.9186 39.1641 6.39181 39.2886L5.66993 40.5515Z" fill="#024873"/>
<path d="M33.1699 15.125C33.5778 15.125 33.9766 15.004 34.3158 14.7774C34.655 14.5508 34.9193 14.2287 35.0754 13.8518C35.2315 13.4749 35.2724 13.0602 35.1928 12.6601C35.1132 12.26 34.9168 11.8925 34.6283 11.6041C34.3399 11.3156 33.9724 11.1192 33.5723 11.0396C33.1722 10.96 32.7575 11.0009 32.3806 11.157C32.0038 11.3131 31.6816 11.5775 31.455 11.9166C31.2284 12.2558 31.1074 12.6546 31.1074 13.0625C31.1074 13.6095 31.3247 14.1341 31.7115 14.5209C32.0983 14.9077 32.6229 15.125 33.1699 15.125ZM33.1699 12.375C33.3059 12.375 33.4388 12.4153 33.5519 12.4909C33.6649 12.5664 33.7531 12.6738 33.8051 12.7994C33.8571 12.925 33.8707 13.0633 33.8442 13.1966C33.8177 13.33 33.7522 13.4525 33.6561 13.5486C33.5599 13.6448 33.4374 13.7103 33.304 13.7368C33.1707 13.7633 33.0325 13.7497 32.9068 13.6977C32.7812 13.6456 32.6738 13.5575 32.5983 13.4445C32.5227 13.3314 32.4824 13.1985 32.4824 13.0625C32.4824 12.8802 32.5549 12.7053 32.6838 12.5764C32.8127 12.4474 32.9876 12.375 33.1699 12.375Z" fill="#024873"/>
<path d="M42.7949 12.375H37.9274C37.8131 11.5913 37.5074 10.848 37.0373 10.2106C36.5673 9.57326 35.9473 9.06161 35.2324 8.72094V3.4375C35.2297 2.89133 35.0115 2.36829 34.6253 1.98209C34.2391 1.59588 33.7161 1.37771 33.1699 1.375C32.6229 1.375 32.0983 1.5923 31.7115 1.97909C31.3247 2.36589 31.1074 2.89049 31.1074 3.4375V8.72094C30.3925 9.06161 29.7726 9.57326 29.3025 10.2106C28.8324 10.848 28.5267 11.5913 28.4124 12.375H11.1699C10.9876 12.375 10.8127 12.4474 10.6838 12.5764C10.5549 12.7053 10.4824 12.8802 10.4824 13.0625V41.9375C10.4824 42.1198 10.5549 42.2947 10.6838 42.4236C10.8127 42.5526 10.9876 42.625 11.1699 42.625H42.7949C42.9773 42.625 43.1521 42.5526 43.2811 42.4236C43.41 42.2947 43.4824 42.1198 43.4824 41.9375V13.0625C43.4824 12.8802 43.41 12.7053 43.2811 12.5764C43.1521 12.4474 42.9773 12.375 42.7949 12.375ZM39.8462 33.8044H39.8421C39.6668 33.8508 39.4802 33.8261 39.323 33.7356C39.2453 33.6905 39.1773 33.6302 39.1231 33.5584C39.0689 33.4867 39.0296 33.4048 39.0075 33.3176L34.7862 17.5897C35.2308 17.4304 35.6494 17.2064 36.0285 16.9249L40.3289 32.9622C40.3745 33.1378 40.3496 33.3243 40.2594 33.4818C40.1692 33.6392 40.0208 33.755 39.8462 33.8044ZM33.1699 22.6875C32.9876 22.6875 32.8127 22.7599 32.6838 22.8889C32.5549 23.0178 32.4824 23.1927 32.4824 23.375V24.0212C32.0826 23.9973 31.6844 23.9514 31.2896 23.8838L32.9039 17.8626C32.9925 17.8674 33.0799 17.8764 33.1699 17.8764C33.26 17.8764 33.3473 17.8674 33.436 17.8626L35.0502 23.8838C34.6554 23.9514 34.2572 23.9973 33.8574 24.0212V23.375C33.8574 23.1927 33.785 23.0178 33.6561 22.8889C33.5271 22.7599 33.3523 22.6875 33.1699 22.6875ZM32.4824 3.4375C32.4824 3.25516 32.5549 3.0803 32.6838 2.95136C32.8127 2.82243 32.9876 2.75 33.1699 2.75C33.2616 2.7497 33.3523 2.76822 33.4365 2.80441C33.5207 2.84059 33.5966 2.89368 33.6594 2.96038C33.7229 3.02243 33.7732 3.09669 33.8072 3.17869C33.8412 3.26069 33.8583 3.34873 33.8574 3.4375V8.305C33.402 8.23167 32.9378 8.23167 32.4824 8.305V3.4375ZM33.1699 9.625C33.8498 9.625 34.5144 9.82661 35.0797 10.2043C35.645 10.582 36.0856 11.1189 36.3458 11.747C36.6059 12.3751 36.674 13.0663 36.5414 13.7331C36.4087 14.3999 36.0813 15.0124 35.6006 15.4932C35.1199 15.9739 34.5074 16.3013 33.8405 16.4339C33.1737 16.5666 32.4826 16.4985 31.8544 16.2383C31.2263 15.9782 30.6895 15.5376 30.3117 14.9723C29.934 14.407 29.7324 13.7424 29.7324 13.0625C29.7335 12.1512 30.096 11.2774 30.7404 10.633C31.3849 9.98861 32.2586 9.62609 33.1699 9.625ZM30.3113 16.9249C30.6904 17.2064 31.109 17.4304 31.5536 17.5897L27.3351 33.3211C27.288 33.4951 27.1743 33.6436 27.0187 33.7346C26.8632 33.8257 26.678 33.8519 26.5032 33.8078H26.497C26.3224 33.7592 26.1737 33.6441 26.0829 33.4872C25.9921 33.3303 25.9662 33.1441 26.011 32.9684L30.3113 16.9249ZM42.1074 41.25H11.8574V13.75H28.4124C28.5153 14.4757 28.7837 15.168 29.1969 15.7733L24.6814 32.6116C24.5747 33.0218 24.5971 33.455 24.7455 33.8521C24.8939 34.2492 25.161 34.5909 25.5105 34.8308L24.9433 36.9469C24.9199 37.0342 24.9139 37.1251 24.9257 37.2146C24.9375 37.3042 24.9667 37.3905 25.0119 37.4687C25.057 37.5469 25.1171 37.6155 25.1887 37.6704C25.2604 37.7254 25.3421 37.7658 25.4294 37.7891C25.4875 37.8046 25.5473 37.8124 25.6074 37.8125C25.7588 37.8125 25.9059 37.7626 26.0259 37.6705C26.146 37.5784 26.2324 37.4492 26.2715 37.3031L26.8394 35.1835C27.2645 35.1571 27.6703 34.9964 27.9982 34.7246C28.3261 34.4528 28.5593 34.0839 28.664 33.671L30.9273 25.2313C31.4412 25.3263 31.9606 25.3885 32.4824 25.4176V26.125C32.4824 26.3073 32.5549 26.4822 32.6838 26.6111C32.8127 26.7401 32.9876 26.8125 33.1699 26.8125C33.3523 26.8125 33.5271 26.7401 33.6561 26.6111C33.785 26.4822 33.8574 26.3073 33.8574 26.125V25.4176C34.3792 25.389 34.8986 25.3272 35.4125 25.2326L37.6751 33.6689C37.7795 34.0821 38.0126 34.4513 38.3408 34.7232C38.6689 34.9951 39.0751 35.1556 39.5004 35.1814L40.0683 37.3017C40.1072 37.4481 40.1935 37.5776 40.3136 37.67C40.4337 37.7623 40.5809 37.8124 40.7324 37.8125C40.7925 37.8124 40.8524 37.8046 40.9105 37.7891C40.9977 37.7658 41.0795 37.7254 41.1511 37.6704C41.2227 37.6155 41.2828 37.5469 41.328 37.4687C41.3731 37.3905 41.4024 37.3042 41.4142 37.2146C41.4259 37.1251 41.4199 37.0342 41.3965 36.9469L40.8294 34.8315C41.1782 34.5903 41.4444 34.2477 41.592 33.8501C41.7396 33.4525 41.7613 33.0192 41.6544 32.6088L37.143 15.7733C37.5562 15.168 37.8246 14.4757 37.9274 13.75H42.1074V41.25Z" fill="#024873"/>
</svg>
