<svg width="22" height="22" viewBox="0 0 22 22" fill="none" xmlns="http://www.w3.org/2000/svg">
<path d="M2.33984 10.366C1.92563 10.3672 1.52022 10.4856 1.1705 10.7075C0.820781 10.9295 0.54105 11.2459 0.363669 11.6202C0.186288 11.9945 0.118507 12.4114 0.168168 12.8226C0.217829 13.2339 0.382901 13.6226 0.644288 13.9439L6.21644 20.7698C6.41512 21.0165 6.66979 21.2122 6.95929 21.3407C7.2488 21.4693 7.5648 21.5268 7.88103 21.5087C8.55736 21.4724 9.16798 21.1106 9.55729 20.5157L21.1321 1.87452C21.134 1.87143 21.136 1.86834 21.138 1.86529C21.2466 1.69854 21.2114 1.36808 20.9872 1.16048C20.9256 1.10347 20.853 1.05967 20.7739 1.03178C20.6947 1.00389 20.6107 0.992493 20.527 0.9983C20.4433 1.00411 20.3616 1.02699 20.2871 1.06554C20.2125 1.10409 20.1467 1.1575 20.0936 1.22246C20.0894 1.22757 20.0851 1.2326 20.0807 1.23755L8.40741 14.4267C8.36299 14.4769 8.30904 14.5177 8.2487 14.5469C8.18836 14.576 8.12282 14.5929 8.05589 14.5965C7.98897 14.6002 7.92199 14.5905 7.85886 14.568C7.79572 14.5455 7.73768 14.5107 7.6881 14.4656L3.81395 10.9401C3.41158 10.5712 2.88568 10.3664 2.33984 10.366Z" fill="white"/>
</svg>
