<svg width="29" height="29" viewBox="0 0 29 29" fill="none" xmlns="http://www.w3.org/2000/svg">
<path d="M21.1983 16.9841L24.2806 18.8228C24.5909 19.0085 24.836 19.2858 24.9822 19.6165C25.1284 19.9472 25.1686 20.3151 25.0973 20.6696C24.9588 21.3789 24.6761 22.0523 24.2669 22.648C23.8576 23.2437 23.3305 23.749 22.7181 24.1328C22.1056 24.5165 21.421 24.7705 20.7064 24.879C19.9919 24.9875 19.2627 24.9481 18.564 24.7634C15.1582 23.8296 12.0541 22.0255 9.55692 19.5285C7.05972 17.0315 5.25537 13.9276 4.32129 10.5219C4.13639 9.82337 4.09684 9.09428 4.2051 8.37981C4.31335 7.66534 4.5671 6.98069 4.95064 6.36825C5.33418 5.75581 5.83935 5.22861 6.43487 4.81929C7.03039 4.40997 7.70359 4.12724 8.41279 3.9886H8.43145C8.78763 3.91707 9.15723 3.95817 9.489 4.10617C9.82077 4.25418 10.0983 4.50178 10.283 4.8146L12.1076 7.88644C12.4192 8.41434 12.5163 9.0417 12.3789 9.6391C12.2415 10.2365 11.88 10.7584 11.3691 11.0971L9.43595 12.3863C10.8043 15.6647 13.407 18.2736 16.6821 19.6499L17.983 17.7074C18.3243 17.198 18.8481 16.839 19.4463 16.7044C20.0446 16.5698 20.6717 16.6699 21.1983 16.9841ZM21.3441 12.1144C21.3426 10.9546 20.8811 9.84269 20.061 9.02255C19.2409 8.20241 18.129 7.74098 16.9691 7.73944C16.7371 7.73944 16.5145 7.83162 16.3504 7.99572C16.1863 8.15981 16.0941 8.38237 16.0941 8.61444C16.0941 8.8465 16.1863 9.06906 16.3504 9.23316C16.5145 9.39725 16.7371 9.48944 16.9691 9.48944C17.665 9.49036 18.3322 9.76722 18.8243 10.2593C19.3163 10.7514 19.5932 11.4185 19.5941 12.1144C19.5941 12.3465 19.6863 12.5691 19.8504 12.7332C20.0145 12.8972 20.2371 12.9894 20.4691 12.9894C20.7012 12.9894 20.9237 12.8972 21.0878 12.7332C21.2519 12.5691 21.3441 12.3465 21.3441 12.1144ZM23.9691 12.9894C23.7371 12.9894 23.5145 12.8972 23.3504 12.7332C23.1863 12.5691 23.0941 12.3465 23.0941 12.1144C23.0923 10.4906 22.4464 8.93371 21.2981 7.78545C20.1498 6.63719 18.593 5.99129 16.9691 5.98944C16.7371 5.98944 16.5145 5.89725 16.3504 5.73316C16.1863 5.56906 16.0941 5.3465 16.0941 5.11444C16.0941 4.88237 16.1863 4.65981 16.3504 4.49572C16.5145 4.33162 16.7371 4.23944 16.9691 4.23944C19.0569 4.24191 21.0585 5.07238 22.5349 6.5487C24.0112 8.02501 24.8417 10.0266 24.8441 12.1144C24.8441 12.3465 24.7519 12.5691 24.5878 12.7332C24.4237 12.8972 24.2012 12.9894 23.9691 12.9894Z" fill="white"/>
</svg>
