<svg width="23" height="23" viewBox="0 0 23 23" fill="none" xmlns="http://www.w3.org/2000/svg">
<g clip-path="url(#clip0_108_557)">
<path d="M11.6352 0.447754C7.16959 0.447754 3.53613 4.08121 3.53613 8.54727C3.53613 9.71219 3.77457 10.8244 4.24445 11.8534C6.26944 16.2845 10.1519 20.9629 11.2939 22.291C11.3794 22.3903 11.5042 22.4475 11.6354 22.4475C11.7667 22.4475 11.8914 22.3903 11.977 22.291C13.1185 20.9631 17.001 16.285 19.0266 11.8534C19.4967 10.8244 19.7349 9.71219 19.7349 8.54727C19.7345 4.08121 16.101 0.447754 11.6352 0.447754ZM11.6352 12.7542C9.31549 12.7542 7.42806 10.8668 7.42806 8.54704C7.42806 6.22711 9.31549 4.33968 11.6352 4.33968C13.9549 4.33968 15.8423 6.22711 15.8423 8.54704C15.8426 10.8668 13.9551 12.7542 11.6352 12.7542Z" fill="white"/>
</g>
<defs>
<clipPath id="clip0_108_557">
<rect width="22" height="22" fill="white" transform="translate(0.635742 0.447754)"/>
</clipPath>
</defs>
</svg>
