<svg width="21" height="21" viewBox="0 0 21 21" fill="none" xmlns="http://www.w3.org/2000/svg">
<g clip-path="url(#clip0_108_560)">
<path d="M10.6357 0.447754C5.12162 0.447754 0.635742 4.93363 0.635742 10.4478C0.635742 15.9619 5.12162 20.4478 10.6357 20.4478C16.1499 20.4478 20.6357 15.9619 20.6357 10.4478C20.6357 4.93363 16.1499 0.447754 10.6357 0.447754ZM13.1634 13.0622C12.9661 13.2595 12.6463 13.2595 12.4492 13.0622L10.1918 10.8048C10.0972 10.7101 10.0439 10.5817 10.0439 10.4478V5.82556C10.0439 5.54659 10.27 5.3205 10.5489 5.3205C10.8279 5.3205 11.054 5.54659 11.054 5.82556V10.2386L13.1634 12.348C13.3606 12.5453 13.3606 12.8649 13.1634 13.0622Z" fill="white"/>
</g>
<defs>
<clipPath id="clip0_108_560">
<rect width="20" height="20" fill="white" transform="translate(0.635742 0.447754)"/>
</clipPath>
</defs>
</svg>
