<svg width="25" height="25" viewBox="0 0 25 25" fill="none" xmlns="http://www.w3.org/2000/svg">
<path d="M16.8613 12.4479L23.1824 19.3826C23.6084 18.845 23.8397 18.1789 23.8387 17.493V7.40225C23.8397 6.71649 23.6084 6.0506 23.1824 5.51318L16.8613 12.4479Z" fill="white"/>
<path d="M1.43262 17.493C1.4314 18.179 1.66274 18.8451 2.08887 19.3826L8.40997 12.4479L2.08887 5.51318C1.66274 6.05051 1.43139 6.71646 1.43262 7.40225V17.493Z" fill="white"/>
<path d="M15.5036 13.937C15.1398 14.336 14.6969 14.6547 14.203 14.8728C13.7091 15.0909 13.1752 15.2035 12.6353 15.2035C12.0954 15.2035 11.5614 15.0909 11.0676 14.8728C10.5737 14.6547 10.1307 14.336 9.76699 13.937L8.79152 12.8655L2.47559 19.7913C3.03034 20.2802 3.7452 20.5485 4.48465 20.5455H20.7854C21.5251 20.5485 22.2403 20.2801 22.7954 19.7913L16.479 12.8655L15.5036 13.937Z" fill="white"/>
<path d="M2.47559 5.10432L10.1828 13.5578C10.4937 13.899 10.8724 14.1716 11.2947 14.3582C11.717 14.5447 12.1736 14.641 12.6353 14.641C13.0969 14.641 13.5535 14.5447 13.9758 14.3582C14.3981 14.1716 14.7768 13.899 15.0878 13.5578L22.7954 5.10432C22.2403 4.61533 21.5252 4.34682 20.7854 4.34963H4.48465C3.74515 4.34675 3.03029 4.61528 2.47559 5.10432Z" fill="white"/>
</svg>
