<svg width="30" height="31" viewBox="0 0 30 31" fill="none" xmlns="http://www.w3.org/2000/svg">
<path d="M15.9937 15.5L22.8562 8.63746C22.9253 8.57309 22.9807 8.49546 23.0191 8.40922C23.0576 8.32297 23.0782 8.22986 23.0799 8.13545C23.0816 8.04104 23.0642 7.94726 23.0288 7.85971C22.9935 7.77216 22.9408 7.69263 22.8741 7.62586C22.8073 7.5591 22.7278 7.50646 22.6402 7.4711C22.5527 7.43573 22.4589 7.41837 22.3645 7.42003C22.2701 7.4217 22.177 7.44236 22.0907 7.48079C22.0045 7.51922 21.9268 7.57463 21.8625 7.64371L15 14.5062L8.13746 7.64371C8.00417 7.51951 7.82788 7.4519 7.64572 7.45511C7.46356 7.45832 7.28977 7.53212 7.16094 7.66094C7.03212 7.78977 6.95832 7.96356 6.95511 8.14572C6.9519 8.32788 7.01951 8.50417 7.14371 8.63746L14.0062 15.5L7.14371 22.3625C7.07463 22.4268 7.01922 22.5045 6.98079 22.5907C6.94236 22.677 6.9217 22.7701 6.92003 22.8645C6.91837 22.9589 6.93573 23.0527 6.9711 23.1402C7.00646 23.2278 7.0591 23.3073 7.12586 23.3741C7.19263 23.4408 7.27216 23.4935 7.35971 23.5288C7.44726 23.5642 7.54104 23.5816 7.63545 23.5799C7.72986 23.5782 7.82297 23.5576 7.90922 23.5191C7.99546 23.4807 8.07309 23.4253 8.13746 23.3562L15 16.4937L21.8625 23.3562C21.9268 23.4253 22.0045 23.4807 22.0907 23.5191C22.177 23.5576 22.2701 23.5782 22.3645 23.5799C22.4589 23.5816 22.5527 23.5642 22.6402 23.5288C22.7278 23.4935 22.8073 23.4408 22.8741 23.3741C22.9408 23.3073 22.9935 23.2278 23.0288 23.1402C23.0642 23.0527 23.0816 22.9589 23.0799 22.8645C23.0782 22.7701 23.0576 22.677 23.0191 22.5907C22.9807 22.5045 22.9253 22.4268 22.8562 22.3625L15.9937 15.5Z" fill="#024873"/>
</svg>
