<svg width="72" height="31" viewBox="0 0 72 31" fill="none" xmlns="http://www.w3.org/2000/svg">
<path d="M66.8438 10.0081H47.1562C46.3594 10.0081 45.75 9.39868 45.75 8.60181C45.75 7.80493 46.3594 7.19556 47.1562 7.19556H66.8438C67.6406 7.19556 68.25 7.80493 68.25 8.60181C68.25 9.39868 67.6406 10.0081 66.8438 10.0081Z" fill="#096EAE"/>
<path d="M66.8438 16.5706H47.1562C46.3594 16.5706 45.75 15.9612 45.75 15.1643C45.75 14.3674 46.3594 13.7581 47.1562 13.7581H66.8438C67.6406 13.7581 68.25 14.3674 68.25 15.1643C68.25 15.9612 67.6406 16.5706 66.8438 16.5706Z" fill="#096EAE"/>
<path d="M66.8438 23.1331H47.1562C46.3594 23.1331 45.75 22.5237 45.75 21.7268C45.75 20.9299 46.3594 20.3206 47.1562 20.3206H66.8438C67.6406 20.3206 68.25 20.9299 68.25 21.7268C68.25 22.5237 67.6406 23.1331 66.8438 23.1331Z" fill="#096EAE"/>
<path d="M0.860795 11.2727H2.79545L5.38636 17.5966H5.48864L8.07955 11.2727H10.0142V20H8.49716V14.0043H8.41619L6.00426 19.9744H4.87074L2.45881 13.9915H2.37784V20H0.860795V11.2727ZM11.7358 20V11.2727H17.4119V12.598H13.3168V14.9673H17.1179V16.2926H13.3168V18.6747H17.446V20H11.7358ZM19.0249 20V11.2727H20.6058V14.9673H24.6499V11.2727H26.2351V20H24.6499V16.2926H20.6058V20H19.0249ZM29.5355 11.2727V20H27.9545V11.2727H29.5355ZM31.4233 15.1293V16.3991H28.6747V15.1293H31.4233ZM38.9489 15.6364C38.9489 16.5767 38.7727 17.3821 38.4205 18.0526C38.071 18.7202 37.5938 19.2315 36.9886 19.5866C36.3864 19.9418 35.7031 20.1193 34.9389 20.1193C34.1747 20.1193 33.4901 19.9418 32.8849 19.5866C32.2827 19.2287 31.8054 18.7159 31.4531 18.0483C31.1037 17.3778 30.929 16.5739 30.929 15.6364C30.929 14.696 31.1037 13.892 31.4531 13.2244C31.8054 12.554 32.2827 12.0412 32.8849 11.6861C33.4901 11.331 34.1747 11.1534 34.9389 11.1534C35.7031 11.1534 36.3864 11.331 36.9886 11.6861C37.5938 12.0412 38.071 12.554 38.4205 13.2244C38.7727 13.892 38.9489 14.696 38.9489 15.6364ZM37.3594 15.6364C37.3594 14.9744 37.2557 14.4162 37.0483 13.9616C36.8438 13.5043 36.5597 13.1591 36.196 12.9261C35.8324 12.6903 35.4134 12.5724 34.9389 12.5724C34.4645 12.5724 34.0455 12.6903 33.6818 12.9261C33.3182 13.1591 33.0327 13.5043 32.8253 13.9616C32.6207 14.4162 32.5185 14.9744 32.5185 15.6364C32.5185 16.2983 32.6207 16.858 32.8253 17.3153C33.0327 17.7699 33.3182 18.1151 33.6818 18.3509C34.0455 18.5838 34.4645 18.7003 34.9389 18.7003C35.4134 18.7003 35.8324 18.5838 36.196 18.3509C36.5597 18.1151 36.8438 17.7699 37.0483 17.3153C37.2557 16.858 37.3594 16.2983 37.3594 15.6364Z" fill="#096EAE"/>
</svg>
