<svg width="50" height="51" viewBox="0 0 50 51" fill="none" xmlns="http://www.w3.org/2000/svg">
<g clip-path="url(#clip0_108_397)">
<path d="M39.8918 23.6083C40.2409 23.099 40.3166 22.4509 40.0939 21.8749C39.4413 20.1858 37.7862 19.0509 35.9755 19.0509H33.4189V16.7622C34.278 16.4585 34.8953 15.6387 34.8953 14.6769V13.596C34.8953 12.9727 34.3881 12.4656 33.7649 12.4656H31.603C30.9797 12.4656 30.4727 12.9727 30.4727 13.596V14.6769C30.4727 15.6387 31.09 16.4585 31.9489 16.7622V19.0509H27.2985V13.7597C27.3873 12.7265 26.4245 11.6838 25.6756 10.9973V8.2566C25.6756 7.85059 25.3466 7.52161 24.9406 7.52161C24.5347 7.52161 24.2056 7.85059 24.2056 8.2566V10.9973C23.4581 11.7145 22.5557 12.5699 22.5828 13.7597V19.0509H17.9323V16.7622C18.7914 16.4585 19.4087 15.6387 19.4087 14.6769V13.596C19.4087 12.9727 18.9016 12.4656 18.2782 12.4656H16.1164C15.4931 12.4656 14.986 12.9727 14.986 13.596V14.6769C14.986 15.6387 15.6032 16.4585 16.4623 16.7622V19.0509H13.9456C12.1349 19.0509 10.4798 20.1858 9.82717 21.8749C9.36276 22.9689 10.247 24.438 11.5734 24.4216H20.9895V26.1058C20.9895 27.2975 21.959 28.267 23.1507 28.267H24.2256V38.1135L20.779 40.8874C19.9982 41.4106 20.3247 42.8661 21.4239 42.8733L28.4985 42.8694C29.4591 42.8933 30.0158 41.5491 29.1409 40.8826L25.6956 38.1229V28.267H26.7706C27.9622 28.267 28.9317 27.2975 28.9317 26.1058V23.6866C28.9317 23.2806 28.6028 22.9516 28.1967 22.9516H11.5735C11.3937 22.9116 11.1473 22.8907 11.1985 22.4047C11.6338 21.2779 12.7378 20.5208 13.9457 20.5208H35.9755C37.1834 20.5208 38.2874 21.2779 38.7227 22.4047C38.7502 22.5868 38.8197 22.8241 38.3477 22.9516H31.703C31.2969 22.9516 30.968 23.2806 30.968 23.6866C30.968 24.0926 31.2969 24.4216 31.703 24.4216H38.3478C38.9653 24.4216 39.5425 24.1176 39.8918 23.6083ZM31.9427 13.9355H33.4254V14.6768C33.4254 15.0856 33.0928 15.4181 32.684 15.4181C32.2753 15.4181 31.9428 15.0855 31.9428 14.6768L31.9427 13.9355ZM16.4559 13.9355H17.9387V14.6768C17.9387 15.0856 17.6061 15.4181 17.1973 15.4181C16.7885 15.4181 16.4559 15.0855 16.4559 14.6768V13.9355ZM22.4833 41.4027L24.9552 39.4133L27.4355 41.3999L22.4833 41.4027ZM27.4616 24.4216V26.1058C27.4616 26.4869 27.1516 26.797 26.7705 26.797H23.1507C22.7695 26.797 22.4595 26.4869 22.4595 26.1058V24.4216H27.4616ZM24.0528 19.0509V13.7597C24.613 11.6638 25.568 12.4645 25.8286 13.7597V19.0509H24.0528Z" fill="#024873"/>
<path d="M11.872 33.4875C11.8393 33.3991 11.8004 33.3141 11.7589 33.2309C13.1996 33.4241 14.5882 32.476 14.6025 30.9713C14.6025 29.7252 13.5888 28.7115 12.3428 28.7115H4.51933V20.928C4.51933 20.522 4.19025 20.193 3.78434 20.193C3.37843 20.193 3.04934 20.522 3.04934 20.928V28.8114C3.04934 29.5668 3.664 30.1814 4.41947 30.1814H12.3427C12.7781 30.1814 13.1324 30.5357 13.1324 30.9712C13.1324 31.4067 12.7781 31.7609 12.3427 31.7609H4.41947C2.79308 31.761 1.46999 30.4379 1.46999 28.8115V15.9574C1.46999 15.522 1.82426 15.1676 2.25967 15.1676C2.69508 15.1676 3.04934 15.5219 3.04934 15.9574V17.4672C3.04934 17.8732 3.37843 18.2022 3.78434 18.2022C4.19025 18.2022 4.51933 17.8732 4.51933 17.4672V15.9574C4.51933 14.7113 3.50563 13.6976 2.25967 13.6976C1.0137 13.6976 0 14.7113 0 15.9574V28.8115C0 31.1197 1.77927 33.0193 4.03816 33.2134C3.97975 33.3292 3.9284 33.4499 3.88675 33.5759L1.12993 41.9073C1.00243 42.2927 1.21147 42.7085 1.5968 42.836C1.98223 42.9636 2.39794 42.7544 2.52544 42.3692L5.28236 34.0377C5.442 33.5551 5.89073 33.2309 6.39915 33.2309H9.39078C9.88038 33.2309 10.3236 33.5393 10.4938 33.9984L13.6056 42.3937C13.7731 42.6572 14.017 42.9933 14.5502 42.8274C14.9309 42.6864 15.125 42.2634 14.9839 41.8828L11.872 33.4875Z" fill="#024873"/>
<path d="M49.9987 28.8115V15.9574C49.9987 14.7113 48.985 13.6976 47.7391 13.6976C46.493 13.6976 45.4793 14.7113 45.4793 15.9574V28.7115H37.6559C36.41 28.7115 35.3963 29.7252 35.3963 30.9713C35.3793 32.4606 36.816 33.4191 38.2397 33.2309C38.1983 33.3141 38.1593 33.3991 38.1266 33.4875L35.0147 41.8828C34.8737 42.2634 35.0679 42.6863 35.4485 42.8274C35.7293 42.9233 36.1772 42.8532 36.3931 42.3937L39.505 33.9985C39.6752 33.5393 40.1185 33.2309 40.6081 33.2309H43.5997C44.108 33.2309 44.5568 33.5552 44.7165 34.0378L47.4734 42.3692C47.6009 42.7545 48.0163 42.9636 48.4021 42.836C48.7875 42.7085 48.9965 42.2927 48.869 41.9073L46.1121 33.576C46.0704 33.4501 46.0192 33.3294 45.9608 33.2137C48.0966 33.0777 50.0454 31.08 49.9987 28.8115ZM48.5287 28.8115C48.56 30.2984 47.2195 31.7897 45.5793 31.761H37.6559C36.681 31.7344 36.6023 30.2638 37.6559 30.1816H45.5793C46.3347 30.1816 46.9493 29.567 46.9493 28.8116V15.9574C46.9493 15.522 47.3036 15.1676 47.7391 15.1676C48.1746 15.1676 48.5287 15.5219 48.5287 15.9574V28.8115Z" fill="#024873"/>
</g>
<defs>
<clipPath id="clip0_108_397">
<rect width="50" height="50" fill="white" transform="translate(0 0.19751)"/>
</clipPath>
</defs>
</svg>
