<svg width="50" height="50" viewBox="0 0 50 50" fill="none" xmlns="http://www.w3.org/2000/svg">
<path d="M27.344 31.4209H9.41492C8.37422 31.4209 7.35756 31.5969 6.38505 31.9448C6.07306 32.0564 5.93091 32.4198 6.0629 32.7237L6.06419 32.7266C6.18945 33.015 6.51594 33.1413 6.81244 33.0367C7.64848 32.7418 8.52157 32.5928 9.41492 32.5928H27.344C27.6676 32.5928 27.9299 32.3304 27.9299 32.0068C27.9299 31.6833 27.6676 31.4209 27.344 31.4209Z" fill="#024873"/>
<path d="M27.1722 40.4586C27.4687 40.5632 27.7952 40.4369 27.9204 40.1485L27.9217 40.1455C28.0537 39.8417 27.9116 39.4783 27.5996 39.3667C26.6271 39.0188 25.6104 38.8428 24.5697 38.8428H6.64062C6.31704 38.8428 6.05469 39.1051 6.05469 39.4287C6.05469 39.7523 6.31704 40.0146 6.64062 40.0146H24.5697C25.4631 40.0146 26.3361 40.1637 27.1722 40.4586Z" fill="#024873"/>
<path d="M46.875 30.6H45.4186L46.1227 27.9728C46.4577 26.7212 45.7115 25.4295 44.4603 25.0938C43.2076 24.7585 41.9167 25.5043 41.581 26.7563L40.5514 30.6H38.8672V20.0825C38.8672 19.759 38.6047 19.4965 38.2812 19.4965C37.9578 19.4965 37.6953 19.759 37.6953 20.0825V30.6H31.1233C30.5278 29.1503 29.1629 28.0968 27.5391 27.9495V15.625C27.5391 15.0864 27.977 14.6484 28.5156 14.6484H30.2734H34.9609H36.7188C37.2574 14.6484 37.6953 15.0864 37.6953 15.625V17.7387C37.6953 18.0622 37.9578 18.3247 38.2812 18.3247C38.6047 18.3247 38.8672 18.0622 38.8672 17.7387V15.625C38.8672 14.4402 37.9036 13.4766 36.7188 13.4766H35.5469V9.76562C35.5469 9.47533 35.4561 9.20601 35.3012 8.98438C35.4561 8.76274 35.5469 8.49342 35.5469 8.20312V7.03125C35.5469 6.49261 35.1089 6.05469 34.5703 6.05469H30.6641C30.1254 6.05469 29.6875 6.49261 29.6875 7.03125V8.20312C29.6875 8.49342 29.7783 8.76274 29.9332 8.98438C29.7783 9.20601 29.6875 9.47533 29.6875 9.76562V13.4766H28.5156C27.3308 13.4766 26.3672 14.4402 26.3672 15.625V27.9297H22.5749C24.6015 26.2642 25.5536 23.3577 25.6012 23.2088C25.6508 23.0516 25.6325 22.8807 25.5501 22.7376C25.4677 22.5946 25.3288 22.4931 25.1678 22.458C25.0223 22.4264 22.3042 21.8584 19.9254 22.5976C19.3744 20.1623 17.5108 18.0846 17.424 17.9891C17.3134 17.867 17.1555 17.7976 16.9907 17.7976C16.8259 17.7976 16.6687 17.867 16.5573 17.9891C16.4705 18.0846 14.6066 20.1622 14.0558 22.5967C11.6775 21.8588 8.96206 22.4261 8.81653 22.458C8.65555 22.4931 8.51669 22.5946 8.4343 22.7376C8.3519 22.8807 8.33359 23.0516 8.38318 23.2088C8.43081 23.3577 9.38287 26.2642 11.4095 27.9297H6.83594C4.46701 27.9297 2.53906 29.8573 2.53906 32.2266C2.53906 33.8097 3.40223 35.1921 4.6802 35.9375C3.40223 36.6829 2.53906 38.0653 2.53906 39.6484C2.53906 42.0177 4.46701 43.9453 6.83594 43.9453H10.0548C10.3783 43.9453 10.6407 43.6829 10.6407 43.3594C10.6407 43.0359 10.3783 42.7734 10.0548 42.7734H6.83594C5.11246 42.7734 3.71094 41.3715 3.71094 39.6484C3.71094 37.9253 5.11246 36.5234 6.83594 36.5234H27.1484C28.8719 36.5234 30.2734 37.9253 30.2734 39.6484C30.2734 41.3715 28.8719 42.7734 27.1484 42.7734H12.3985C12.075 42.7734 11.8126 43.0359 11.8126 43.3594C11.8126 43.6829 12.075 43.9453 12.3985 43.9453H27.1484H32.6172C32.9407 43.9453 33.2031 43.6829 33.2031 43.3594C33.2031 43.0359 32.9407 42.7734 32.6172 42.7734H30.0883C30.9214 41.9893 31.4453 40.8801 31.4453 39.6484C31.4453 38.0653 30.5821 36.6829 29.3042 35.9375C30.5821 35.1921 31.4453 33.8097 31.4453 32.2266C31.4453 32.0729 31.4365 31.9214 31.4207 31.7719H46.2791C46.0747 35.6834 42.8284 38.8031 38.8672 38.8031C36.2823 38.8031 33.9233 37.4905 32.5577 35.2917C32.3875 35.0166 32.0267 34.9323 31.7513 35.1028C31.4758 35.2737 31.3919 35.635 31.5628 35.9097C32.6793 37.7075 34.375 38.9791 36.326 39.5796C35.1114 40.3988 34.3109 41.7873 34.3109 43.3594C34.3109 43.6829 34.5734 43.9453 34.8969 43.9453H42.8375C43.161 43.9453 43.4235 43.6829 43.4235 43.3594C43.4235 41.7924 42.6281 40.4081 41.4203 39.5878C44.9161 38.498 47.4609 35.2312 47.4609 31.3812V31.1859C47.4609 30.8624 47.1985 30.6 46.875 30.6ZM30.8594 9.76562C30.8594 9.65805 30.9471 9.57031 31.0547 9.57031H32.0312C32.3548 9.57031 32.6172 9.30796 32.6172 8.98438C32.6172 8.66079 32.3548 8.39844 32.0312 8.39844H31.0547C30.9471 8.39844 30.8594 8.3107 30.8594 8.20312V7.22656H34.375V8.20312C34.375 8.3107 34.2873 8.39844 34.1797 8.39844C33.8562 8.39844 33.5938 8.66089 33.5938 8.98438C33.5938 9.30786 33.8562 9.57031 34.1797 9.57031C34.2873 9.57031 34.375 9.65805 34.375 9.76562V13.4766H30.8594V9.76562ZM24.2409 23.4941C23.7633 24.6427 22.5822 26.9952 20.694 27.7029C19.7227 28.0656 18.7019 27.9474 17.5804 27.3386C17.614 26.0637 18.0214 25.1207 18.8194 24.4623C20.3728 23.1828 23.0072 23.3354 24.2409 23.4941ZM16.9914 19.3098C17.567 20.0632 18.536 21.5235 18.8207 23.0641C18.5612 23.2071 18.3092 23.3648 18.0771 23.5559C17.6213 23.9308 17.2621 24.3796 16.9922 24.8939C16.7223 24.3796 16.363 23.9308 15.9073 23.5559C15.6744 23.3642 15.4213 23.2059 15.1608 23.0627C15.4457 21.527 16.4153 20.0645 16.9914 19.3098ZM9.74426 23.4941C10.9795 23.3354 13.6124 23.1832 15.1649 24.4623C15.963 25.1207 16.3704 26.0637 16.404 27.3386C15.284 27.947 14.2624 28.0664 13.2935 27.7036C11.409 26.9994 10.2242 24.6439 9.74426 23.4941ZM27.1484 35.3516H6.83594C5.11246 35.3516 3.71094 33.9497 3.71094 32.2266C3.71094 30.5035 5.11246 29.1016 6.83594 29.1016H27.1484C28.8719 29.1016 30.2734 30.5035 30.2734 32.2266C30.2734 33.9497 28.8719 35.3516 27.1484 35.3516ZM44.9905 27.6695L44.2051 30.6H41.7647L42.7132 27.0596C42.8818 26.432 43.531 26.0571 44.1566 26.226C44.7845 26.3943 45.1584 27.042 44.9905 27.6695ZM42.2005 42.7734H35.5339C35.8116 41.1854 37.2009 39.975 38.8672 39.975C40.5334 39.975 41.9228 41.1854 42.2005 42.7734Z" fill="#024873"/>
<path d="M30.0781 17.1528C29.7546 17.1528 29.4922 17.4153 29.4922 17.7388V21.2544C29.4922 21.5779 29.7546 21.8403 30.0781 21.8403H35.1562C35.4797 21.8403 35.7422 21.5779 35.7422 21.2544V17.7388C35.7422 17.4153 35.4797 17.1528 35.1562 17.1528H30.0781ZM34.5703 20.6685H30.6641V18.3247H34.5703V20.6685Z" fill="#024873"/>
</svg>
