<svg width="50" height="50" viewBox="0 0 50 50" fill="none" xmlns="http://www.w3.org/2000/svg">
<path d="M27.763 4.91237L29.5272 2.45163C29.6942 2.21857 29.9634 2.08036 30.2501 2.08036C30.5369 2.08036 30.8059 2.21857 30.973 2.45152L32.5652 4.67231L35.1695 5.50045C35.4427 5.58741 35.6573 5.80067 35.7459 6.07331C35.8345 6.34594 35.7863 6.6446 35.6162 6.87554L33.9962 9.07621L34.0133 11.8087C34.0151 12.0955 33.8787 12.3654 33.6466 12.5339C33.4927 12.6457 33.3093 12.7038 33.1237 12.7038C33.0296 12.7038 32.9351 12.6889 32.8435 12.6585L31.2737 12.1375C30.8074 11.9827 30.5549 11.4794 30.7097 11.013C30.8644 10.5468 31.3678 10.294 31.8341 10.449L32.2265 10.5792L32.2153 8.79212C32.2141 8.60043 32.2749 8.41352 32.3885 8.25919L33.4482 6.81983L31.7448 6.27823C31.5621 6.22019 31.4031 6.10455 31.2915 5.94888L30.2502 4.49641L29.209 5.94877C28.9227 6.34806 28.3671 6.43956 27.9678 6.15347C27.5684 5.86738 27.4768 5.31165 27.763 4.91237ZM37.6737 20.8159C37.6737 21.3071 37.2754 21.7054 36.7842 21.7054H32.5709C32.0796 21.7054 31.6813 21.3071 31.6813 20.8159V15.0578C31.6813 14.5665 32.0796 14.1683 32.5709 14.1683H36.7842C37.2754 14.1683 37.6737 14.5665 37.6737 15.0578V20.8159ZM35.8947 15.9473H33.4604V19.9263H35.8947V15.9473ZM37.6737 24.2994V30.0576C37.6737 30.5489 37.2754 30.9472 36.7842 30.9472H32.5709C32.0796 30.9472 31.6813 30.5489 31.6813 30.0576V24.2994C31.6813 23.8082 32.0796 23.4099 32.5709 23.4099H36.7842C37.2755 23.4099 37.6737 23.8081 37.6737 24.2994ZM35.8947 25.189H33.4604V29.1681H35.8947V25.189ZM30.3657 9.25289L28.7457 11.4536L28.7629 14.1862C28.7647 14.4729 28.6283 14.7429 28.3962 14.9113C28.2424 15.0232 28.0589 15.0812 27.8733 15.0812C27.7792 15.0812 27.6847 15.0663 27.5931 15.036L24.9996 14.1753L22.4062 15.036C22.1341 15.1262 21.8351 15.08 21.6032 14.9113C21.3713 14.7428 21.2347 14.4728 21.2365 14.1862L21.2536 11.4536L19.6336 9.25289C19.4636 9.02195 19.4153 8.7233 19.5039 8.45066C19.5926 8.17791 19.8072 7.96476 20.0803 7.87781L22.6845 7.04978L24.2768 4.82898C24.4438 4.59592 24.713 4.45772 24.9996 4.45772C25.2863 4.45772 25.5554 4.59592 25.7225 4.82887L27.3148 7.04966L29.9189 7.87781C30.1922 7.96465 30.4067 8.17791 30.4953 8.45055C30.5839 8.72318 30.5358 9.02206 30.3657 9.25289ZM28.1977 9.1973L26.4946 8.65569C26.3119 8.59765 26.1529 8.48212 26.0412 8.32635L24.9998 6.87387L23.9584 8.32635C23.8468 8.48212 23.6877 8.59765 23.5051 8.6558L21.8019 9.19741L22.8614 10.6368C22.9751 10.7911 23.0358 10.978 23.0347 11.1696L23.0234 12.9569L24.7195 12.3939C24.8105 12.3638 24.9051 12.3486 24.9997 12.3486C25.0943 12.3486 25.189 12.3638 25.2799 12.3939L26.9761 12.9569L26.9648 11.1697C26.9636 10.978 27.0244 10.7911 27.138 10.6368L28.1977 9.1973ZM23.8676 3.29678L24.9997 2.15364L26.132 3.29678C26.3059 3.47246 26.5349 3.56041 26.764 3.56041C26.9902 3.56041 27.2165 3.47469 27.3899 3.3029C27.7389 2.95721 27.7417 2.39403 27.396 2.04501L25.6316 0.263631C25.4646 0.0949562 25.2371 0 24.9996 0C24.7621 0 24.5346 0.0949562 24.3676 0.263631L22.6035 2.04501C22.2578 2.39414 22.2606 2.95732 22.6096 3.30301C22.9587 3.64859 23.5219 3.64603 23.8676 3.29678ZM18.3179 20.8159C18.3179 21.3071 17.9196 21.7054 17.4284 21.7054H13.215C12.7238 21.7054 12.3255 21.3071 12.3255 20.8159V15.0578C12.3255 14.5665 12.7238 14.1683 13.215 14.1683H17.4284C17.9196 14.1683 18.3179 14.5665 18.3179 15.0578V20.8159ZM16.5388 15.9473H14.1046V19.9263H16.5388V15.9473ZM18.3179 24.2994V30.0576C18.3179 30.5489 17.9196 30.9472 17.4284 30.9472H13.215C12.7238 30.9472 12.3255 30.5489 12.3255 30.0576V24.2994C12.3255 23.8082 12.7238 23.4099 13.215 23.4099H17.4284C17.9197 23.4099 18.3179 23.8081 18.3179 24.2994ZM16.5388 25.189H14.1046V29.1681H16.5388V25.189ZM48.3264 45.7086V49.1105C48.3264 49.6017 47.9281 50 47.4368 50H2.56237C2.07113 50 1.67285 49.6017 1.67285 49.1105V45.7086C1.67285 45.2174 2.07113 44.8191 2.56237 44.8191H4.17563V24.6744C4.17563 24.1831 4.57391 23.7849 5.06515 23.7849H7.81921V9.62749C7.81921 9.13625 8.21749 8.73797 8.70873 8.73797H13.8564C14.3476 8.73797 14.7459 9.13625 14.7459 9.62749C14.7459 10.1187 14.3476 10.517 13.8564 10.517H9.59836V44.8191H12.3256V37.3278C12.3256 35.9602 13.4383 34.8476 14.8059 34.8476H14.9536C16.3212 34.8476 17.4339 35.9602 17.4339 37.3278V44.8191H19.897V35.737C19.897 34.0768 21.2475 32.7262 22.9077 32.7262H27.092C28.752 32.7262 30.1027 34.0768 30.1027 35.737V44.8191H32.5656V37.3278C32.5656 35.9602 33.6782 34.8476 35.0458 34.8476H35.1936C36.5612 34.8476 37.6738 35.9602 37.6738 37.3278V44.8191H40.4011V10.517H36.1431C35.6518 10.517 35.2535 10.1187 35.2535 9.62749C35.2535 9.13625 35.6518 8.73797 36.1431 8.73797H41.2906C41.7818 8.73797 42.1801 9.13625 42.1801 9.62749V23.7849H44.9341C45.4253 23.7849 45.8236 24.1831 45.8236 24.6744V44.8191H47.437C47.9282 44.8191 48.3264 45.2173 48.3264 45.7086ZM42.18 44.8191H44.0444V25.5639H42.18V44.8191ZM34.3446 44.8191H35.8947V37.3278C35.8947 36.9412 35.5801 36.6266 35.1935 36.6266H35.0457C34.6591 36.6266 34.3446 36.9412 34.3446 37.3278V44.8191ZM21.676 44.8191H28.3235V35.737C28.3235 35.0578 27.771 34.5052 27.0919 34.5052H22.9076C22.2285 34.5052 21.6759 35.0577 21.6759 35.737V44.8191H21.676ZM14.1046 44.8191H15.6548V37.3278C15.6548 36.9412 15.3401 36.6266 14.9535 36.6266H14.8058C14.4191 36.6266 14.1046 36.9412 14.1046 37.3278V44.8191ZM5.95478 44.8191H7.81932V25.5639H5.95478V44.8191ZM46.5473 46.5981H3.45189V48.221H46.5473V46.5981ZM27.9958 24.2994V30.0576C27.9958 30.5489 27.5976 30.9472 27.1063 30.9472H22.8929C22.4017 30.9472 22.0034 30.5489 22.0034 30.0576V24.2994C22.0034 23.8082 22.4017 23.4099 22.8929 23.4099H27.1063C27.5977 23.4099 27.9958 23.8081 27.9958 24.2994ZM26.2168 25.189H23.7824V29.1681H26.2168V25.189ZM27.9958 17.6304C27.9958 17.1392 27.5976 16.7409 27.1063 16.7409C26.6151 16.7409 26.2168 17.1392 26.2168 17.6304V19.9266H23.7824V17.6304C23.7824 17.1392 23.3841 16.7409 22.8929 16.7409C22.4017 16.7409 22.0034 17.1392 22.0034 17.6304V20.8161C22.0034 21.3073 22.4017 21.7056 22.8929 21.7056H27.1063C27.5976 21.7056 27.9958 21.3073 27.9958 20.8161V17.6304ZM16.0032 9.07632L15.986 11.8088C15.9842 12.0955 16.1206 12.3655 16.3526 12.534C16.5066 12.6459 16.6901 12.7039 16.8755 12.7039C16.9696 12.7039 17.0641 12.689 17.1556 12.6586L18.7256 12.1376C19.1918 11.9828 19.4444 11.4795 19.2897 11.0133C19.1349 10.5469 18.6312 10.2945 18.1653 10.4492L17.7728 10.5794L17.7842 8.79234C17.7854 8.60065 17.7246 8.41374 17.6109 8.25941L16.5513 6.82006L18.2546 6.27845C18.4373 6.22041 18.5963 6.10477 18.708 5.94899L19.7493 4.49652L20.7907 5.94899C21.0769 6.34817 21.6326 6.43979 22.0319 6.15358C22.4312 5.86738 22.5229 5.31165 22.2365 4.91237L20.4722 2.45163C20.3052 2.21857 20.036 2.08047 19.7493 2.08047C19.4627 2.08047 19.1934 2.21868 19.0264 2.45174L17.4342 4.67253L14.83 5.50068C14.5567 5.58763 14.3422 5.80089 14.2535 6.07353C14.1649 6.34617 14.2132 6.64482 14.3832 6.87576L16.0032 9.07632Z" fill="#024873"/>
</svg>
