<svg width="51" height="51" viewBox="0 0 51 51" fill="none" xmlns="http://www.w3.org/2000/svg">
<path d="M43.0947 13.1099C44.2922 13.1099 45.4628 12.7548 46.4585 12.0895C47.4542 11.4242 48.2303 10.4786 48.6885 9.37221C49.1468 8.26586 49.2667 7.04846 49.0331 5.87397C48.7995 4.69947 48.2228 3.62063 47.376 2.77387C46.5293 1.9271 45.4504 1.35045 44.2759 1.11683C43.1014 0.883209 41.884 1.00311 40.7777 1.46138C39.6713 1.91964 38.7257 2.69569 38.0604 3.69137C37.3951 4.68706 37.04 5.85767 37.04 7.05518C37.0418 8.66043 37.6803 10.1994 38.8154 11.3345C39.9505 12.4696 41.4895 13.1081 43.0947 13.1099ZM43.0947 2.17237C44.0605 2.17237 45.0045 2.45874 45.8075 2.99527C46.6104 3.5318 47.2363 4.29439 47.6059 5.18661C47.9754 6.07882 48.0721 7.0606 47.8837 8.00777C47.6953 8.95494 47.2303 9.82498 46.5474 10.5078C45.8645 11.1907 44.9945 11.6558 44.0473 11.8442C43.1001 12.0326 42.1184 11.9359 41.2262 11.5663C40.3339 11.1967 39.5713 10.5709 39.0348 9.76792C38.4983 8.96495 38.2119 8.02091 38.2119 7.05518C38.2134 5.76062 38.7283 4.5195 39.6437 3.60411C40.559 2.68872 41.8002 2.17381 43.0947 2.17237Z" fill="#024873"/>
<path d="M41.5322 7.64111H43.0947C43.2501 7.64111 43.3992 7.57938 43.509 7.4695C43.6189 7.35961 43.6807 7.21058 43.6807 7.05518V4.71143C43.6807 4.55603 43.6189 4.40699 43.509 4.29711C43.3992 4.18722 43.2501 4.12549 43.0947 4.12549C42.9393 4.12549 42.7903 4.18722 42.6804 4.29711C42.5705 4.40699 42.5088 4.55603 42.5088 4.71143V6.46924H41.5322C41.3768 6.46924 41.2278 6.53097 41.1179 6.64086C41.008 6.75074 40.9463 6.89978 40.9463 7.05518C40.9463 7.21058 41.008 7.35961 41.1179 7.4695C41.2278 7.57938 41.3768 7.64111 41.5322 7.64111Z" fill="#024873"/>
<path d="M47.7823 24.438H42.8995V22.4849H44.6573C45.0198 22.4844 45.3673 22.3402 45.6236 22.0839C45.8799 21.8276 46.0241 21.4801 46.0245 21.1177V19.5552C46.0241 19.1927 45.8799 18.8452 45.6236 18.5889C45.3673 18.3326 45.0198 18.1884 44.6573 18.188H42.8995V17.2114C42.8995 17.056 42.8378 16.907 42.7279 16.7971C42.618 16.6872 42.469 16.6255 42.3136 16.6255H36.0636C35.9082 16.6255 35.7591 16.6872 35.6493 16.7971C35.5394 16.907 35.4776 17.056 35.4776 17.2114V24.438H21.0245V22.4849H26.6886C27.2582 22.4843 27.8043 22.2577 28.2071 21.855C28.6099 21.4522 28.8364 20.9061 28.837 20.3364V7.83643C28.8364 7.2668 28.6099 6.72068 28.2071 6.31789C27.8043 5.91511 27.2582 5.68857 26.6886 5.68799H7.93858C7.36895 5.68857 6.82283 5.91511 6.42004 6.31789C6.01726 6.72068 5.79072 7.2668 5.79014 7.83643V20.3364C5.79072 20.9061 6.01726 21.4522 6.42004 21.855C6.82283 22.2577 7.36895 22.4843 7.93858 22.4849H13.6026V24.438H2.46983C2.31443 24.438 2.16539 24.4997 2.05551 24.6096C1.94562 24.7195 1.88389 24.8685 1.88389 25.0239V28.1489C1.88389 28.3043 1.94562 28.4534 2.05551 28.5632C2.16539 28.6731 2.31443 28.7349 2.46983 28.7349H5.65537L1.89608 46.7796C1.8804 46.8549 1.87972 46.9326 1.89407 47.0082C1.90842 47.0838 1.93752 47.1559 1.97971 47.2202C2.02191 47.2846 2.07636 47.34 2.13997 47.3833C2.20358 47.4266 2.27511 47.457 2.35045 47.4727C2.4258 47.4884 2.50349 47.489 2.5791 47.4747C2.65471 47.4603 2.72676 47.4312 2.79112 47.389C2.85548 47.3469 2.9109 47.2924 2.95422 47.2288C2.99754 47.1652 3.0279 47.0937 3.04358 47.0183L3.72764 43.7349H9.02451L9.7085 47.0181C9.74016 47.1703 9.83097 47.3037 9.96096 47.3889C10.0909 47.4741 10.2495 47.5042 10.4016 47.4725C10.5538 47.4409 10.6872 47.3501 10.7724 47.2201C10.8576 47.0901 10.8877 46.9316 10.856 46.7794L7.09678 28.7349H43.1554L39.3961 46.7796C39.3804 46.8549 39.3797 46.9326 39.3941 47.0082C39.4084 47.0838 39.4375 47.1559 39.4797 47.2202C39.5219 47.2846 39.5764 47.34 39.64 47.3833C39.7036 47.4266 39.7751 47.457 39.8504 47.4727C39.9258 47.4884 40.0035 47.489 40.0791 47.4747C40.1547 47.4603 40.2268 47.4312 40.2911 47.389C40.3555 47.3469 40.4109 47.2924 40.4542 47.2288C40.4975 47.1652 40.5279 47.0937 40.5436 47.0183L41.2276 43.7349H46.5245L47.2085 47.0181C47.2402 47.1703 47.331 47.3037 47.461 47.3889C47.5909 47.4741 47.7495 47.5042 47.9016 47.4725C48.0538 47.4409 48.1871 47.3501 48.2724 47.2201C48.3576 47.0901 48.3877 46.9316 48.356 46.7794L44.5968 28.7349H47.7823C47.9377 28.7349 48.0868 28.6731 48.1966 28.5632C48.3065 28.4534 48.3683 28.3043 48.3683 28.1489V25.0239C48.3683 24.8685 48.3065 24.7195 48.1966 24.6096C48.0868 24.4997 47.9377 24.438 47.7823 24.438ZM3.9717 42.563L6.37608 31.0217L8.78045 42.563H3.9717ZM41.4717 42.563L43.8761 31.0217L46.2804 42.563H41.4717ZM44.6573 19.3599C44.7091 19.3599 44.7588 19.3804 44.7954 19.4171C44.8321 19.4537 44.8526 19.5034 44.8526 19.5552V21.1177C44.8526 21.1695 44.8321 21.2192 44.7954 21.2558C44.7588 21.2924 44.7091 21.313 44.6573 21.313H42.8995V19.3599H44.6573ZM36.6495 17.7974H41.7276V24.438H36.6495V17.7974ZM7.93858 21.313C7.67965 21.3128 7.43139 21.2098 7.24829 21.0267C7.0652 20.8436 6.96224 20.5954 6.96201 20.3364V7.83643C6.96224 7.5775 7.0652 7.32923 7.24829 7.14614C7.43139 6.96305 7.67965 6.86009 7.93858 6.85986H26.6886C26.9475 6.86009 27.1958 6.96305 27.3789 7.14614C27.5619 7.32923 27.6649 7.5775 27.6651 7.83643V20.3364C27.6649 20.5954 27.5619 20.8436 27.3789 21.0267C27.1958 21.2098 26.9475 21.3128 26.6886 21.313H21.0245V15.6489C21.0245 15.4935 20.9628 15.3445 20.8529 15.2346C20.743 15.1247 20.594 15.063 20.4386 15.063H14.1886C14.0332 15.063 13.8841 15.1247 13.7743 15.2346C13.6644 15.3445 13.6026 15.4935 13.6026 15.6489V21.313H7.93858ZM14.7745 16.2349H19.8526V24.438H14.7745V16.2349ZM47.1964 27.563H3.05576V25.6099H47.1964V27.563Z" fill="#024873"/>
<path d="M31.9619 45.6232V45.3364C31.9611 44.5597 31.6521 43.815 31.1029 43.2658C30.5537 42.7165 29.809 42.4076 29.0322 42.4067H27.2744V36.5474H32.1572C32.3126 36.5474 32.4617 36.4856 32.5716 36.3757C32.6814 36.2659 32.7432 36.1168 32.7432 35.9614V32.8364C32.7432 32.681 32.6814 32.532 32.5716 32.4221C32.4617 32.3122 32.3126 32.2505 32.1572 32.2505H18.0947C17.9393 32.2505 17.7903 32.3122 17.6804 32.4221C17.5705 32.532 17.5088 32.681 17.5088 32.8364V35.9614C17.5088 36.1168 17.5705 36.2659 17.6804 36.3757C17.7903 36.4856 17.9393 36.5474 18.0947 36.5474H22.9775V42.4067H21.2197C20.443 42.4076 19.6983 42.7165 19.1491 43.2658C18.5998 43.815 18.2909 44.5597 18.29 45.3364V45.6232C17.7911 45.7646 17.3602 46.0817 17.0768 46.516C16.7934 46.9503 16.6766 47.4724 16.748 47.986C16.8194 48.4996 17.0741 48.9701 17.4653 49.3106C17.8564 49.6511 18.3574 49.8387 18.876 49.8387C19.3945 49.8387 19.8956 49.6511 20.2867 49.3106C20.6778 48.9701 20.9326 48.4996 21.004 47.986C21.0754 47.4724 20.9586 46.9503 20.6752 46.516C20.3917 46.0817 19.9608 45.7646 19.4619 45.6232V45.3364C19.4624 44.8704 19.6478 44.4236 19.9773 44.094C20.3069 43.7645 20.7537 43.5791 21.2197 43.5786H29.0322C29.4983 43.5791 29.9451 43.7645 30.2746 44.094C30.6042 44.4236 30.7895 44.8704 30.79 45.3364V45.6232C30.2911 45.7646 29.8602 46.0817 29.5768 46.516C29.2934 46.9503 29.1766 47.4724 29.248 47.986C29.3194 48.4996 29.5741 48.9701 29.9653 49.3106C30.3564 49.6511 30.8574 49.8387 31.376 49.8387C31.8945 49.8387 32.3956 49.6511 32.7867 49.3106C33.1778 48.9701 33.4326 48.4996 33.504 47.986C33.5754 47.4724 33.4586 46.9503 33.1752 46.516C32.8917 46.0817 32.4608 45.7646 31.9619 45.6232ZM19.8525 47.6802C19.8525 47.8733 19.7953 48.0621 19.688 48.2227C19.5807 48.3833 19.4281 48.5085 19.2497 48.5824C19.0713 48.6563 18.8749 48.6757 18.6855 48.638C18.496 48.6003 18.322 48.5073 18.1854 48.3707C18.0489 48.2341 17.9559 48.0601 17.9182 47.8707C17.8805 47.6813 17.8998 47.4849 17.9738 47.3065C18.0477 47.128 18.1728 46.9755 18.3334 46.8682C18.494 46.7609 18.6828 46.7036 18.876 46.7036C19.1349 46.7038 19.3832 46.8068 19.5663 46.9899C19.7494 47.173 19.8523 47.4212 19.8525 47.6802ZM18.6807 33.4224H31.5713V35.3755H18.6807V33.4224ZM24.1494 36.5474H26.1025V42.4067H24.1494V36.5474ZM31.376 48.6567C31.1828 48.6567 30.994 48.5995 30.8334 48.4922C30.6728 48.3849 30.5477 48.2323 30.4738 48.0539C30.3998 47.8754 30.3805 47.6791 30.4182 47.4897C30.4559 47.3002 30.5489 47.1262 30.6854 46.9896C30.822 46.8531 30.996 46.7601 31.1855 46.7224C31.3749 46.6847 31.5713 46.704 31.7497 46.7779C31.9281 46.8519 32.0807 46.977 32.188 47.1376C32.2953 47.2982 32.3525 47.487 32.3525 47.6802C32.3523 47.9391 32.2494 48.1874 32.0663 48.3705C31.8832 48.5535 31.6349 48.6565 31.376 48.6567Z" fill="#024873"/>
</svg>
