<svg width="51" height="51" viewBox="0 0 51 51" fill="none" xmlns="http://www.w3.org/2000/svg">
<path d="M4.96563 46.9108H1.60341C1.29674 46.9108 1.04785 46.662 1.04785 46.3553V1.75307C1.04785 1.4464 1.29674 1.19751 1.60341 1.19751H4.96563C5.2723 1.19751 5.52118 1.4464 5.52118 1.75307V46.3553C5.52118 46.662 5.2723 46.9108 4.96563 46.9108ZM2.15896 45.7997H4.41007V2.30862H2.15896V45.7997Z" fill="#024873"/>
<path d="M3.28602 49.9752C2.97936 49.9752 2.73047 49.7263 2.73047 49.4197V46.3552C2.73047 46.0486 2.97936 45.7997 3.28602 45.7997C3.59269 45.7997 3.84158 46.0486 3.84158 46.3552V49.4197C3.84158 49.7263 3.59269 49.9752 3.28602 49.9752Z" fill="#024873"/>
<path d="M4.96563 49.9741H1.60341C1.29674 49.9741 1.04785 49.7253 1.04785 49.4186C1.04785 49.1119 1.29674 48.863 1.60341 48.863H4.96563C5.2723 48.863 5.52118 49.1119 5.52118 49.4186C5.52118 49.7253 5.2723 49.9741 4.96563 49.9741Z" fill="#024873"/>
<path d="M49.3816 46.9108H46.0194C45.7128 46.9108 45.4639 46.662 45.4639 46.3553V1.75307C45.4639 1.4464 45.7128 1.19751 46.0194 1.19751H49.3816C49.6883 1.19751 49.9372 1.4464 49.9372 1.75307V46.3553C49.9372 46.662 49.6883 46.9108 49.3816 46.9108ZM46.575 45.7997H48.8261V2.30862H46.575V45.7997Z" fill="#024873"/>
<path d="M47.7001 49.9752C47.3934 49.9752 47.1445 49.7263 47.1445 49.4197V46.3552C47.1445 46.0486 47.3934 45.7997 47.7001 45.7997C48.0068 45.7997 48.2556 46.0486 48.2556 46.3552V49.4197C48.2556 49.7263 48.0068 49.9752 47.7001 49.9752Z" fill="#024873"/>
<path d="M49.3816 49.9741H46.0194C45.7128 49.9741 45.4639 49.7253 45.4639 49.4186C45.4639 49.1119 45.7128 48.863 46.0194 48.863H49.3816C49.6883 48.863 49.9372 49.1119 49.9372 49.4186C49.9372 49.7253 49.6883 49.9741 49.3816 49.9741Z" fill="#024873"/>
<path d="M46.019 5.59085H4.96571C4.65905 5.59085 4.41016 5.34196 4.41016 5.03529C4.41016 4.72863 4.65905 4.47974 4.96571 4.47974H46.019C46.3257 4.47974 46.5746 4.72863 46.5746 5.03529C46.5746 5.34196 46.3257 5.59085 46.019 5.59085Z" fill="#024873"/>
<path d="M46.019 33.8297H4.96571C4.65905 33.8297 4.41016 33.5809 4.41016 33.2742C4.41016 32.9675 4.65905 32.7186 4.96571 32.7186H46.019C46.3257 32.7186 46.5746 32.9675 46.5746 33.2742C46.5746 33.5809 46.3257 33.8297 46.019 33.8297Z" fill="#024873"/>
<path d="M46.019 43.7598H4.96571C4.65905 43.7598 4.41016 43.5109 4.41016 43.2042C4.41016 42.8976 4.65905 42.6487 4.96571 42.6487H46.019C46.3257 42.6487 46.5746 42.8976 46.5746 43.2042C46.5746 43.5109 46.3257 43.7598 46.019 43.7598Z" fill="#024873"/>
<path d="M27.3912 30.4619H12.7145C12.4078 30.4619 12.159 30.213 12.159 29.9064V15.4675L10.6856 16.473C10.5634 16.5564 10.4145 16.5875 10.269 16.5597C10.1234 16.5319 9.99562 16.4486 9.9134 16.3264L7.19229 12.3375C7.10895 12.2153 7.07784 12.0664 7.10562 11.9208C7.1334 11.7764 7.21673 11.6475 7.33895 11.5653L11.709 8.58415C12.2545 8.21193 12.8923 8.01526 13.5523 8.01526H15.6456C15.9523 8.01526 16.2012 8.26415 16.2012 8.57081C16.2012 10.5908 17.7778 12.2786 19.7912 12.413C19.869 12.4186 19.9501 12.4219 20.0534 12.4219C20.1567 12.4219 20.2378 12.4197 20.3078 12.4141C22.3278 12.2786 23.9056 10.5908 23.9056 8.57081C23.9056 8.26415 24.1545 8.01526 24.4612 8.01526H26.5545C27.2145 8.01526 27.8523 8.21193 28.3978 8.58415L32.7678 11.5653C33.0212 11.7375 33.0867 12.0841 32.9145 12.3375L30.1934 16.3275C30.0201 16.5808 29.6745 16.6464 29.4212 16.473L27.949 15.4675V29.9053C27.9467 30.213 27.6978 30.4619 27.3912 30.4619ZM13.2701 29.3508H26.8356V15.0475C26.8356 14.7164 27.0167 14.4164 27.309 14.2619C27.6012 14.1075 27.9523 14.1275 28.2256 14.3141L29.5867 15.243L31.6812 12.1708L27.7701 9.50304C27.4101 9.25748 26.989 9.12748 26.5534 9.12748H24.9845C24.7201 11.4775 22.7956 13.3619 20.3878 13.523C20.2945 13.5308 20.1856 13.5341 20.0523 13.5341C19.9201 13.5341 19.8112 13.5308 19.7101 13.523C17.309 13.363 15.3856 11.4786 15.1201 9.12859H13.5512C13.1156 9.12859 12.6945 9.25859 12.3345 9.50415L8.4234 12.1719L10.5178 15.2441L11.8801 14.3141C12.1534 14.1275 12.5045 14.1075 12.7967 14.2619C13.089 14.4164 13.2701 14.7175 13.2701 15.0475V29.3508Z" fill="#024873"/>
<path d="M29.7334 16.5708C29.4268 16.5708 29.1768 16.3219 29.1768 16.0153C29.1768 15.8897 29.219 15.773 29.289 15.6808L30.3779 14.0842C30.5501 13.8308 30.8968 13.7653 31.1501 13.9386C31.4034 14.1119 31.469 14.4575 31.2956 14.7108L30.1923 16.3286C30.089 16.4797 29.9168 16.5708 29.7334 16.5708Z" fill="#024873"/>
<path d="M31.459 14.0386C31.3512 14.0386 31.2423 14.0075 31.1468 13.942C30.8934 13.7686 30.8279 13.4231 31.0012 13.1697L31.9957 11.712C32.169 11.4586 32.5146 11.3931 32.7679 11.5664C33.0212 11.7397 33.0868 12.0853 32.9134 12.3386L31.919 13.7964C31.8112 13.9531 31.6368 14.0386 31.459 14.0386Z" fill="#024873"/>
<path d="M10.3729 16.5708C10.1896 16.5708 10.0162 16.4797 9.91291 16.3286L8.73846 14.6053C8.56513 14.352 8.63068 14.0064 8.88513 13.8331C9.13846 13.6608 9.48402 13.7253 9.65735 13.9797L10.8207 15.6875C10.8885 15.7797 10.9285 15.8931 10.9285 16.0164C10.9285 16.322 10.6796 16.5708 10.3729 16.5708Z" fill="#024873"/>
<path d="M8.66609 14.0686C8.48831 14.0686 8.31387 13.9842 8.2072 13.8264L7.19165 12.3386C7.01831 12.0853 7.08387 11.7397 7.3372 11.5664C7.59054 11.3931 7.93609 11.4586 8.10943 11.712L9.12498 13.1997C9.29831 13.4531 9.23276 13.7986 8.97942 13.972C8.88387 14.0375 8.77498 14.0686 8.66609 14.0686Z" fill="#024873"/>
<path d="M20.0526 9.12642C19.746 9.12642 19.4971 8.87753 19.4971 8.57086V5.03419C19.4971 4.72753 19.746 4.47864 20.0526 4.47864C20.3593 4.47864 20.6082 4.72753 20.6082 5.03419V8.57086C20.6082 8.87864 20.3593 9.12642 20.0526 9.12642Z" fill="#024873"/>
<path d="M24.4608 9.12747H15.6464C15.3397 9.12747 15.0908 8.87858 15.0908 8.57191C15.0908 8.26525 15.3397 8.01636 15.6464 8.01636H24.4608C24.7675 8.01636 25.0164 8.26525 25.0164 8.57191C25.0164 8.87858 24.7675 9.12747 24.4608 9.12747Z" fill="#024873"/>
<path d="M32.8319 30.4608C32.5253 30.4608 32.2764 30.2119 32.2764 29.9052V15.0686C32.2764 14.7341 32.4597 14.4286 32.7564 14.273C33.0519 14.1164 33.4075 14.1364 33.6831 14.3252L35.0275 15.243L37.1219 12.1719L33.2097 9.50302C32.8497 9.25747 32.4297 9.12747 31.9931 9.12747H25.4931C25.1864 9.12747 24.9375 8.87858 24.9375 8.57191C24.9375 8.26525 25.1864 8.01636 25.4931 8.01636H31.9942C32.6542 8.01636 33.2919 8.21302 33.8364 8.58525L38.2075 11.5675C38.4608 11.7408 38.5264 12.0864 38.3531 12.3397L35.6375 16.3208C35.5875 16.3986 35.5175 16.463 35.4319 16.5075C35.2497 16.6041 35.0297 16.5919 34.8597 16.4752L33.3864 15.4697V29.9064C33.3875 30.213 33.1386 30.4608 32.8319 30.4608Z" fill="#024873"/>
<path d="M35.1729 16.5697C35.0651 16.5697 34.9562 16.5386 34.8606 16.4731C34.6073 16.2997 34.5418 15.9542 34.7151 15.7008L37.4362 11.712C37.6084 11.4586 37.9551 11.3931 38.2084 11.5664C38.4618 11.7397 38.5273 12.0853 38.354 12.3386L35.6329 16.3275C35.5251 16.4853 35.3506 16.5697 35.1729 16.5697Z" fill="#024873"/>
<path d="M25.4931 9.12642C25.1864 9.12642 24.9375 8.87753 24.9375 8.57086V5.03419C24.9375 4.72753 25.1864 4.47864 25.4931 4.47864C25.7997 4.47864 26.0486 4.72753 26.0486 5.03419V8.57086C26.0486 8.87864 25.7997 9.12642 25.4931 9.12642Z" fill="#024873"/>
<path d="M38.2715 30.4608H27.3915C27.0848 30.4608 26.8359 30.2119 26.8359 29.9052C26.8359 29.5986 27.0848 29.3497 27.3915 29.3497H37.7159V15.0686C37.7159 14.7341 37.8993 14.4286 38.1959 14.273C38.4915 14.1175 38.8471 14.1364 39.1226 14.3252L40.467 15.243L42.5615 12.1719L38.6493 9.50302C38.2893 9.25747 37.8693 9.12747 37.4326 9.12747H31.9926C31.6859 9.12747 31.437 8.87858 31.437 8.57191C31.437 8.26525 31.6859 8.01636 31.9926 8.01636H37.4326C38.0926 8.01636 38.7304 8.21302 39.2748 8.58525L43.6459 11.5675C43.8993 11.7408 43.9648 12.0864 43.7915 12.3397L41.0759 16.3208C41.0248 16.3986 40.9559 16.463 40.8704 16.5075C40.6882 16.6041 40.4682 16.5919 40.2982 16.4752L38.8259 15.4686V29.9052C38.827 30.213 38.5782 30.4608 38.2715 30.4608Z" fill="#024873"/>
<path d="M40.6123 16.5697C40.5045 16.5697 40.3956 16.5386 40.3001 16.4731C40.0468 16.2997 39.9812 15.9542 40.1545 15.7008L42.8757 11.712C43.0479 11.4586 43.3945 11.3931 43.6479 11.5664C43.9012 11.7397 43.9668 12.0853 43.7934 12.3386L41.0723 16.3275C40.9634 16.4853 40.789 16.5697 40.6123 16.5697Z" fill="#024873"/>
<path d="M30.9325 9.12642C30.6258 9.12642 30.377 8.87753 30.377 8.57086V5.03419C30.377 4.72753 30.6258 4.47864 30.9325 4.47864C31.2392 4.47864 31.4881 4.72753 31.4881 5.03419V8.57086C31.4881 8.87864 31.2392 9.12642 30.9325 9.12642Z" fill="#024873"/>
<path d="M23.2117 43.7597H12.5839C11.6594 43.7597 10.9072 43.0075 10.9072 42.083C10.9072 41.1586 11.6594 40.4064 12.5839 40.4064H23.2117C24.1361 40.4064 24.8883 41.1586 24.8883 42.083C24.8883 43.0075 24.1361 43.7597 23.2117 43.7597ZM12.5839 41.5164C12.2717 41.5164 12.0183 41.7697 12.0183 42.0819C12.0183 42.3941 12.2728 42.6475 12.5839 42.6475H23.2117C23.5239 42.6475 23.7772 42.3941 23.7772 42.0819C23.7772 41.7697 23.5228 41.5164 23.2117 41.5164H12.5839Z" fill="#024873"/>
<path d="M23.2117 41.5163H12.5839C11.6594 41.5163 10.9072 40.7641 10.9072 39.8396C10.9072 38.9152 11.6594 38.163 12.5839 38.163H23.2117C24.1361 38.163 24.8883 38.9152 24.8883 39.8396C24.8883 40.7641 24.1361 41.5163 23.2117 41.5163ZM12.5839 39.2741C12.2717 39.2741 12.0183 39.5285 12.0183 39.8396C12.0183 40.1507 12.2728 40.4052 12.5839 40.4052H23.2117C23.5239 40.4052 23.7772 40.1519 23.7772 39.8396C23.7772 39.5274 23.5228 39.2741 23.2117 39.2741H12.5839Z" fill="#024873"/>
<path d="M23.2117 39.2741H12.5839C11.6594 39.2741 10.9072 38.5219 10.9072 37.5975C10.9072 36.673 11.6594 35.9197 12.5839 35.9197H23.2117C24.1361 35.9197 24.8883 36.6719 24.8883 37.5963C24.8883 38.5208 24.1361 39.2741 23.2117 39.2741ZM12.5839 37.0308C12.2717 37.0308 12.0183 37.2841 12.0183 37.5963C12.0183 37.9086 12.2728 38.1619 12.5839 38.1619H23.2117C23.5239 38.1619 23.7772 37.9086 23.7772 37.5963C23.7772 37.2841 23.5228 37.0308 23.2117 37.0308H12.5839Z" fill="#024873"/>
<path d="M38.8067 43.7598H29.7567C29.4501 43.7598 29.2012 43.5109 29.2012 43.2042V38.642C29.2012 38.3353 29.4501 38.0864 29.7567 38.0864H38.8067C39.1134 38.0864 39.3623 38.3353 39.3623 38.642V43.2042C39.3623 43.5109 39.1134 43.7598 38.8067 43.7598ZM30.3123 42.6486H38.2512V39.1975H30.3123V42.6486Z" fill="#024873"/>
<path d="M39.5222 39.1975H29.0399C28.7333 39.1975 28.4844 38.9486 28.4844 38.6419V36.7542C28.4844 36.4475 28.7333 36.1986 29.0399 36.1986H39.5222C39.8288 36.1986 40.0777 36.4475 40.0777 36.7542V38.6419C40.0777 38.9486 39.8299 39.1975 39.5222 39.1975ZM29.5955 38.0864H38.9666V37.3097H29.5955V38.0864Z" fill="#024873"/>
<path d="M35.664 41.4787H32.8974C32.5907 41.4787 32.3418 41.2298 32.3418 40.9231C32.3418 40.6164 32.5907 40.3676 32.8974 40.3676H35.664C35.9707 40.3676 36.2196 40.6164 36.2196 40.9231C36.2196 41.2298 35.9718 41.4787 35.664 41.4787Z" fill="#024873"/>
</svg>
