<svg width="23" height="22" viewBox="0 0 23 22" fill="none" xmlns="http://www.w3.org/2000/svg">
<g clip-path="url(#clip0_49_36)">
<path d="M11.06 -0.00012207C6.59439 -0.00012207 2.96094 3.63333 2.96094 8.09939C2.96094 9.26431 3.19937 10.3766 3.66926 11.4055C5.69425 15.8366 9.57672 20.515 10.7187 21.8432C10.8042 21.9425 10.929 21.9997 11.0602 21.9997C11.1915 21.9997 11.3162 21.9425 11.4018 21.8432C12.5433 20.5152 16.4258 15.8371 18.4514 11.4055C18.9215 10.3766 19.1597 9.26431 19.1597 8.09939C19.1593 3.63333 15.5258 -0.00012207 11.06 -0.00012207ZM11.06 12.3063C8.74029 12.3063 6.85287 10.4189 6.85287 8.09917C6.85287 5.77923 8.74029 3.89181 11.06 3.89181C13.3797 3.89181 15.2671 5.77923 15.2671 8.09917C15.2674 10.4189 13.3799 12.3063 11.06 12.3063Z" fill="#BE8D55"/>
</g>
<defs>
<clipPath id="clip0_49_36">
<rect width="22" height="22" fill="white" transform="translate(0.0605469 -0.00012207)"/>
</clipPath>
</defs>
</svg>
