<svg width="32" height="43" viewBox="0 0 32 43" fill="none" xmlns="http://www.w3.org/2000/svg">
<path d="M15.9843 0.193359C7.45906 0.193359 0.522461 7.12996 0.522461 15.6561C0.522461 17.88 0.977651 20.0034 1.87471 21.9677C5.7406 30.4272 13.1526 39.3586 15.3327 41.8942C15.496 42.0837 15.7342 42.1929 15.9847 42.1929C16.2353 42.1929 16.4735 42.0837 16.6368 41.8942C18.816 39.3591 26.228 30.428 30.0952 21.9677C30.9927 20.0034 31.4475 17.88 31.4475 15.6561C31.4466 7.12996 24.51 0.193359 15.9843 0.193359ZM15.9843 23.6874C11.5558 23.6874 7.95251 20.0842 7.95251 15.6556C7.95251 11.2267 11.5558 7.6234 15.9843 7.6234C20.4129 7.6234 24.0161 11.2267 24.0161 15.6556C24.0166 20.0842 20.4133 23.6874 15.9843 23.6874Z" fill="#024873"/>
</svg>
