<svg width="7" height="13" viewBox="0 0 7 13" fill="none" xmlns="http://www.w3.org/2000/svg">
<path d="M1.36414 13.0001C1.29286 13.0005 1.22219 12.9868 1.15619 12.9599C1.0902 12.9329 1.03017 12.8932 0.97956 12.843C0.92879 12.7926 0.888494 12.7327 0.860994 12.6667C0.833494 12.6007 0.819336 12.5299 0.819336 12.4584C0.819336 12.3869 0.833494 12.3161 0.860994 12.2501C0.888494 12.1841 0.92879 12.1242 0.97956 12.0738L5.40498 7.64841C5.70929 7.34373 5.88021 6.93071 5.88021 6.50008C5.88021 6.06945 5.70929 5.65644 5.40498 5.35175L0.97956 0.92633C0.877562 0.824332 0.82026 0.685993 0.82026 0.541747C0.82026 0.3975 0.877562 0.259161 0.97956 0.157163C1.08156 0.0551656 1.2199 -0.00213623 1.36414 -0.00213623C1.50839 -0.00213623 1.64673 0.0551656 1.74873 0.157163L6.17414 4.58258C6.42636 4.83416 6.62647 5.13303 6.763 5.46206C6.89954 5.7911 6.96982 6.14384 6.96982 6.50008C6.96982 6.85632 6.89954 7.20906 6.763 7.5381C6.62647 7.86713 6.42636 8.166 6.17414 8.41758L1.74873 12.843C1.69811 12.8932 1.63809 12.9329 1.57209 12.9599C1.5061 12.9868 1.43543 13.0005 1.36414 13.0001Z" fill="white"/>
</svg>
