<svg width="23" height="23" viewBox="0 0 23 23" fill="none" xmlns="http://www.w3.org/2000/svg">
<path d="M16.6564 13.4928L19.0783 14.9375C19.322 15.0834 19.5146 15.3013 19.6295 15.5611C19.7444 15.821 19.776 16.11 19.7199 16.3885C19.6111 16.9459 19.389 17.4749 19.0675 17.943C18.7459 18.411 18.3317 18.8081 17.8505 19.1096C17.3693 19.4111 16.8314 19.6107 16.27 19.6959C15.7085 19.7812 15.1356 19.7502 14.5866 19.6051C11.9107 18.8714 9.47173 17.4539 7.50964 15.492C5.54755 13.5301 4.12984 11.0913 3.39592 8.41538C3.25065 7.8665 3.21957 7.29365 3.30463 6.73228C3.38969 6.17091 3.58907 5.63297 3.89042 5.15177C4.19177 4.67057 4.58869 4.25634 5.0566 3.93473C5.5245 3.61312 6.05345 3.39097 6.61068 3.28204H6.62534C6.90519 3.22584 7.1956 3.25813 7.45627 3.37442C7.71695 3.49071 7.93497 3.68525 8.08009 3.93104L9.51376 6.34463C9.75858 6.75941 9.83488 7.25233 9.72691 7.72172C9.61895 8.19111 9.33495 8.60116 8.93351 8.86729L7.41459 9.88021C8.48976 12.4561 10.5347 14.506 13.108 15.5874L14.1301 14.0611C14.3983 13.6609 14.8098 13.3788 15.2799 13.273C15.7499 13.1673 16.2427 13.246 16.6564 13.4928ZM16.771 9.66663C16.7698 8.75532 16.4072 7.88168 15.7628 7.23729C15.1185 6.59289 14.2448 6.23034 13.3335 6.22913C13.1512 6.22913 12.9763 6.30156 12.8474 6.43049C12.7184 6.55942 12.646 6.73429 12.646 6.91663C12.646 7.09896 12.7184 7.27383 12.8474 7.40276C12.9763 7.53169 13.1512 7.60413 13.3335 7.60413C13.8803 7.60485 14.4045 7.82239 14.7911 8.20902C15.1777 8.59566 15.3953 9.11984 15.396 9.66663C15.396 9.84896 15.4684 10.0238 15.5974 10.1528C15.7263 10.2817 15.9012 10.3541 16.0835 10.3541C16.2658 10.3541 16.4407 10.2817 16.5696 10.1528C16.6986 10.0238 16.771 9.84896 16.771 9.66663ZM18.8335 10.3541C18.6512 10.3541 18.4763 10.2817 18.3474 10.1528C18.2184 10.0238 18.146 9.84896 18.146 9.66663C18.1446 8.39072 17.6371 7.16749 16.7349 6.26528C15.8326 5.36308 14.6094 4.85558 13.3335 4.85413C13.1512 4.85413 12.9763 4.78169 12.8474 4.65276C12.7184 4.52383 12.646 4.34896 12.646 4.16663C12.646 3.98429 12.7184 3.80942 12.8474 3.68049C12.9763 3.55156 13.1512 3.47913 13.3335 3.47913C14.9739 3.48107 16.5466 4.13359 17.7066 5.29355C18.8665 6.45351 19.5191 8.0262 19.521 9.66663C19.521 9.84896 19.4486 10.0238 19.3196 10.1528C19.1907 10.2817 19.0158 10.3541 18.8335 10.3541Z" fill="white"/>
</svg>
