<svg width="7" height="13" viewBox="0 0 7 13" fill="none" xmlns="http://www.w3.org/2000/svg">
<path d="M6.42101 0.000408173C6.4923 -3.8147e-06 6.56297 0.0136595 6.62896 0.0406151C6.69496 0.0675707 6.75498 0.107289 6.8056 0.157492C6.85637 0.207847 6.89666 0.267756 6.92416 0.333762C6.95166 0.399769 6.96582 0.470569 6.96582 0.542074C6.96582 0.613581 6.95166 0.68438 6.92416 0.750387C6.89666 0.816394 6.85637 0.876303 6.8056 0.926658L2.38018 5.35207C2.07587 5.65676 1.90494 6.06978 1.90494 6.50041C1.90494 6.93103 2.07587 7.34405 2.38018 7.64874L6.8056 12.0742C6.90759 12.1762 6.9649 12.3145 6.9649 12.4587C6.9649 12.603 6.90759 12.7413 6.8056 12.8433C6.7036 12.9453 6.56526 13.0026 6.42101 13.0026C6.27677 13.0026 6.13843 12.9453 6.03643 12.8433L1.61101 8.41791C1.3588 8.16633 1.15869 7.86746 1.02215 7.53842C0.885618 7.20939 0.815338 6.85665 0.815338 6.50041C0.815338 6.14417 0.885618 5.79143 1.02215 5.46239C1.15869 5.13336 1.3588 4.83449 1.61101 4.58291L6.03643 0.157492C6.08704 0.107289 6.14707 0.0675707 6.21306 0.0406151C6.27906 0.0136595 6.34973 -3.8147e-06 6.42101 0.000408173Z" fill="white"/>
</svg>
