<svg width="14" height="14" viewBox="0 0 14 14" fill="none" xmlns="http://www.w3.org/2000/svg">
<g clip-path="url(#clip0_49_41)">
<path d="M9.34777 0.0513725C9.41906 0.0509605 9.48972 0.0646238 9.55572 0.0915794C9.62172 0.118535 9.68174 0.158254 9.73235 0.208456C9.78312 0.258811 9.82342 0.31872 9.85092 0.384727C9.87842 0.450733 9.89258 0.521533 9.89258 0.593039C9.89258 0.664545 9.87842 0.735344 9.85092 0.801352C9.82342 0.867358 9.78312 0.927267 9.73235 0.977622L5.30694 5.40304C5.00263 5.70773 4.8317 6.12075 4.8317 6.55137C4.8317 6.982 5.00263 7.39502 5.30694 7.69971L9.73235 12.1251C9.83435 12.2271 9.89165 12.3655 9.89165 12.5097C9.89165 12.654 9.83435 12.7923 9.73235 12.8943C9.63036 12.9963 9.49202 13.0536 9.34777 13.0536C9.20352 13.0536 9.06519 12.9963 8.96319 12.8943L4.53777 8.46887C4.28555 8.21729 4.08545 7.91842 3.94891 7.58939C3.81238 7.26035 3.7421 6.90761 3.7421 6.55137C3.7421 6.19513 3.81238 5.84239 3.94891 5.51336C4.08545 5.18432 4.28555 4.88545 4.53777 4.63387L8.96319 0.208456C9.0138 0.158254 9.07383 0.118535 9.13982 0.0915794C9.20582 0.0646238 9.27648 0.0509605 9.34777 0.0513725Z" fill="black"/>
</g>
<defs>
<clipPath id="clip0_49_41">
<rect width="13" height="13" fill="white" transform="matrix(-1 0 0 -1 13.1396 13.0511)"/>
</clipPath>
</defs>
</svg>
