<svg width="14" height="14" viewBox="0 0 14 14" fill="none" xmlns="http://www.w3.org/2000/svg">
<g clip-path="url(#clip0_49_44)">
<path d="M4.6991 13.0509C4.62782 13.0513 4.55715 13.0377 4.49116 13.0107C4.42516 12.9838 4.36513 12.944 4.31452 12.8938C4.26375 12.8435 4.22345 12.7836 4.19595 12.7176C4.16846 12.6516 4.1543 12.5808 4.1543 12.5093C4.1543 12.4377 4.16846 12.367 4.19595 12.3009C4.22345 12.2349 4.26375 12.175 4.31452 12.1247L8.73994 7.69926C9.04425 7.39457 9.21517 6.98155 9.21517 6.55092C9.21517 6.1203 9.04425 5.70728 8.73994 5.40259L4.31452 0.977172C4.21252 0.875175 4.15522 0.736836 4.15522 0.592589C4.15522 0.448342 4.21252 0.310004 4.31452 0.208006C4.41652 0.106008 4.55486 0.0487061 4.6991 0.0487061C4.84335 0.0487061 4.98169 0.106008 5.08369 0.208006L9.5091 4.63342C9.76132 4.885 9.96143 5.18387 10.098 5.51291C10.2345 5.84194 10.3048 6.19468 10.3048 6.55092C10.3048 6.90716 10.2345 7.2599 10.098 7.58894C9.96143 7.91797 9.76132 8.21684 9.5091 8.46842L5.08369 12.8938C5.03307 12.944 4.97305 12.9838 4.90705 13.0107C4.84106 13.0377 4.77039 13.0513 4.6991 13.0509Z" fill="black"/>
</g>
<defs>
<clipPath id="clip0_49_44">
<rect x="0.907227" y="0.0511475" width="13" height="13" rx="6.5" fill="white"/>
</clipPath>
</defs>
</svg>
