<svg width="193" height="31" viewBox="0 0 193 31" fill="none" xmlns="http://www.w3.org/2000/svg">
<g opacity="0.9">
<path d="M0.178583 8.30437C0.157629 8.65381 0.49718 9.05383 0.943872 9.18927C1.26808 9.28668 1.809 9.20182 4.79958 8.5791C7.87108 7.93897 8.21937 7.82374 8.51846 7.36675C8.95994 6.69705 8.37461 6.10533 7.25392 6.08215C6.82697 6.07312 5.60405 6.30541 2.91794 6.89912C0.555984 7.42738 0.22541 7.59639 0.178583 8.30437Z" fill="#333333"/>
<path d="M10.7738 6.51578C10.7641 6.69685 10.8445 6.9452 10.9605 7.0868C11.3624 7.57 11.725 7.58607 14.3611 7.23783C15.7083 7.06052 17.1442 6.88209 17.5422 6.84286C18.6252 6.7373 19.1819 6.52642 19.4461 6.12897C19.7501 5.66286 19.5742 5.24495 18.9666 4.98996C18.3594 4.73921 17.3478 4.7941 13.9968 5.25908C11.2929 5.63616 10.8221 5.8205 10.7738 6.51578Z" fill="#333333"/>
<path d="M23.4474 5.87585C23.4947 6.03783 23.7042 6.27635 23.9075 6.40412C24.2694 6.63026 24.3765 6.6357 27.4867 6.56562C31.1457 6.48269 31.7154 6.39039 32.091 5.82217C32.2791 5.54018 32.2921 5.38875 32.1612 5.11163C31.861 4.47589 31.3803 4.40844 27.774 4.48563C25.832 4.52654 24.498 4.60812 24.2472 4.69554C23.7116 4.88268 23.3247 5.45642 23.4474 5.87585Z" fill="#333333"/>
<path d="M35.6467 6.4148C35.87 6.88753 36.3216 7.01387 37.7098 6.99493C38.3185 6.98838 39.8049 7.00157 41.0147 7.02786C42.2303 7.05351 43.3926 7.02499 43.6048 6.96322C44.8781 6.59685 44.8502 5.42132 43.5628 5.17209C43.1216 5.08747 38.6835 5.02417 37.128 5.08282C36.3386 5.11342 35.9896 5.27588 35.6703 5.76507C35.5342 5.98138 35.5249 6.16668 35.6467 6.4148Z" fill="#333333"/>
<path d="M47.37 6.8256C47.4753 6.97695 47.6755 7.13077 47.8286 7.17831C48.0672 7.25079 53.4407 8.18468 54.3903 8.32085C55.3156 8.4511 56.1925 7.7595 55.8932 7.13222C55.7171 6.76577 55.5086 6.69856 53.879 6.51246C53.154 6.42887 51.6279 6.21431 50.4603 6.0334C48.065 5.66103 47.7537 5.6822 47.3933 6.22733C47.2317 6.48072 47.229 6.61816 47.37 6.8256Z" fill="#333333"/>
</g>
<g opacity="0.9">
<path d="M192.071 17.8153C192.057 17.4656 191.679 17.1017 191.221 17.0118C190.888 16.9474 190.359 17.0861 187.446 18.006C184.454 18.9513 184.119 19.1009 183.867 19.5856C183.495 20.2963 184.137 20.8262 185.254 20.7368C185.68 20.7029 186.874 20.349 189.486 19.4886C191.783 18.7258 192.095 18.5245 192.071 17.8153Z" fill="#333333"/>
<path d="M181.709 20.659C181.7 20.4778 181.595 20.2388 181.465 20.1096C181.017 19.6692 180.655 19.6896 178.067 20.3007C176.744 20.6124 175.334 20.9341 174.942 21.0131C173.875 21.2269 173.342 21.4926 173.119 21.9146C172.863 22.4089 173.08 22.807 173.71 22.9997C174.34 23.1882 175.341 23.032 178.628 22.2329C181.28 21.5863 181.73 21.3556 181.709 20.659Z" fill="#333333"/>
<path d="M169.163 22.5683C169.1 22.4119 168.868 22.1956 168.653 22.0889C168.27 21.9002 168.163 21.9056 165.075 22.2876C161.443 22.7375 160.886 22.8865 160.569 23.4896C160.41 23.7891 160.412 23.941 160.57 24.2036C160.933 24.806 161.418 24.8248 164.998 24.3859C166.926 24.1502 168.245 23.9351 168.486 23.8229C169 23.583 169.328 22.9733 169.163 22.5683Z" fill="#333333"/>
<path d="M156.972 23.2568C156.702 22.8089 156.24 22.7286 154.861 22.8868C154.256 22.9544 152.775 23.0906 151.569 23.1859C150.357 23.2824 149.204 23.4275 148.999 23.5103C147.769 24.0026 147.914 25.1694 149.22 25.2881C149.668 25.328 154.09 24.9454 155.631 24.7308C156.414 24.6211 156.745 24.4244 157.013 23.9056C157.127 23.6768 157.118 23.4915 156.972 23.2568Z" fill="#333333"/>
<path d="M145.266 24.0251C145.146 23.885 144.932 23.7521 144.775 23.7202C144.53 23.672 139.09 23.2824 138.131 23.2423C137.198 23.2056 136.395 23.9818 136.755 24.5758C136.967 24.9227 137.182 24.9687 138.822 24.9902C139.551 25.0006 141.091 25.0608 142.271 25.1236C144.692 25.2535 144.999 25.2012 145.303 24.6226C145.438 24.3543 145.427 24.2173 145.266 24.0251Z" fill="#333333"/>
</g>
<g opacity="0.9">
<path d="M133.127 24.2891C133.106 23.8872 132.628 23.4808 132.119 23.4311C131.908 23.4094 131.059 23.3737 130.203 23.35C129.359 23.3234 127.975 23.2562 127.14 23.2008C126.306 23.1454 125.531 23.1317 125.431 23.1751C124.368 23.624 124.68 24.7483 125.929 24.9576C126.55 25.064 132.135 25.1328 132.46 25.0398C132.896 24.9174 133.144 24.6345 133.127 24.2891Z" fill="#333333"/>
<path d="M122.471 23.9273C122.571 23.592 122.332 23.1248 121.929 22.8905C121.635 22.7214 121.089 22.68 118.036 22.6007C114.899 22.5197 114.534 22.552 114.138 22.9283C113.555 23.4789 113.989 24.1891 115.074 24.4685C115.488 24.5752 116.731 24.6294 119.482 24.6672C121.902 24.6944 122.263 24.6057 122.471 23.9273Z" fill="#333333"/>
<path d="M111.747 23.2397C111.798 23.0657 111.777 22.8056 111.696 22.6411C111.416 22.0787 111.067 21.9799 108.421 21.7146C107.069 21.5784 105.631 21.4229 105.234 21.3699C104.156 21.2244 103.566 21.3021 103.217 21.6284C102.815 22.0124 102.89 22.4595 103.423 22.847C103.957 23.2302 104.954 23.4087 108.322 23.7242C111.04 23.9769 111.541 23.9054 111.747 23.2397Z" fill="#333333"/>
<path d="M99.2646 20.9575C99.2557 20.789 99.1065 20.5088 98.9379 20.3378C98.6374 20.0347 98.5344 20.0049 95.491 19.3602C91.9105 18.6022 91.3348 18.5615 90.8389 19.0284C90.5912 19.2598 90.5438 19.4042 90.6076 19.704C90.7542 20.3916 91.2066 20.5674 94.7346 21.319C96.6342 21.7243 97.9515 21.9507 98.2156 21.923C98.7799 21.8637 99.288 21.3939 99.2646 20.9575Z" fill="#333333"/>
<path d="M87.5141 17.6365C87.4051 17.1252 86.9945 16.8987 85.6389 16.5989C85.045 16.4658 83.6012 16.1122 82.4296 15.8093C81.2522 15.5057 80.1143 15.267 79.8936 15.2785C78.5702 15.3433 78.328 16.4939 79.524 17.0316C79.934 17.2151 84.2394 18.294 85.7669 18.5935C86.5423 18.7446 86.9193 18.6665 87.3422 18.2635C87.5242 18.0842 87.5758 17.9059 87.5141 17.6365Z" fill="#333333"/>
<path d="M76.1965 14.5492C76.1287 14.3777 75.969 14.1821 75.8309 14.1007C75.6152 13.9755 70.5989 11.8347 69.7058 11.4845C68.835 11.1456 67.8229 11.6178 67.9705 12.297C68.0579 12.6941 68.2454 12.8073 69.7889 13.362C70.4755 13.6095 71.9118 14.1682 73.0068 14.6119C75.253 15.5234 75.5608 15.5742 76.0366 15.1262C76.252 14.9166 76.2862 14.7834 76.1965 14.5492Z" fill="#333333"/>
</g>
<path d="M65.4617 10.7265C65.3847 10.559 65.2147 10.3723 65.0724 10.2985C64.8503 10.1851 59.7255 8.31891 58.8147 8.01753C57.9268 7.72624 56.9418 8.25249 57.1259 8.92269C57.2347 9.31446 57.4281 9.41735 58.9993 9.88772C59.6982 10.0978 61.1627 10.5779 62.2801 10.9617C64.5723 11.7504 64.8824 11.7844 65.3333 11.3113C65.537 11.0904 65.5639 10.9556 65.4617 10.7265Z" fill="#333333"/>
</svg>
