<svg width="56" height="56" viewBox="0 0 56 56" fill="none" xmlns="http://www.w3.org/2000/svg">
<g clip-path="url(#clip0_108_649)">
<path d="M45.5 35.875H40.6236C40.2404 35.875 39.8746 35.9546 39.5378 36.1113C37.6049 37.0029 33.5361 38.5 28 38.5C22.4648 38.5 18.396 37.0037 16.4658 36.1121C16.1263 35.9555 15.7596 35.875 15.3764 35.875H10.5C9.05275 35.875 7.875 37.0527 7.875 38.5V46.5728C7.875 49.3579 10.1421 51.625 12.9281 51.625H20.7156C21.3237 51.625 21.8619 51.2374 22.0544 50.6599C22.9093 48.097 25.298 46.375 28 46.375C30.702 46.375 33.0907 48.097 33.9456 50.6599C34.1381 51.2374 34.6763 51.625 35.2844 51.625H43.0719C45.8579 51.625 48.125 49.3579 48.125 46.5728V38.5C48.125 37.0527 46.9473 35.875 45.5 35.875ZM46.375 46.5728C46.375 48.3936 44.8936 49.875 43.0719 49.875H35.525C34.3674 46.7241 31.374 44.625 28 44.625C24.626 44.625 21.6326 46.7241 20.475 49.875H12.9281C11.1064 49.875 9.625 48.3936 9.625 46.5728V38.5C9.625 38.017 10.0179 37.625 10.5 37.625H15.3764C15.5033 37.625 15.6214 37.6495 15.7308 37.7011C17.7931 38.6531 22.1305 40.25 28 40.25C33.8704 40.25 38.2078 38.6522 40.2728 37.6994C40.3786 37.6495 40.4959 37.625 40.6227 37.625H45.5C45.9821 37.625 46.375 38.017 46.375 38.5V46.5728Z" fill="#BE8D55"/>
<path d="M52.5 34.125H49.7779C48.6727 33.0444 47.1634 32.375 45.5 32.375H40.6236C39.732 32.375 38.8736 32.5631 38.0704 32.9333C36.3983 33.7059 32.8676 35 28 35C23.1324 35 19.6017 33.7059 17.9296 32.9333C17.1264 32.5631 16.268 32.375 15.3764 32.375H10.5C8.83575 32.375 7.32638 33.0444 6.22213 34.125H3.5C2.05275 34.125 0.875 35.3027 0.875 36.75V42C0.875 43.4473 2.05275 44.625 3.5 44.625H4.375V46.5728C4.375 51.2881 8.21187 55.125 12.9281 55.125H20.7156C22.8322 55.125 24.7056 53.7757 25.375 51.7667C25.7521 50.6354 26.8074 49.875 28 49.875C29.1926 49.875 30.2479 50.6354 30.625 51.7667C31.2944 53.7757 33.1669 55.125 35.2844 55.125H43.0719C47.7881 55.125 51.625 51.2881 51.625 46.5728V44.625H52.5C53.9473 44.625 55.125 43.4473 55.125 42V36.75C55.125 35.3027 53.9473 34.125 52.5 34.125ZM3.5 42.875C3.01787 42.875 2.625 42.483 2.625 42V36.75C2.625 36.267 3.01787 35.875 3.5 35.875H4.97437C4.59462 36.6721 4.375 37.5602 4.375 38.5V42.875H3.5ZM49.875 46.5728C49.875 50.3239 46.823 53.375 43.0719 53.375H35.2844C33.9211 53.375 32.7162 52.5061 32.2857 51.2129C31.6697 49.3657 29.9478 48.125 28 48.125C26.0522 48.125 24.3302 49.3657 23.7151 51.2129C23.2838 52.5061 22.0789 53.375 20.7156 53.375H12.9281C9.177 53.375 6.125 50.3239 6.125 46.5728V38.5C6.125 36.0876 8.08763 34.125 10.5 34.125H15.3764C16.0125 34.125 16.625 34.258 17.1964 34.5222C18.998 35.3535 22.7973 36.75 28 36.75C33.2028 36.75 37.002 35.3535 38.8036 34.5222C39.375 34.258 39.9875 34.125 40.6236 34.125H45.5C47.9124 34.125 49.875 36.0876 49.875 38.5V46.5728ZM53.375 42C53.375 42.483 52.9821 42.875 52.5 42.875H51.625V38.5C51.625 37.5602 51.4054 36.6721 51.0256 35.875H52.5C52.9821 35.875 53.375 36.267 53.375 36.75V42Z" fill="#024873"/>
<path d="M28 31.5C46.4861 31.5 52.8097 26.2623 53.0696 26.0391L53.375 25.7775V21.1916L49.7315 20.2808C48.5012 9.37737 39.2271 0.875 28 0.875C16.7729 0.875 7.49875 9.37737 6.2685 20.2808L2.625 21.1916V25.7775L2.93037 26.0391C3.19025 26.2623 9.51387 31.5 28 31.5ZM7.875 26.6919V23.3249C11.7469 24.7537 18.1475 26.25 28 26.25C37.8525 26.25 44.2531 24.7537 48.125 23.3249V26.7067C44.5585 28.1146 38.2174 29.75 28 29.75C17.8176 29.75 11.4564 28.1032 7.875 26.6919ZM11.2079 16.0405C11.3558 17.3714 12.4775 18.375 13.8162 18.375H15.9337C17.2725 18.375 18.3942 17.3714 18.5421 16.0396L19.8398 4.36012C20.9414 3.86925 22.0946 3.47462 23.2899 3.18675L24.4177 13.3193C24.5184 14.2065 25.2656 14.875 26.1581 14.875H29.8419C30.7344 14.875 31.4825 14.2065 31.5814 13.3193L32.7092 3.18762C33.9045 3.4755 35.0578 3.87013 36.1594 4.361L37.457 16.0414C37.6057 17.3714 38.7275 18.375 40.0662 18.375H42.1838C43.5225 18.375 44.6443 17.3714 44.7921 16.0396L45.2051 12.32C46.8484 15.0203 47.8695 18.1379 48.0795 21.4708C44.4342 22.904 38.1089 24.5 28 24.5C17.8911 24.5 11.5657 22.904 7.91962 21.4708C8.12962 18.137 9.15075 15.0203 10.794 12.32L11.2079 16.0405ZM51.625 22.5584V24.9366C51.31 25.1545 50.7395 25.5124 49.875 25.9376V22.75C49.875 22.5374 49.8654 22.3274 49.8592 22.1165L51.625 22.5584ZM43.6852 10.1614L43.0535 15.8463C43.0036 16.2899 42.63 16.625 42.1838 16.625H40.0662C39.62 16.625 39.2455 16.2899 39.1965 15.8463L38.0257 5.31125C40.201 6.56687 42.1199 8.21537 43.6852 10.1614ZM30.9864 2.84813L29.8419 13.125H28.875V11.375H27.125V13.125H26.1581L25.0136 2.84813C25.9884 2.702 26.985 2.625 28 2.625C29.015 2.625 30.0116 2.702 30.9864 2.84813ZM17.9742 5.31125L16.8035 15.8463C16.7536 16.2899 16.38 16.625 15.9337 16.625H13.8162C13.37 16.625 12.9955 16.2899 12.9465 15.8463L12.3148 10.1614C13.8801 8.21537 15.799 6.56687 17.9742 5.31125ZM4.375 22.5584L6.14075 22.1165C6.13463 22.3274 6.125 22.5374 6.125 22.75V25.9254C5.26137 25.5028 4.69088 25.1484 4.375 24.9331V22.5584Z" fill="#024873"/>
<path d="M27.125 4.375H28.875V6.125H27.125V4.375Z" fill="#BE8D55"/>
<path d="M27.125 7.875H28.875V9.625H27.125V7.875Z" fill="#BE8D55"/>
</g>
<defs>
<clipPath id="clip0_108_649">
<rect width="56" height="56" fill="white"/>
</clipPath>
</defs>
</svg>
