<svg width="68" height="68" viewBox="0 0 68 68" fill="none" xmlns="http://www.w3.org/2000/svg">
<path d="M50.5404 23.7632C50.6611 23.7654 50.781 23.7437 50.8933 23.6994C51.0056 23.6552 51.1081 23.5893 51.1949 23.5055C51.3703 23.3362 51.4712 23.1041 51.4754 22.8604C51.4797 22.6167 51.387 22.3813 51.2177 22.2059C51.0484 22.0306 50.8163 21.9297 50.5726 21.9254C46.0637 21.875 41.5646 21.4942 37.1114 20.7859C37.0322 20.7694 36.9512 20.7639 36.8706 20.7694C35.7544 20.8284 34.6715 21.1699 33.7233 21.7618C33.5667 21.8756 33.4501 22.0359 33.39 22.2198C33.3299 22.4038 33.3293 22.602 33.3885 22.7863C33.4477 22.9705 33.5635 23.1314 33.7195 23.2459C33.8755 23.3605 34.0637 23.4228 34.2572 23.4242C34.4736 23.4241 34.6835 23.3498 34.8517 23.2137C35.4712 22.8587 36.165 22.6532 36.878 22.6137C41.3908 23.3227 45.9487 23.7069 50.5166 23.7632H50.5404Z" fill="#024873"/>
<path d="M16.9261 45.6243C17.7101 45.6253 18.4743 45.3776 19.1085 44.9168L19.3061 44.7798C19.3318 44.7624 19.375 44.7275 19.4155 44.688L30.2321 36.8983C30.333 36.8294 30.4193 36.741 30.4857 36.6383C30.552 36.5356 30.5973 36.4207 30.6187 36.3004C30.6402 36.18 30.6373 36.0566 30.6105 35.9373C30.5836 35.818 30.5332 35.7053 30.4622 35.6058C30.3912 35.5062 30.3011 35.4218 30.197 35.3576C30.093 35.2933 29.9772 35.2504 29.8564 35.2315C29.7357 35.2125 29.6123 35.2179 29.4936 35.2472C29.3749 35.2765 29.2633 35.3293 29.1652 35.4023L28.4301 35.9261L18.3082 43.225C18.2779 43.2467 18.249 43.2704 18.2218 43.2958L18.0463 43.418C17.6477 43.7037 17.1547 43.8255 16.6689 43.7583C16.1831 43.6911 15.7417 43.44 15.4356 43.0569C15.2479 42.8199 15.1199 42.5412 15.0625 42.2444C15.0051 41.9476 15.0199 41.6413 15.1057 41.3514C15.2089 40.9862 15.4223 40.6617 15.7168 40.4223L30.1843 28.6354C35.7244 31.5759 39.6491 30.0634 41.5228 28.866C41.8325 28.6645 42.0839 28.3853 42.252 28.0563C42.4201 27.7273 42.499 27.36 42.4809 26.9909C42.4627 26.6219 42.3482 26.2641 42.1486 25.9532C41.9491 25.6422 41.6715 25.389 41.3436 25.2188L33.0623 20.8209C32.5337 20.5444 31.9557 20.3752 31.3614 20.3231C30.7671 20.2711 30.1684 20.3372 29.5998 20.5176L24.7011 22.1074C23.2589 22.5817 21.6946 22.5253 20.2903 21.9484L18.1565 21.0745C18.0449 21.0287 17.9252 21.0053 17.8045 21.0058C17.6838 21.0062 17.5644 21.0304 17.453 21.077C17.3417 21.1236 17.2406 21.1917 17.1555 21.2773C17.0705 21.363 17.0031 21.4645 16.9574 21.5762C16.9116 21.6879 16.8882 21.8075 16.8886 21.9282C16.8891 22.0489 16.9133 22.1684 16.9599 22.2797C17.0065 22.3911 17.0745 22.4922 17.1602 22.5772C17.2458 22.6623 17.3474 22.7296 17.4591 22.7754L19.591 23.6484C21.3993 24.3928 23.4143 24.4658 25.2717 23.8542L30.1659 22.2654C30.5011 22.1601 30.8538 22.1221 31.2038 22.1537C31.5537 22.1852 31.894 22.2856 32.205 22.4492L40.4881 26.8481C40.5342 26.8698 40.5734 26.9039 40.6013 26.9465C40.6292 26.9892 40.6447 27.0388 40.6462 27.0897C40.65 27.1358 40.641 27.1821 40.6203 27.2234C40.5995 27.2648 40.5678 27.2996 40.5285 27.3241C38.5988 28.5573 35.2861 29.4615 30.5436 26.7369C30.3823 26.6442 30.1967 26.6027 30.0112 26.6178C29.8258 26.6329 29.6494 26.7039 29.5052 26.8214L14.5636 38.9971C13.9776 39.4698 13.5515 40.1115 13.3432 40.8349C13.1782 41.4043 13.1505 42.0048 13.2623 42.587C13.3741 43.1692 13.6223 43.7166 13.9865 44.1844C14.3335 44.6335 14.779 44.9969 15.2887 45.2466C15.7983 45.4963 16.3586 45.6255 16.9261 45.6243Z" fill="#024873"/>
<path d="M20.7288 49.8835C21.5075 49.8843 22.2672 49.6424 22.902 49.1915L32.8356 42.1434C33.0297 42.0006 33.1599 41.7873 33.1983 41.5494C33.2366 41.3115 33.18 41.0681 33.0405 40.8715C32.9011 40.675 32.6901 40.5411 32.4529 40.4986C32.2157 40.4562 31.9713 40.5086 31.7724 40.6446L21.8389 47.6918C21.4221 47.964 20.9163 48.0647 20.427 47.9727C19.9378 47.8807 19.5031 47.6033 19.2136 47.1983C18.9242 46.7933 18.8024 46.2921 18.8738 45.7995C18.9452 45.3068 19.2042 44.8608 19.5967 44.5546L29.4971 37.4192C29.6796 37.2716 29.7987 37.0598 29.8299 36.8271C29.8612 36.5945 29.8022 36.3588 29.6652 36.1682C29.5281 35.9777 29.3233 35.8468 29.0929 35.8025C28.8624 35.7581 28.6237 35.8036 28.4257 35.9297L18.5225 43.066C17.8779 43.5327 17.3976 44.1915 17.1505 44.948C16.9034 45.7045 16.9022 46.5198 17.1471 47.2771C17.392 48.0343 17.8704 48.6945 18.5137 49.1631C19.1569 49.6316 19.9321 49.8844 20.7279 49.8853L20.7288 49.8835Z" fill="#024873"/>
<path d="M25.0178 53.5656C25.7574 53.5653 26.4793 53.3386 27.0862 52.9159L35.9878 46.75C36.1883 46.6112 36.3254 46.3984 36.369 46.1585C36.4126 45.9187 36.3591 45.6713 36.2203 45.4708C36.0815 45.2704 35.8688 45.1333 35.6289 45.0897C35.389 45.0461 35.1416 45.0995 34.9412 45.2383L26.0396 51.4043C25.8441 51.5395 25.6239 51.6349 25.3916 51.685C25.1592 51.735 24.9193 51.7389 24.6855 51.6962C24.4517 51.6535 24.2285 51.5652 24.0289 51.4363C23.8292 51.3074 23.6569 51.1404 23.5218 50.9448C23.2528 50.5528 23.1484 50.0709 23.2309 49.6027C23.3133 49.1345 23.5761 48.7173 23.9628 48.4408L32.8212 42.1572C32.9219 42.0883 33.0079 42.0001 33.0742 41.8977C33.1404 41.7952 33.1856 41.6806 33.2071 41.5605C33.2286 41.4404 33.2259 41.3172 33.1993 41.1981C33.1727 41.0791 33.1226 40.9665 33.052 40.867C32.9814 40.7675 32.8917 40.683 32.7882 40.6185C32.6846 40.5541 32.5692 40.5109 32.4487 40.4914C32.3283 40.472 32.2052 40.4768 32.0866 40.5055C31.968 40.5341 31.8563 40.5861 31.758 40.6584L22.8996 46.942C22.1199 47.4993 21.5899 48.3401 21.4234 49.2839C21.2569 50.2278 21.4672 51.1992 22.0092 51.9896C22.28 52.3847 22.6265 52.7221 23.0285 52.9823C23.4306 53.2426 23.8803 53.4205 24.3515 53.5059C24.5713 53.546 24.7943 53.566 25.0178 53.5656Z" fill="#024873"/>
<path d="M30.2684 56.587C30.9113 56.5839 31.5422 56.4121 32.098 56.089L37.039 53.2403C37.2483 53.1176 37.4006 52.917 37.4626 52.6824C37.5247 52.4479 37.4914 52.1982 37.37 51.9881C37.2487 51.778 37.0492 51.6243 36.815 51.5608C36.5808 51.4972 36.331 51.5288 36.1201 51.6487L31.18 54.4974C30.7623 54.7331 30.2691 54.7963 29.8055 54.6733C29.342 54.5504 28.9448 54.2511 28.6989 53.8394C28.4652 53.4448 28.3909 52.9758 28.4912 52.5283C28.5914 52.0807 28.8586 51.6883 29.2383 51.431L35.5513 47.0578C35.6504 46.9891 35.7351 46.9015 35.8005 46.8001C35.8658 46.6986 35.9105 46.5853 35.9321 46.4665C35.9536 46.3478 35.9516 46.226 35.926 46.108C35.9005 45.9901 35.852 45.8783 35.7833 45.7791C35.7146 45.68 35.627 45.5953 35.5255 45.5299C35.4241 45.4646 35.3107 45.4199 35.192 45.3983C35.0733 45.3768 34.9514 45.3788 34.8335 45.4043C34.7156 45.4299 34.6038 45.4784 34.5046 45.5471L28.1925 49.9193C27.5518 50.3629 27.0694 50.9995 26.8156 51.7364C26.5618 52.4733 26.55 53.2719 26.7817 54.016C27.0135 54.7601 27.4768 55.4108 28.1041 55.8732C28.7314 56.3357 29.489 56.5857 30.2684 56.587Z" fill="#024873"/>
<path d="M40.6734 56.0385C41.4251 56.0396 42.1594 55.8114 42.778 55.3842C43.3966 54.9571 43.8702 54.3513 44.1354 53.6479C44.4007 52.9445 44.445 52.1769 44.2625 51.4476C44.08 50.7183 43.6793 50.0621 43.114 49.5665L40.6596 47.4163C40.2948 47.0961 39.8706 46.8508 39.4111 46.6946C38.9516 46.5383 38.4658 46.4741 37.9815 46.5056C37.4971 46.5371 37.0237 46.6636 36.5883 46.8781C36.1529 47.0925 35.764 47.3906 35.4438 47.7554C35.1236 48.1202 34.8785 48.5444 34.7223 49.004C34.5661 49.4635 34.502 49.9493 34.5336 50.4337C34.5651 50.918 34.6918 51.3914 34.9063 51.8268C35.1208 52.2621 35.419 52.651 35.7838 52.9711L38.2382 55.126C38.9119 55.7163 39.7777 56.0407 40.6734 56.0385ZM38.2226 48.3352C38.6733 48.334 39.1088 48.4974 39.4475 48.7947L41.9029 50.9477C42.0863 51.1086 42.2362 51.3041 42.3441 51.5229C42.452 51.7418 42.5157 51.9798 42.5316 52.2233C42.5475 52.4667 42.5153 52.711 42.4369 52.942C42.3584 53.1731 42.2352 53.3864 42.0743 53.5698C41.7493 53.9403 41.2904 54.1664 40.7987 54.1986C40.5552 54.2145 40.311 54.1823 40.0799 54.1038C39.8489 54.0253 39.6355 53.9021 39.4521 53.7412L36.9977 51.5863C36.7146 51.3371 36.514 51.0076 36.4228 50.6416C36.3315 50.2756 36.3539 49.8905 36.4869 49.5376C36.6199 49.1846 36.8572 48.8805 37.1672 48.6657C37.4773 48.4509 37.8454 48.3356 38.2226 48.3352Z" fill="#024873"/>
<path d="M46.2367 53.5352C46.3185 53.5352 46.4003 53.5352 46.4821 53.5279C46.9667 53.4975 47.4405 53.3715 47.8761 53.157C48.3118 52.9425 48.7006 52.6438 49.0201 52.2781C49.3447 51.9133 49.594 51.488 49.7538 51.0266C49.9136 50.5651 49.9807 50.0767 49.9513 49.5892C49.9218 49.1018 49.7964 48.625 49.5822 48.1862C49.368 47.7473 49.0692 47.3551 48.7031 47.032L44.6029 43.4326C44.2381 43.1124 43.8139 42.8672 43.3544 42.7109C42.8949 42.5547 42.4091 42.4905 41.9248 42.5219C41.4404 42.5534 40.967 42.68 40.5316 42.8944C40.0962 43.1089 39.7073 43.407 39.3871 43.7717L40.0515 44.4085L39.3614 43.802C39.041 44.1667 38.7957 44.5909 38.6394 45.0505C38.4831 45.51 38.4188 45.9958 38.4503 46.4802C38.4818 46.9645 38.6084 47.438 38.8229 47.8734C39.0374 48.3088 39.3356 48.6977 39.7004 49.0178L43.8043 52.6172C44.4758 53.2101 45.341 53.5366 46.2367 53.5352ZM42.1705 44.3516C42.6206 44.3503 43.0556 44.5137 43.3936 44.811L47.4938 48.4104C47.7683 48.6583 47.9639 48.9814 48.0562 49.3395C48.1484 49.6977 48.1334 50.075 48.0128 50.4247C47.8922 50.7743 47.6715 51.0808 47.3781 51.3059C47.0847 51.5311 46.7315 51.665 46.3626 51.691C46.1189 51.7077 45.8744 51.6756 45.6432 51.5968C45.4121 51.5179 45.199 51.3937 45.0164 51.2315L40.9162 47.6321C40.7327 47.4711 40.5828 47.2756 40.4749 47.0567C40.367 46.8378 40.3033 46.5997 40.2874 46.3562C40.2715 46.1127 40.3038 45.8684 40.3824 45.6373C40.4609 45.4062 40.5842 45.1929 40.7453 45.0095L40.7719 44.9792C40.9323 44.7964 41.1272 44.6472 41.3455 44.5402C41.5637 44.4331 41.801 44.3702 42.0437 44.3552C42.0869 44.3534 42.1301 44.3525 42.1714 44.3525L42.1705 44.3516Z" fill="#024873"/>
<path d="M50.8735 50.1619C50.9544 50.1619 51.0361 50.1619 51.1188 50.1545C51.6035 50.1242 52.0773 49.9981 52.5129 49.7836C52.9486 49.5691 53.3374 49.2704 53.6569 48.9048L53.7571 48.7853C54.403 48.0486 54.7299 47.0855 54.6659 46.1078C54.602 45.1301 54.1525 44.2178 53.4161 43.5714L48.6626 39.3986C48.2979 39.0783 47.8737 38.8329 47.4141 38.6766C46.9546 38.5203 46.4688 38.456 45.9844 38.4875C45.5001 38.519 45.0267 38.6456 44.5912 38.8601C44.1558 39.0746 43.7669 39.3728 43.4468 39.7377L43.3429 39.8562C42.6968 40.5929 42.3698 41.556 42.4337 42.5338C42.4976 43.5116 42.9473 44.4239 43.6839 45.0702L48.4374 49.243C49.1098 49.8368 49.9764 50.1637 50.8735 50.1619ZM46.2302 40.3184C46.6803 40.3173 47.1153 40.4807 47.4533 40.7779L52.2068 44.9507C52.5776 45.276 52.804 45.7352 52.8362 46.2273C52.8685 46.7195 52.7039 47.2043 52.3787 47.5751L52.2748 47.6937C51.9494 48.0634 51.4905 48.2889 50.999 48.3206C50.5074 48.3523 50.0234 48.1876 49.6532 47.8627L44.8996 43.6899C44.7161 43.529 44.5662 43.3335 44.4583 43.1145C44.3504 42.8956 44.2867 42.6576 44.2708 42.414C44.255 42.1705 44.2872 41.9262 44.3658 41.6952C44.4443 41.4641 44.5677 41.2508 44.7287 41.0673L44.8307 40.9506C44.9912 40.7671 45.1864 40.6172 45.4052 40.5097C45.624 40.4021 45.8619 40.339 46.1052 40.3239C46.1484 40.3203 46.1888 40.3184 46.2302 40.3184Z" fill="#024873"/>
<path d="M54.8675 46.0717C54.9483 46.0717 55.031 46.0717 55.1128 46.0634C55.8469 46.0172 56.5507 45.7544 57.1354 45.3082C57.7201 44.862 58.1594 44.2525 58.3978 43.5567C58.6362 42.8609 58.663 42.11 58.4747 41.399C58.2865 40.688 57.8917 40.0488 57.3403 39.5621L54.3639 36.9496C53.9992 36.6293 53.575 36.384 53.1155 36.2276C52.6559 36.0713 52.1701 36.0071 51.6858 36.0385C51.2014 36.07 50.728 36.1966 50.2926 36.4112C49.8571 36.6257 49.4683 36.9238 49.1481 37.2887L49.116 37.3255C48.7956 37.6901 48.5503 38.1144 48.394 38.5739C48.2377 39.0334 48.1734 39.5192 48.2049 40.0036C48.2364 40.488 48.363 40.9614 48.5775 41.3968C48.792 41.8322 49.0902 42.2211 49.455 42.5412L52.4314 45.1537C53.1039 45.7473 53.9705 46.0739 54.8675 46.0717ZM51.9269 37.8685C52.377 37.8674 52.812 38.0308 53.15 38.328L56.1264 40.9405C56.3099 41.1014 56.4598 41.297 56.5677 41.5159C56.6756 41.7348 56.7393 41.9728 56.7551 42.2164C56.771 42.4599 56.7388 42.7042 56.6602 42.9353C56.5816 43.1663 56.4583 43.3797 56.2973 43.5631C56.1376 43.7523 55.9419 43.9079 55.7215 44.0208C55.5012 44.1338 55.2606 44.202 55.0138 44.2213C54.7669 44.2406 54.5187 44.2107 54.2835 44.1334C54.0482 44.056 53.8307 43.9328 53.6435 43.7707L50.6671 41.1583C50.4836 40.9973 50.3337 40.8018 50.2258 40.5829C50.1179 40.3639 50.0542 40.1259 50.0383 39.8824C50.0225 39.6388 50.0547 39.3945 50.1333 39.1635C50.2118 38.9324 50.3352 38.7191 50.4962 38.5357L50.5283 38.4989C50.6888 38.3151 50.8842 38.165 51.1032 38.0573C51.3221 37.9495 51.5602 37.8863 51.8038 37.8713C51.8488 37.8704 51.8902 37.8685 51.9315 37.8685H51.9269Z" fill="#024873"/>
<path d="M56.5349 40.9947C56.7338 40.9951 56.9274 40.9306 57.0863 40.8109L60.2262 38.4217C60.3223 38.3487 60.403 38.2574 60.4638 38.1531C60.5246 38.0489 60.5642 37.9336 60.5805 37.8141C60.5967 37.6945 60.5893 37.5728 60.5585 37.4561C60.5278 37.3394 60.4744 37.2299 60.4013 37.1339C60.2537 36.9399 60.0351 36.8124 59.7936 36.7796C59.674 36.7634 59.5524 36.7708 59.4357 36.8016C59.319 36.8323 59.2095 36.8857 59.1134 36.9588L55.9735 39.348C55.8188 39.464 55.7047 39.6258 55.6473 39.8105C55.5899 39.9951 55.5922 40.1931 55.6539 40.3764C55.7156 40.5596 55.8335 40.7187 55.9909 40.831C56.1482 40.9434 56.337 41.0032 56.5303 41.0021L56.5349 40.9947Z" fill="#024873"/>
<path d="M14.2258 42.013C14.4075 42.013 14.5851 41.959 14.7362 41.8581C14.8873 41.7571 15.0051 41.6136 15.0746 41.4457C15.1441 41.2778 15.1623 41.0931 15.1269 40.9149C15.0914 40.7366 15.004 40.5729 14.8755 40.4444L9.71943 35.2865C9.54612 35.1191 9.314 35.0265 9.07306 35.0286C8.83212 35.0307 8.60164 35.1273 8.43127 35.2977C8.26089 35.4681 8.16425 35.6986 8.16216 35.9395C8.16007 36.1804 8.25269 36.4126 8.42008 36.5859L13.5761 41.7419C13.6613 41.8276 13.7625 41.8956 13.874 41.9421C13.9855 41.9887 14.105 42.0127 14.2258 42.013Z" fill="#024873"/>
<path d="M7.19528 40.1062C7.35243 40.1064 7.507 40.0663 7.64423 39.9897C7.78146 39.9131 7.89676 39.8026 7.97911 39.6688L19.1991 21.4191C19.3177 21.226 19.3607 20.996 19.32 20.7731C19.2793 20.5503 19.1577 20.3503 18.9786 20.2116L7.86608 11.605C7.7441 11.5105 7.6003 11.4483 7.44793 11.424C7.29556 11.3998 7.13953 11.4143 6.99424 11.4662C6.84895 11.5181 6.71907 11.6057 6.61657 11.7211C6.51407 11.8364 6.44226 11.9757 6.40776 12.126L0.942951 35.9692C0.897604 36.1633 0.916548 36.3668 0.996933 36.5491C1.07732 36.7314 1.21479 36.8827 1.38863 36.98L6.74684 39.9913C6.88398 40.0675 7.03841 40.1071 7.19528 40.1062ZM17.2014 21.1581L6.87641 37.9513L2.88738 35.7092L7.87711 13.9381L17.2014 21.1581Z" fill="#BE8D55"/>
<path d="M60.8047 40.4324C60.9621 40.4323 61.1168 40.3918 61.254 40.3148L66.6122 37.3081C66.7861 37.2107 66.9235 37.0595 67.0039 36.8771C67.0843 36.6948 67.1033 36.4913 67.0579 36.2973L61.5922 12.4568C61.5577 12.3065 61.4859 12.1672 61.3834 12.0519C61.2809 11.9365 61.151 11.8489 61.0057 11.797C60.8604 11.7451 60.7044 11.7306 60.552 11.7548C60.3997 11.7791 60.2558 11.8413 60.1339 11.9358L49.0205 20.5415C48.8413 20.6802 48.7197 20.8801 48.679 21.103C48.6383 21.3259 48.6814 21.5559 48.7999 21.749L60.0208 39.9987C60.1036 40.1319 60.2191 40.2416 60.3563 40.3175C60.4935 40.3935 60.6479 40.433 60.8047 40.4324ZM65.1126 36.0418L61.1235 38.2831L50.7986 21.4889L60.1228 14.269L65.1126 36.0418Z" fill="#BE8D55"/>
</svg>
