<svg width="192" height="30" viewBox="0 0 192 30" fill="none" xmlns="http://www.w3.org/2000/svg">
<g opacity="0.9">
<path d="M0.177899 7.54751C0.157153 7.89506 0.496148 8.29309 0.941926 8.42802C1.26547 8.52505 1.80518 8.44089 4.78893 7.82289C7.85343 7.1876 8.20091 7.07315 8.49913 6.61875C8.93933 5.95283 8.35501 5.36402 7.23676 5.34045C6.81073 5.33127 5.59059 5.56175 2.91063 6.15105C0.55407 6.67539 0.224296 6.84334 0.177899 7.54751Z" fill="#333333"/>
<path d="M10.751 5.77006C10.7414 5.95019 10.8217 6.19729 10.9376 6.33821C11.3388 6.8191 11.7007 6.83525 14.3309 6.49003C15.6751 6.31425 17.1078 6.1374 17.505 6.09855C18.5855 5.99404 19.141 5.78451 19.4044 5.38923C19.7075 4.92567 19.5319 4.50984 18.9254 4.25589C18.3194 4.00615 17.31 4.0603 13.9665 4.52133C11.2686 4.89522 10.7988 5.07839 10.751 5.77006Z" fill="#333333"/>
<path d="M23.3983 5.1342C23.4455 5.29533 23.6547 5.53268 23.8576 5.65987C24.2188 5.88497 24.3257 5.89043 27.4291 5.82216C31.08 5.74134 31.6484 5.6498 32.023 5.08477C32.2105 4.80437 32.2235 4.65375 32.0927 4.37805C31.7929 3.74554 31.3132 3.67824 27.7147 3.75336C25.777 3.79316 24.4459 3.87369 24.1958 3.96053C23.6614 4.14643 23.2756 4.71694 23.3983 5.1342Z" fill="#333333"/>
<path d="M35.5714 5.66963C35.7944 6.13994 36.2451 6.2658 37.6303 6.24761C38.2376 6.24137 39.7208 6.25517 40.9279 6.28188C42.1409 6.30795 43.3007 6.28012 43.5124 6.21878C44.7827 5.85495 44.7543 4.68572 43.4696 4.43723C43.0294 4.35285 38.6009 4.28786 37.0489 4.34548C36.2612 4.37555 35.913 4.53697 35.5947 5.0234C35.459 5.23849 35.4498 5.42279 35.5714 5.66963Z" fill="#333333"/>
<path d="M47.2704 6.07727C47.3756 6.22782 47.5754 6.38088 47.7282 6.42823C47.9664 6.50041 53.3283 7.43157 54.2759 7.56741C55.1992 7.69736 56.0738 7.01002 55.7749 6.3861C55.599 6.02161 55.3909 5.95468 53.7649 5.76886C53.0415 5.68541 51.5186 5.47135 50.3536 5.29091C47.9634 4.91951 47.6528 4.94042 47.2934 5.48235C47.1323 5.73425 47.1297 5.87092 47.2704 6.07727Z" fill="#333333"/>
</g>
<g opacity="0.9">
<path d="M191.666 16.9997C191.651 16.6517 191.274 16.2893 190.817 16.1994C190.485 16.1351 189.957 16.2728 187.051 17.1857C184.066 18.1239 183.732 18.2725 183.481 18.7546C183.111 19.4614 183.752 19.9893 184.867 19.9011C185.291 19.8678 186.482 19.5166 189.088 18.6625C191.38 17.9054 191.691 17.7053 191.666 16.9997Z" fill="#333333"/>
<path d="M181.326 19.8254C181.317 19.6452 181.212 19.4072 181.083 19.2785C180.635 18.8398 180.273 18.8598 177.692 19.466C176.372 19.7751 174.965 20.0942 174.573 20.1725C173.509 20.3843 172.978 20.6484 172.755 21.0682C172.501 21.5599 172.718 21.9563 173.347 22.1486C173.975 22.3367 174.973 22.1821 178.253 21.3894C180.899 20.748 181.348 20.5188 181.326 19.8254Z" fill="#333333"/>
<path d="M168.807 21.7224C168.744 21.5667 168.511 21.3513 168.297 21.2449C167.915 21.0569 167.808 21.0621 164.727 21.4397C161.103 21.8845 160.547 22.0324 160.232 22.6322C160.073 22.9301 160.076 23.0813 160.234 23.3427C160.596 23.9424 161.08 23.9615 164.652 23.5277C166.576 23.2947 167.892 23.0817 168.132 22.9703C168.645 22.7319 168.971 22.1255 168.807 21.7224Z" fill="#333333"/>
<path d="M156.641 22.4065C156.372 21.9606 155.911 21.8803 154.535 22.0366C153.931 22.1034 152.454 22.2377 151.25 22.3315C150.041 22.4266 148.89 22.5701 148.686 22.6522C147.459 23.1412 147.605 24.3023 148.908 24.4215C149.355 24.4615 153.767 24.0844 155.305 23.8721C156.086 23.7636 156.416 23.5682 156.683 23.0522C156.797 22.8245 156.787 22.6401 156.641 22.4065Z" fill="#333333"/>
<path d="M144.96 23.1707C144.84 23.0314 144.626 22.8989 144.469 22.867C144.225 22.8189 138.797 22.427 137.84 22.3863C136.909 22.349 136.108 23.1205 136.468 23.7117C136.68 24.057 136.894 24.1029 138.53 24.1256C139.259 24.1365 140.795 24.1977 141.972 24.2611C144.388 24.3923 144.695 24.3405 144.997 23.7652C145.132 23.4984 145.121 23.3621 144.96 23.1707Z" fill="#333333"/>
</g>
<g opacity="0.9">
<path d="M132.846 23.4277C132.825 23.0279 132.348 22.6239 131.84 22.5746C131.63 22.5532 130.783 22.5181 129.929 22.495C129.086 22.469 127.705 22.4028 126.872 22.3481C126.04 22.2934 125.267 22.2802 125.167 22.3235C124.106 22.7705 124.417 23.8888 125.663 24.0964C126.282 24.202 131.855 24.2675 132.18 24.1748C132.615 24.0528 132.862 23.7713 132.846 23.4277Z" fill="#333333"/>
<path d="M122.213 23.0685C122.313 22.7349 122.075 22.2703 121.673 22.0375C121.38 21.8694 120.835 21.8285 117.788 21.7511C114.659 21.6722 114.294 21.7045 113.899 22.079C113.317 22.6271 113.749 23.3333 114.832 23.6107C115.245 23.7166 116.486 23.7699 119.231 23.8061C121.645 23.8319 122.005 23.7434 122.213 23.0685Z" fill="#333333"/>
<path d="M111.512 22.3858C111.563 22.2126 111.542 21.9538 111.461 21.7902C111.182 21.2308 110.833 21.1327 108.193 20.8701C106.844 20.7353 105.409 20.5813 105.013 20.5288C103.938 20.3846 103.349 20.4621 103.001 20.7869C102.599 21.1692 102.674 21.614 103.205 21.9992C103.738 22.3803 104.733 22.5573 108.094 22.8695C110.806 23.1196 111.305 23.0482 111.512 22.3858Z" fill="#333333"/>
<path d="M99.0552 20.1183C99.0464 19.9507 98.8977 19.672 98.7296 19.5021C98.4299 19.2007 98.3271 19.1711 95.2907 18.5313C91.7183 17.7791 91.1439 17.7389 90.6489 18.2037C90.4016 18.434 90.3542 18.5776 90.4178 18.8758C90.5636 19.5597 91.015 19.7344 94.5349 20.4802C96.4302 20.8824 97.7444 21.1069 98.008 21.0793C98.5711 21.02 99.0783 20.5524 99.0552 20.1183Z" fill="#333333"/>
<path d="M87.3289 16.8186C87.2204 16.3101 86.8108 16.085 85.4583 15.7875C84.8657 15.6553 83.4253 15.3044 82.2564 15.0037C81.0818 14.7023 79.9465 14.4654 79.7263 14.477C78.4057 14.5421 78.1634 15.6868 79.3565 16.221C79.7655 16.4033 84.061 17.4743 85.585 17.7714C86.3587 17.9214 86.7349 17.8435 87.157 17.4424C87.3387 17.2639 87.3903 17.0866 87.3289 16.8186Z" fill="#333333"/>
<path d="M76.035 13.7518C75.9675 13.5814 75.8083 13.3869 75.6705 13.3061C75.4554 13.1816 70.4514 11.0552 69.5604 10.7074C68.6917 10.3708 67.6816 10.8409 67.8285 11.5163C67.9156 11.9111 68.1026 12.0236 69.6424 12.5744C70.3273 12.8203 71.7601 13.3751 72.8524 13.8159C75.0932 14.7212 75.4003 14.7715 75.8753 14.3257C76.0903 14.1172 76.1244 13.9848 76.035 13.7518Z" fill="#333333"/>
</g>
<path d="M65.3241 9.95502C65.2473 9.78857 65.0777 9.60309 64.9357 9.52978C64.714 9.41711 59.6 7.56297 58.6911 7.26354C57.8051 6.97414 56.8221 7.49698 57.0058 8.16285C57.1144 8.55207 57.3074 8.6543 58.8753 9.12162C59.5728 9.3303 61.0342 9.80735 62.1492 10.1887C64.4366 10.9723 64.7461 11.006 65.196 10.536C65.3993 10.3165 65.4262 10.1826 65.3241 9.95502Z" fill="#333333"/>
</svg>
