<svg width="54" height="54" viewBox="0 0 54 54" fill="none" xmlns="http://www.w3.org/2000/svg">
<path d="M37.9688 20.25C37.9688 15.1327 33.048 10.9688 27 10.9688C20.952 10.9688 16.0312 15.1327 16.0312 20.25C16.0312 25.3673 20.952 29.5312 27 29.5312C27.4452 29.5298 27.8899 29.5039 28.3323 29.4536L35.0603 32.8219C35.2097 32.8976 35.3783 32.9272 35.5446 32.9068C35.7108 32.8865 35.8673 32.8171 35.994 32.7075C36.1206 32.5979 36.2118 32.4531 36.2559 32.2915C36.3 32.1299 36.295 31.9588 36.2416 31.8001L34.614 26.9241C35.6369 26.1335 36.4694 25.1234 37.05 23.9684C37.6306 22.8133 37.9446 21.5426 37.9688 20.25ZM33.1298 25.9377C32.9842 26.0429 32.8759 26.1919 32.8208 26.363C32.7658 26.534 32.7667 26.7182 32.8236 26.8886L33.993 30.3969L28.863 27.8319C28.7454 27.7754 28.6164 27.7465 28.4858 27.7476C28.4517 27.7473 28.4176 27.7495 28.3837 27.7543C27.9248 27.8124 27.4626 27.8423 27 27.8438C21.8827 27.8438 17.7188 24.4375 17.7188 20.25C17.7188 16.0625 21.8827 12.6562 27 12.6562C32.1173 12.6562 36.2812 16.0625 36.2812 20.25C36.2474 21.3806 35.9438 22.4868 35.3956 23.4762C34.8474 24.4656 34.0705 25.3096 33.1298 25.9377Z" fill="#BE8D55"/>
<path d="M33.75 17.7188H20.25V19.4062H33.75V17.7188Z" fill="#BE8D55"/>
<path d="M33.75 21.0938H20.25V22.7812H33.75V21.0938Z" fill="#BE8D55"/>
<path d="M48.9375 27.578V26.1562C48.9353 25.6346 48.7721 25.1263 48.47 24.701C48.1679 24.2757 47.7418 23.9541 47.25 23.7803V21.0938C47.25 15.7231 45.1165 10.5724 41.3189 6.77484C37.5213 2.97723 32.3706 0.84375 27 0.84375C21.6294 0.84375 16.4787 2.97723 12.6811 6.77484C8.88348 10.5724 6.75 15.7231 6.75 21.0938V23.7803C6.25817 23.9541 5.83208 24.2757 5.53001 24.701C5.22795 25.1263 5.06466 25.6346 5.0625 26.1562V27.578C4.05391 28.0564 3.20155 28.8108 2.60421 29.7539C2.00687 30.6969 1.68902 31.7899 1.6875 32.9062V39.6562C1.68951 41.2221 2.31242 42.7232 3.41962 43.8304C4.52682 44.9376 6.02793 45.5605 7.59375 45.5625H10.9688C11.4904 45.5603 11.9987 45.3971 12.424 45.095C12.8493 44.7929 13.1709 44.3668 13.3448 43.875H14.3438C15.0151 43.875 15.6589 43.6083 16.1336 43.1336C16.6083 42.6589 16.875 42.0151 16.875 41.3438V31.2188C16.8728 30.6971 16.7096 30.1888 16.4075 29.7635C16.1054 29.3382 15.6793 29.0166 15.1875 28.8427V26.1562C15.1853 25.6346 15.0221 25.1263 14.72 24.701C14.4179 24.2757 13.9918 23.9541 13.5 23.7803V21.0938C13.5 17.5133 14.9223 14.0795 17.4541 11.5478C19.9858 9.01607 23.4196 7.59375 27 7.59375C30.5804 7.59375 34.0142 9.01607 36.5459 11.5478C39.0777 14.0795 40.5 17.5133 40.5 21.0938V23.7803C40.0082 23.9541 39.5821 24.2757 39.28 24.701C38.9779 25.1263 38.8147 25.6346 38.8125 26.1562V28.8427C38.3207 29.0166 37.8946 29.3382 37.5925 29.7635C37.2904 30.1888 37.1272 30.6971 37.125 31.2188V41.3438C37.125 42.0151 37.3917 42.6589 37.8664 43.1336C38.3411 43.6083 38.9849 43.875 39.6562 43.875H40.6552C40.8291 44.3668 41.1507 44.7929 41.576 45.095C42.0013 45.3971 42.5096 45.5603 43.0312 45.5625C43.0312 46.4576 42.6757 47.316 42.0427 47.949C41.4098 48.5819 40.5514 48.9375 39.6562 48.9375H31.9427C31.7562 48.2151 31.3356 47.5749 30.7466 47.1169C30.1577 46.659 29.4336 46.409 28.6875 46.4062H25.3125C24.4174 46.4062 23.559 46.7618 22.926 47.3948C22.2931 48.0277 21.9375 48.8861 21.9375 49.7812C21.9375 50.6764 22.2931 51.5348 22.926 52.1677C23.559 52.8007 24.4174 53.1562 25.3125 53.1562H28.6875C29.4336 53.1535 30.1577 52.9035 30.7466 52.4456C31.3356 51.9876 31.7562 51.3474 31.9427 50.625H39.6562C40.9985 50.6237 42.2854 50.0899 43.2345 49.1407C44.1836 48.1916 44.7174 46.9047 44.7188 45.5625H46.4062C47.9721 45.5605 49.4732 44.9376 50.5804 43.8304C51.6876 42.7232 52.3105 41.2221 52.3125 39.6562V32.9062C52.311 31.7899 51.9931 30.6969 51.3958 29.7539C50.7985 28.8108 49.9461 28.0564 48.9375 27.578ZM28.6875 51.4688H25.3125C24.8649 51.4688 24.4357 51.291 24.1193 50.9745C23.8028 50.658 23.625 50.2288 23.625 49.7812C23.625 49.3337 23.8028 48.9045 24.1193 48.588C24.4357 48.2715 24.8649 48.0938 25.3125 48.0938H28.6875C29.1351 48.0938 29.5643 48.2715 29.8807 48.588C30.1972 48.9045 30.375 49.3337 30.375 49.7812C30.375 50.2288 30.1972 50.658 29.8807 50.9745C29.5643 51.291 29.1351 51.4688 28.6875 51.4688ZM6.75 26.1562C6.75 25.9325 6.83889 25.7179 6.99713 25.5596C7.15536 25.4014 7.36997 25.3125 7.59375 25.3125H12.6562C12.88 25.3125 13.0946 25.4014 13.2529 25.5596C13.4111 25.7179 13.5 25.9325 13.5 26.1562V28.6875H13.3448C13.1709 28.1957 12.8493 27.7696 12.424 27.4675C11.9987 27.1654 11.4904 27.0022 10.9688 27H7.59375C7.31125 27.0024 7.02928 27.0249 6.75 27.0675V26.1562ZM11.8125 43.0312C11.8125 43.255 11.7236 43.4696 11.5654 43.6279C11.4071 43.7861 11.1925 43.875 10.9688 43.875H7.59375C6.47528 43.8737 5.403 43.4288 4.61212 42.6379C3.82124 41.847 3.37634 40.7747 3.375 39.6562V32.9062C3.37634 31.7878 3.82124 30.7155 4.61212 29.9246C5.403 29.1337 6.47528 28.6888 7.59375 28.6875H10.9688C11.1925 28.6875 11.4071 28.7764 11.5654 28.9346C11.7236 29.0929 11.8125 29.3075 11.8125 29.5312V43.0312ZM15.1875 41.3438C15.1875 41.5675 15.0986 41.7821 14.9404 41.9404C14.7821 42.0986 14.5675 42.1875 14.3438 42.1875H13.5V30.375H14.3438C14.5675 30.375 14.7821 30.4639 14.9404 30.6221C15.0986 30.7804 15.1875 30.995 15.1875 31.2188V41.3438ZM27 5.90625C22.9735 5.91094 19.1132 7.51255 16.266 10.3597C13.4188 13.2069 11.8172 17.0672 11.8125 21.0938V23.625H8.4375V21.0938C8.4375 16.1707 10.3932 11.4492 13.8743 7.96808C17.3555 4.48694 22.0769 2.53125 27 2.53125C31.9231 2.53125 36.6445 4.48694 40.1257 7.96808C43.6068 11.4492 45.5625 16.1707 45.5625 21.0938V23.625H42.1875V21.0938C42.1828 17.0672 40.5812 13.2069 37.734 10.3597C34.8868 7.51255 31.0265 5.91094 27 5.90625ZM41.3438 25.3125H46.4062C46.63 25.3125 46.8446 25.4014 47.0029 25.5596C47.1611 25.7179 47.25 25.9325 47.25 26.1562V27.0675C46.9707 27.0249 46.6887 27.0024 46.4062 27H43.0312C42.5096 27.0022 42.0013 27.1654 41.576 27.4675C41.1507 27.7696 40.8291 28.1957 40.6552 28.6875H40.5V26.1562C40.5 25.9325 40.5889 25.7179 40.7471 25.5596C40.9054 25.4014 41.12 25.3125 41.3438 25.3125ZM38.8125 41.3438V31.2188C38.8125 30.995 38.9014 30.7804 39.0596 30.6221C39.2179 30.4639 39.4325 30.375 39.6562 30.375H40.5V42.1875H39.6562C39.4325 42.1875 39.2179 42.0986 39.0596 41.9404C38.9014 41.7821 38.8125 41.5675 38.8125 41.3438ZM50.625 39.6562C50.6237 40.7747 50.1788 41.847 49.3879 42.6379C48.597 43.4288 47.5247 43.8737 46.4062 43.875H43.0312C42.8075 43.875 42.5929 43.7861 42.4346 43.6279C42.2764 43.4696 42.1875 43.255 42.1875 43.0312V29.5312C42.1875 29.3075 42.2764 29.0929 42.4346 28.9346C42.5929 28.7764 42.8075 28.6875 43.0312 28.6875H46.4062C47.5247 28.6888 48.597 29.1337 49.3879 29.9246C50.1788 30.7155 50.6237 31.7878 50.625 32.9062V39.6562Z" fill="#024873"/>
</svg>
