<svg width="52" height="52" viewBox="0 0 52 52" fill="none" xmlns="http://www.w3.org/2000/svg">
<g clip-path="url(#clip0_108_633)">
<path d="M52.9043 12.3308C52.7253 11.6653 52.2887 11.0979 51.6913 10.7539C51.0934 10.4082 50.3826 10.3147 49.7158 10.4937C49.0498 10.6731 48.4825 11.1093 48.1385 11.7067L47.7052 12.4607C47.2935 12.2242 46.7676 12.3634 46.5269 12.773L44.3259 16.5246L43.5719 16.0914C43.3722 15.9759 43.1344 15.9445 42.9119 16.0046C42.6889 16.0651 42.4993 16.2115 42.3847 16.4121C42.1498 16.8263 42.2928 17.3526 42.7054 17.5904L43.4594 18.0237L36.0939 30.7875L34.2742 35.649L33.4076 37.269C32.9003 38.1516 32.9545 39.2487 33.5464 40.0768L31.5968 42.4682L31.0509 41.0994C30.8047 40.4893 30.2348 40.0713 29.5794 40.0201C28.9236 39.9685 28.2953 40.2925 27.9572 40.8565L27.6454 41.385L27.3509 37.9189C27.2832 37.099 26.6481 36.4398 25.8315 36.3407C25.0145 36.2422 24.2411 36.7317 23.98 37.5119L21.8484 43.9067C21.6995 44.359 21.9432 44.8464 22.3942 44.9987C22.4788 45.0381 22.5698 45.0618 22.6629 45.0677C23.0352 45.069 23.3669 44.8316 23.4863 44.4788L25.609 38.0839L25.9123 41.6016C25.975 42.3522 26.5144 42.9763 27.2481 43.1464C27.9817 43.3165 28.7408 42.9932 29.1271 42.3471L29.4478 41.8183L29.9851 43.179C30.2132 43.7523 30.729 44.1614 31.3395 44.2524C31.95 44.3434 32.5627 44.1026 32.9486 43.6207L34.9676 41.0647C35.191 41.1231 35.4212 41.1523 35.6522 41.1515C36.5809 41.1586 37.4432 40.6695 37.9137 39.8686L38.7802 38.4216L42.0817 34.4097L49.525 21.4898L50.279 21.923C50.4799 22.0381 50.6263 22.2281 50.686 22.4519C50.7461 22.674 50.7148 22.911 50.5997 23.1103L47.1336 29.1154C47.0029 29.3126 46.9584 29.5546 47.0109 29.7856C47.0634 30.0162 47.2076 30.2155 47.4107 30.3369C47.6104 30.4528 47.8482 30.4841 48.0708 30.424C48.2937 30.3635 48.4833 30.2171 48.598 30.0166L52.064 24.0115C52.4097 23.4136 52.5032 22.7028 52.3238 22.036C52.1444 21.37 51.7082 20.8026 51.1108 20.4587L50.3568 20.0254L52.5231 16.2733C52.7596 15.8616 52.6204 15.3361 52.2113 15.095L52.6445 14.341C52.9995 13.7338 53.0934 13.0086 52.9043 12.3308ZM49.6375 12.5732C49.7522 12.3727 49.9426 12.2259 50.1664 12.1662C50.389 12.1112 50.6242 12.1421 50.8248 12.253C51.0257 12.3676 51.1721 12.558 51.2322 12.7814C51.2872 13.004 51.2563 13.2392 51.1455 13.4398L50.7122 14.1937L49.2043 13.3272L49.6375 12.5732ZM37.827 36.7668L37.3937 36.5155L36.1113 35.77L37.3417 32.4774L40.0711 34.0543L37.827 36.7668ZM35.2274 39.2708C34.8614 39.0156 34.7489 38.5248 34.9676 38.1356L35.4009 37.382L36.9084 38.2485L36.4752 38.9936C36.3537 39.2043 36.1498 39.3541 35.9124 39.407C35.6751 39.4595 35.4267 39.4104 35.2274 39.2708ZM41.0591 32.6335L38.061 30.9005L44.9931 18.8902L47.9912 20.6232L41.0591 32.6335ZM48.8577 19.1242L45.8596 17.3911L47.5927 14.393L50.5908 16.1261L48.8577 19.1242Z" fill="#BE8D55"/>
<path d="M14.6736 38.8375L11.6065 41.8965L9.76934 40.0594C9.43128 39.7235 8.88548 39.7235 8.54742 40.0594C8.38325 40.2223 8.29102 40.4436 8.29102 40.6746C8.29102 40.9056 8.38325 41.1273 8.54742 41.2898L10.3845 43.1269C10.7095 43.4493 11.1487 43.63 11.6065 43.6296C12.0668 43.6321 12.5098 43.4515 12.8369 43.1269L15.8955 40.0594C16.19 39.7154 16.1701 39.2031 15.8502 38.8832C15.5299 38.5629 15.0175 38.543 14.6736 38.8375Z" fill="#024873"/>
<path d="M32.1948 6.9408C32.6734 6.9408 33.0614 6.55324 33.0614 6.07428C33.0614 5.59575 32.6734 5.20776 32.1948 5.20776H9.66535C9.18682 5.20776 8.79883 5.59575 8.79883 6.07428V9.54036C8.79883 10.0193 9.18682 10.4069 9.66535 10.4069H32.1948C32.6734 10.4069 33.0614 10.0193 33.0614 9.54036C33.0614 9.06183 32.6734 8.67384 32.1948 8.67384H10.5319V6.9408H32.1948Z" fill="#024873"/>
<path d="M12.265 12.1399C11.7864 12.1399 11.3984 12.5279 11.3984 13.0064C11.3984 13.4854 11.7864 13.8729 12.265 13.8729H29.5953C30.0739 13.8729 30.4619 13.4854 30.4619 13.0064C30.4619 12.5279 30.0739 12.1399 29.5953 12.1399H12.265Z" fill="#024873"/>
<path d="M34.7942 18.2056H15.7308C15.2522 18.2056 14.8643 18.5936 14.8643 19.0721C14.8643 19.551 15.2522 19.9386 15.7308 19.9386H34.7942C35.2727 19.9386 35.6607 19.551 35.6607 19.0721C35.6607 18.5936 35.2727 18.2056 34.7942 18.2056Z" fill="#024873"/>
<path d="M26.1289 24.2713C26.1289 23.7928 25.7409 23.4048 25.2623 23.4048H7.93195C7.45342 23.4048 7.06543 23.7928 7.06543 24.2713C7.06543 24.7503 7.45342 25.1378 7.93195 25.1378H25.2623C25.7409 25.1378 26.1289 24.7503 26.1289 24.2713Z" fill="#024873"/>
<path d="M34.7945 23.4048H28.7288C28.2503 23.4048 27.8623 23.7928 27.8623 24.2713C27.8623 24.7503 28.2503 25.1378 28.7288 25.1378H34.7945C35.273 25.1378 35.661 24.7503 35.661 24.2713C35.661 23.7928 35.273 23.4048 34.7945 23.4048Z" fill="#024873"/>
<path d="M16.5971 29.4703C17.0757 29.4703 17.4637 29.0828 17.4637 28.6038C17.4637 28.1253 17.0757 27.7373 16.5971 27.7373H7.93195C7.45342 27.7373 7.06543 28.1253 7.06543 28.6038C7.06543 29.0828 7.45342 29.4703 7.93195 29.4703H16.5971Z" fill="#024873"/>
<path d="M20.0638 29.4703H26.1294C26.6079 29.4703 26.9959 29.0828 26.9959 28.6038C26.9959 28.1253 26.6079 27.7373 26.1294 27.7373H20.0638C19.5853 27.7373 19.1973 28.1253 19.1973 28.6038C19.1973 29.0828 19.5853 29.4703 20.0638 29.4703Z" fill="#024873"/>
<path d="M39.9934 39.8684C39.5148 39.8684 39.1268 40.2564 39.1268 40.7349V49.4001C39.1268 49.8791 38.7389 50.2666 38.2603 50.2666H3.59956C3.12103 50.2666 2.73304 49.8791 2.73304 49.4001V2.6081C2.73304 2.12957 3.12103 1.74158 3.59956 1.74158H38.2603C38.7389 1.74158 39.1268 2.12957 39.1268 2.6081V18.8816C39.1268 19.3601 39.5148 19.7481 39.9934 19.7481C40.4719 19.7481 40.8599 19.3601 40.8599 18.8816V2.6081C40.8599 1.17251 39.6959 0.00854492 38.2603 0.00854492H3.59956C2.16396 0.00854492 1 1.17251 1 2.6081V49.4001C1 50.8361 2.16396 51.9997 3.59956 51.9997H38.2603C39.6959 51.9997 40.8599 50.8361 40.8599 49.4001V40.7349C40.8599 40.2564 40.4719 39.8684 39.9934 39.8684Z" fill="#024873"/>
</g>
<defs>
<clipPath id="clip0_108_633">
<rect width="52" height="52" fill="white"/>
</clipPath>
</defs>
</svg>
