<svg width="170" height="30" viewBox="0 0 170 30" fill="none" xmlns="http://www.w3.org/2000/svg">
<g opacity="0.9">
<path d="M0.178583 7.59783C0.157629 7.94726 0.49718 8.34728 0.943872 8.48273C1.26808 8.58013 1.809 8.49527 4.79958 7.87256C7.87108 7.23242 8.21937 7.1172 8.51846 6.66021C8.95994 5.9905 8.37461 5.39879 7.25392 5.37561C6.82697 5.36658 5.60405 5.59887 2.91794 6.19258C0.555984 6.72084 0.22541 6.88985 0.178583 7.59783Z" fill="#333333"/>
<path d="M10.7738 5.80924C10.7641 5.99031 10.8445 6.23866 10.9605 6.38026C11.3624 6.86346 11.725 6.87952 14.3611 6.53129C15.7083 6.35398 17.1442 6.17555 17.5422 6.13631C18.6252 6.03076 19.1819 5.81988 19.4461 5.42242C19.7501 4.95632 19.5742 4.5384 18.9666 4.28342C18.3594 4.03267 17.3478 4.08756 13.9968 4.55254C11.2929 4.92961 10.8221 5.11396 10.7738 5.80924Z" fill="#333333"/>
<path d="M23.4474 5.16931C23.4947 5.33128 23.7042 5.56981 23.9075 5.69758C24.2694 5.92372 24.3765 5.92915 27.4867 5.85908C31.1457 5.77614 31.7154 5.68385 32.091 5.11563C32.2791 4.83363 32.2921 4.68221 32.1612 4.40509C31.861 3.76934 31.3803 3.7019 27.774 3.77909C25.832 3.81999 24.498 3.90158 24.2472 3.98899C23.7116 4.17614 23.3247 4.74987 23.4474 5.16931Z" fill="#333333"/>
<path d="M35.6467 5.70825C35.87 6.18099 36.3216 6.30732 37.7098 6.28839C38.3185 6.28184 39.8049 6.29502 41.0147 6.32132C42.2303 6.34697 43.3926 6.31844 43.6048 6.25668C44.8781 5.8903 44.8502 4.71478 43.5628 4.46555C43.1216 4.38092 38.6835 4.31763 37.128 4.37628C36.3386 4.40688 35.9896 4.56933 35.6703 5.05853C35.5342 5.27484 35.5249 5.46014 35.6467 5.70825Z" fill="#333333"/>
<path d="M47.37 6.11906C47.4753 6.2704 47.6755 6.42422 47.8286 6.47177C48.0672 6.54425 53.4407 7.47814 54.3903 7.6143C55.3156 7.74455 56.1925 7.05296 55.8932 6.42568C55.7171 6.05922 55.5086 5.99202 53.879 5.80591C53.154 5.72233 51.6279 5.50777 50.4603 5.32686C48.065 4.95448 47.7537 4.97566 47.3933 5.52079C47.2317 5.77418 47.229 5.91162 47.37 6.11906Z" fill="#333333"/>
</g>
<g opacity="0.9">
<path d="M169.163 21.8617C169.1 21.7053 168.868 21.4891 168.653 21.3823C168.27 21.1937 168.163 21.199 165.075 21.581C161.443 22.031 160.886 22.18 160.569 22.7831C160.41 23.0825 160.412 23.2345 160.57 23.4971C160.933 24.0994 161.418 24.1183 164.998 23.6794C166.926 23.4437 168.245 23.2286 168.486 23.1164C169 22.8764 169.328 22.2667 169.163 21.8617Z" fill="#333333"/>
<path d="M156.972 22.5503C156.702 22.1024 156.24 22.022 154.861 22.1802C154.256 22.2479 152.775 22.384 151.569 22.4793C150.357 22.5759 149.204 22.721 148.999 22.8037C147.769 23.2961 147.914 24.4629 149.22 24.5816C149.668 24.6215 154.09 24.2388 155.631 24.0243C156.414 23.9146 156.745 23.7179 157.013 23.1991C157.127 22.9702 157.118 22.7849 156.972 22.5503Z" fill="#333333"/>
<path d="M145.266 23.3185C145.146 23.1785 144.932 23.0456 144.775 23.0136C144.53 22.9655 139.09 22.5759 138.131 22.5357C137.198 22.4991 136.395 23.2752 136.755 23.8693C136.967 24.2162 137.182 24.2621 138.822 24.2837C139.551 24.294 141.091 24.3542 142.271 24.417C144.692 24.547 144.999 24.4947 145.303 23.9161C145.438 23.6478 145.427 23.5107 145.266 23.3185Z" fill="#333333"/>
</g>
<g opacity="0.9">
<path d="M133.127 23.5825C133.106 23.1807 132.628 22.7743 132.119 22.7245C131.908 22.7029 131.059 22.6672 130.203 22.6434C129.359 22.6169 127.975 22.5497 127.14 22.4942C126.306 22.4388 125.531 22.4251 125.431 22.4686C124.368 22.9174 124.68 24.0418 125.929 24.2511C126.55 24.3575 132.135 24.4263 132.46 24.3332C132.896 24.2108 133.144 23.928 133.127 23.5825Z" fill="#333333"/>
<path d="M122.471 23.2208C122.571 22.8854 122.332 22.4182 121.929 22.184C121.635 22.0149 121.089 21.9735 118.036 21.8941C114.899 21.8131 114.534 21.8455 114.138 22.2217C113.555 22.7724 113.989 23.4825 115.074 23.762C115.488 23.8686 116.731 23.9229 119.482 23.9607C121.902 23.9879 122.263 23.8992 122.471 23.2208Z" fill="#333333"/>
<path d="M111.747 22.5332C111.798 22.3592 111.777 22.099 111.696 21.9346C111.416 21.3721 111.067 21.2734 108.421 21.0081C107.069 20.8719 105.631 20.7164 105.234 20.6634C104.156 20.5179 103.566 20.5955 103.217 20.9218C102.815 21.3058 102.89 21.7529 103.423 22.1404C103.957 22.5237 104.954 22.7021 108.322 23.0177C111.04 23.2704 111.541 23.1989 111.747 22.5332Z" fill="#333333"/>
<path d="M99.2646 20.2509C99.2557 20.0824 99.1065 19.8023 98.9379 19.6313C98.6374 19.3282 98.5344 19.2984 95.491 18.6536C91.9105 17.8957 91.3348 17.8549 90.8389 18.3219C90.5912 18.5533 90.5438 18.6977 90.6076 18.9974C90.7542 19.6851 91.2066 19.8609 94.7346 20.6124C96.6342 21.0177 97.9515 21.2441 98.2156 21.2165C98.7799 21.1571 99.288 20.6874 99.2646 20.2509Z" fill="#333333"/>
<path d="M87.5141 16.93C87.4051 16.4187 86.9945 16.1922 85.6389 15.8924C85.045 15.7592 83.6012 15.4057 82.4296 15.1028C81.2522 14.7992 80.1143 14.5605 79.8936 14.572C78.5702 14.6367 78.328 15.7874 79.524 16.3251C79.934 16.5085 84.2394 17.5875 85.7669 17.8869C86.5423 18.0381 86.9193 17.96 87.3422 17.557C87.5242 17.3776 87.5758 17.1994 87.5141 16.93Z" fill="#333333"/>
<path d="M76.1965 13.8426C76.1287 13.6712 75.969 13.4756 75.8309 13.3942C75.6152 13.2689 70.5989 11.1282 69.7058 10.778C68.835 10.4391 67.8229 10.9113 67.9705 11.5904C68.0579 11.9875 68.2454 12.1007 69.7889 12.6554C70.4755 12.903 71.9118 13.4616 73.0068 13.9054C75.253 14.8169 75.5608 14.8676 76.0366 14.4196C76.252 14.21 76.2862 14.0769 76.1965 13.8426Z" fill="#333333"/>
</g>
<path d="M65.4617 10.02C65.3847 9.85247 65.2147 9.66577 65.0724 9.59199C64.8503 9.47859 59.7255 7.61237 58.8147 7.31098C57.9268 7.0197 56.9418 7.54594 57.1259 8.21615C57.2347 8.60791 57.4281 8.71081 58.9993 9.18117C59.6982 9.39121 61.1627 9.87137 62.2801 10.2552C64.5723 11.0439 64.8824 11.0779 65.3333 10.6048C65.537 10.3839 65.5639 10.249 65.4617 10.02Z" fill="#333333"/>
</svg>
