<svg width="35" height="36" viewBox="0 0 35 36" fill="none" xmlns="http://www.w3.org/2000/svg">
<g clip-path="url(#clip0_108_473)">
<path d="M17.5 35.0769C27.165 35.0769 35 27.2419 35 17.5769C35 7.91192 27.165 0.0769043 17.5 0.0769043C7.83502 0.0769043 0 7.91192 0 17.5769C0 27.2419 7.83502 35.0769 17.5 35.0769Z" fill="#039BE5"/>
<path d="M8.00797 17.1978L24.8809 10.6922C25.664 10.4093 26.348 10.8832 26.0942 12.0674L26.0957 12.0659L23.2228 25.6007C23.0098 26.5603 22.4396 26.7936 21.6419 26.3415L17.2669 23.1172L15.1567 25.1501C14.9234 25.3834 14.7265 25.5803 14.2744 25.5803L14.5851 21.128L22.6934 13.8028C23.0463 13.4922 22.6146 13.3172 22.1494 13.6263L12.1292 19.9351L7.80964 18.5876C6.87193 18.2901 6.85151 17.6499 8.00797 17.1978Z" fill="white"/>
</g>
<defs>
<clipPath id="clip0_108_473">
<rect width="35" height="35" fill="white" transform="translate(0 0.0769043)"/>
</clipPath>
</defs>
</svg>
