<svg width="21" height="21" viewBox="0 0 21 21" fill="none" xmlns="http://www.w3.org/2000/svg">
<g clip-path="url(#clip0_49_31)">
<path d="M10.0605 0.499878C4.54642 0.499878 0.0605469 4.98575 0.0605469 10.4999C0.0605469 16.014 4.54642 20.4999 10.0605 20.4999C15.5747 20.4999 20.0605 16.014 20.0605 10.4999C20.0605 4.98575 15.5747 0.499878 10.0605 0.499878ZM12.5882 13.1143C12.3909 13.3116 12.0711 13.3116 11.874 13.1143L9.61665 10.857C9.52196 10.7623 9.46869 10.6338 9.46869 10.4999V5.87768C9.46869 5.59872 9.69478 5.37263 9.97374 5.37263C10.2527 5.37263 10.4788 5.59872 10.4788 5.87768V10.2908L12.5882 12.4001C12.7855 12.5974 12.7855 12.917 12.5882 13.1143Z" fill="#BE8D55"/>
</g>
<defs>
<clipPath id="clip0_49_31">
<rect width="20" height="20" fill="white" transform="translate(0.0605469 0.499878)"/>
</clipPath>
</defs>
</svg>
