<svg width="35" height="36" viewBox="0 0 35 36" fill="none" xmlns="http://www.w3.org/2000/svg">
<path d="M17.5 35.0769C27.165 35.0769 35 27.2419 35 17.5769C35 7.91192 27.165 0.0769043 17.5 0.0769043C7.83502 0.0769043 0 7.91192 0 17.5769C0 27.2419 7.83502 35.0769 17.5 35.0769Z" fill="#6F3FAA"/>
<path d="M27.6081 11.8992V11.8734C27.3735 10.9228 26.761 9.94043 25.9576 9.11316C25.0189 8.1427 23.8238 7.38105 22.6823 7.13446H22.6584C19.2543 6.4822 15.7574 6.4822 12.3533 7.13446H12.3294C10.2096 7.59384 7.9087 9.80918 7.39564 11.8734V11.8992C6.76526 14.7611 6.76526 17.7258 7.39564 20.5876V20.6115C7.76155 22.083 9.03427 23.6302 10.5019 24.5649C10.9812 24.8772 11.5029 25.119 12.051 25.2828V27.5856C12.0518 27.7696 12.1074 27.9493 12.2106 28.1016C12.3139 28.254 12.4601 28.3721 12.6308 28.441C12.8014 28.5099 12.9887 28.5264 13.1688 28.4885C13.3489 28.4505 13.5136 28.3598 13.6419 28.2279L15.9766 25.8018C16.4817 25.8296 16.9908 25.8455 17.4959 25.8455C19.225 25.845 20.9502 25.6812 22.6485 25.3563H22.6723C24.7863 24.895 27.0891 22.6796 27.5982 20.6154V20.5916C28.2324 17.7292 28.2358 14.7631 27.6081 11.8992ZM25.7607 20.162C25.4186 21.5083 23.6726 23.1847 22.2826 23.493C20.4771 23.8389 18.6396 23.9889 16.8019 23.9404C16.784 23.9393 16.7661 23.9423 16.7495 23.9492C16.733 23.9561 16.7182 23.9667 16.7064 23.9802L15.0022 25.7302L13.1885 27.5896C13.1595 27.6202 13.122 27.6415 13.0807 27.6506C13.0395 27.6597 12.9965 27.6561 12.9573 27.6405C12.9181 27.6249 12.8845 27.5978 12.8608 27.5628C12.8372 27.5279 12.8246 27.4866 12.8246 27.4444V23.6262C12.8247 23.5955 12.8139 23.5658 12.7943 23.5422C12.7747 23.5185 12.7474 23.5025 12.7172 23.497C12.4273 23.4281 12.1478 23.3211 11.886 23.1788C10.7047 22.5484 9.51353 21.2558 9.2391 20.162C8.67067 17.5752 8.67067 14.8957 9.2391 12.3089C9.57916 10.9686 11.3351 9.29611 12.7152 8.98588C15.8757 8.38117 19.1221 8.38117 22.2826 8.98588C23.0482 9.15691 23.9232 9.73958 24.6073 10.4555C25.1701 11.0382 25.6016 11.7103 25.7607 12.3149C26.3283 14.8998 26.3283 17.5771 25.7607 20.162Z" fill="white"/>
<path d="M22.3324 20.3609C22.0741 20.9506 21.6299 21.4394 21.0677 21.753C20.8913 21.8279 20.7082 21.8858 20.5208 21.926C20.308 21.8624 20.1052 21.8186 19.9242 21.7411C18.4167 21.1544 17.0134 20.3292 15.768 19.297C15.398 18.9815 15.0505 18.6407 14.7279 18.2769C13.9313 17.3595 13.2624 16.3387 12.7393 15.2422C12.4847 14.7232 12.2699 14.1862 12.0512 13.6513C11.8523 13.1641 12.1466 12.657 12.4489 12.293C12.7448 11.9555 13.1087 11.6845 13.5168 11.4976C13.6604 11.4254 13.8247 11.4058 13.9813 11.4421C14.1379 11.4784 14.2768 11.5684 14.3739 11.6965C14.882 12.2673 15.3298 12.8891 15.7103 13.5519C15.8301 13.7446 15.8712 13.976 15.8249 14.1982C15.7786 14.4204 15.6485 14.6162 15.4617 14.745C15.3623 14.8146 15.2628 14.8942 15.1773 14.9717C15.093 15.0342 15.0203 15.1109 14.9626 15.1984C14.9127 15.2804 14.8824 15.3727 14.8742 15.4683C14.8659 15.5638 14.8798 15.66 14.9148 15.7493C15.2986 16.8053 15.8813 17.6862 16.7523 18.3047C17.0471 18.5131 17.3647 18.6873 17.6989 18.8237C17.9172 18.9424 18.1624 19.0027 18.4109 18.9987C18.8444 18.947 18.9876 18.4678 19.2898 18.2212C19.4286 18.1076 19.6003 18.0418 19.7794 18.0335C19.9585 18.0253 20.1356 18.075 20.2841 18.1754C20.6063 18.3743 20.9165 18.599 21.2268 18.8178C21.5336 19.0272 21.829 19.2529 22.1117 19.4939C22.2439 19.5899 22.3384 19.7292 22.3787 19.8876C22.419 20.0459 22.4026 20.2134 22.3324 20.3609Z" fill="white"/>
<path d="M18.071 10.8314H17.8164C17.8979 10.8274 17.9835 10.8314 18.071 10.8314Z" fill="white"/>
<path d="M22.4717 16.7914C22.2729 16.7914 22.1754 16.6224 22.1615 16.4374C22.1356 16.0735 22.1157 15.7076 22.066 15.3457C21.9801 14.735 21.7674 14.1491 21.4416 13.6255C21.1068 13.08 20.6612 12.6109 20.1336 12.2485C19.6061 11.8861 19.0084 11.6384 18.3791 11.5215C18.0927 11.4698 17.8004 11.4579 17.5121 11.428C17.3291 11.4082 17.0885 11.3962 17.0487 11.1695C17.0428 11.1255 17.0463 11.0807 17.059 11.0381C17.0718 10.9956 17.0935 10.9562 17.1227 10.9227C17.1518 10.8892 17.1878 10.8623 17.2282 10.8438C17.2686 10.8254 17.3125 10.8157 17.3569 10.8155C17.4046 10.8128 17.4524 10.8128 17.5001 10.8155C18.3694 10.8229 19.2234 11.0445 19.9865 11.4608C20.7496 11.877 21.3983 12.4751 21.8751 13.2019C22.2515 13.7878 22.5071 14.4429 22.6268 15.1289C22.7024 15.5584 22.7302 15.9999 22.764 16.4374C22.7708 16.4803 22.7684 16.5241 22.757 16.566C22.7456 16.6079 22.7253 16.6468 22.6977 16.6803C22.6701 16.7138 22.6356 16.741 22.5967 16.7602C22.5577 16.7793 22.5151 16.79 22.4717 16.7914Z" fill="white"/>
<path d="M21.3954 15.8625C21.3943 15.9216 21.3863 15.9803 21.3715 16.0375C21.3542 16.095 21.3195 16.1457 21.2723 16.1828C21.225 16.2199 21.1675 16.2416 21.1076 16.2448C21.0476 16.2481 20.9881 16.2328 20.9371 16.201C20.8861 16.1693 20.8462 16.1226 20.8227 16.0673C20.8008 15.987 20.7907 15.9039 20.7928 15.8207C20.7975 15.3759 20.7094 14.935 20.5343 14.5261C20.4945 14.4386 20.4508 14.3491 20.4011 14.2636C20.1164 13.773 19.6939 13.3767 19.186 13.1241C18.8796 12.9795 18.5542 12.879 18.2195 12.8258C18.0724 12.802 17.9252 12.7881 17.7781 12.7682C17.7398 12.7663 17.7023 12.7565 17.6679 12.7395C17.6335 12.7225 17.603 12.6986 17.5782 12.6694C17.5534 12.6401 17.5349 12.6061 17.5237 12.5694C17.5126 12.5327 17.5092 12.4941 17.5136 12.456C17.5136 12.417 17.5219 12.3785 17.5378 12.3429C17.5538 12.3073 17.5771 12.2756 17.6062 12.2497C17.6353 12.2237 17.6695 12.2043 17.7067 12.1925C17.7439 12.1808 17.7831 12.177 17.8218 12.1815C18.4057 12.2041 18.9778 12.3533 19.4982 12.619C20.1338 12.9388 20.6522 13.451 20.9798 14.0827C21.1642 14.4515 21.2878 14.8477 21.3457 15.256C21.3564 15.3092 21.3644 15.363 21.3695 15.417C21.3795 15.5364 21.3835 15.6557 21.3934 15.8028C21.3934 15.8168 21.3954 15.8346 21.3954 15.8625Z" fill="white"/>
<path d="M20.0335 15.5881C20.0222 15.6385 19.9962 15.6844 19.9586 15.7198C19.921 15.7553 19.8737 15.7787 19.8227 15.787H19.7789C19.7138 15.7912 19.649 15.774 19.5945 15.7382C19.54 15.7023 19.4986 15.6496 19.4767 15.5881C19.4643 15.5555 19.4563 15.5214 19.4528 15.4867C19.4424 15.3528 19.4224 15.2199 19.3932 15.0889C19.334 14.8237 19.1834 14.5879 18.9676 14.4227C18.8633 14.3478 18.7469 14.2914 18.6236 14.2557C18.4665 14.21 18.3014 14.2219 18.1463 14.1841C18.0696 14.1705 18.0014 14.1271 17.9567 14.0634C17.912 13.9996 17.8943 13.9208 17.9076 13.8441C17.9224 13.7706 17.9635 13.705 18.0232 13.6596C18.0829 13.6142 18.157 13.5921 18.2318 13.5975C19.1426 13.6631 19.8227 14.1006 19.9977 15.077C20.0157 15.1677 20.0283 15.2593 20.0355 15.3514C20.0466 15.43 20.046 15.5097 20.0335 15.5881Z" fill="white"/>
</svg>
