<svg width="35" height="36" viewBox="0 0 35 36" fill="none" xmlns="http://www.w3.org/2000/svg">
<path d="M17.5 35.0769C27.165 35.0769 35 27.2419 35 17.5769C35 7.91192 27.165 0.0769043 17.5 0.0769043C7.83502 0.0769043 0 7.91192 0 17.5769C0 27.2419 7.83502 35.0769 17.5 35.0769Z" fill="#29A71A"/>
<path d="M25.2159 9.86097C23.3951 8.02207 20.9772 6.89434 18.3982 6.68118C15.8192 6.46802 13.249 7.18348 11.1511 8.69849C9.05312 10.2135 7.56563 12.4283 6.95689 14.9435C6.34815 17.4587 6.65823 20.1086 7.8312 22.4152L6.67978 28.0053C6.66783 28.0609 6.6675 28.1184 6.67879 28.1742C6.69008 28.23 6.71276 28.2828 6.74541 28.3294C6.79323 28.4002 6.8615 28.4546 6.9411 28.4855C7.02069 28.5165 7.10783 28.5224 7.19086 28.5024L12.6696 27.2039C14.9697 28.3471 17.6009 28.6373 20.095 28.0227C22.589 27.408 24.7841 25.9285 26.2896 23.8474C27.7952 21.7662 28.5136 19.2184 28.317 16.6573C28.1203 14.0962 27.0215 11.6879 25.2159 9.86097ZM23.5076 23.4951C22.2479 24.7513 20.6257 25.5805 18.8697 25.8659C17.1136 26.1514 15.3123 25.8785 13.7196 25.086L12.9559 24.7081L9.59711 25.5036L9.60705 25.4618L10.3031 22.0811L9.92921 21.3434C9.11538 19.745 8.82829 17.9301 9.10907 16.1587C9.38985 14.3872 10.2241 12.75 11.4923 11.4817C13.0858 9.88869 15.2467 8.99379 17.5 8.99379C19.7532 8.99379 21.9141 9.88869 23.5076 11.4817C23.5212 11.4973 23.5358 11.5119 23.5514 11.5255C25.1251 13.1226 26.0037 15.2771 25.9955 17.5193C25.9873 19.7615 25.093 21.9095 23.5076 23.4951Z" fill="white"/>
<path d="M23.2097 21.0151C22.798 21.6634 22.1477 22.4569 21.3304 22.6538C19.8986 22.9998 17.7012 22.6657 14.9668 20.1163L14.933 20.0864C12.5287 17.8572 11.9043 16.0018 12.0554 14.5302C12.1389 13.695 12.835 12.9393 13.4216 12.4461C13.5144 12.3669 13.6243 12.3106 13.7428 12.2815C13.8612 12.2525 13.9848 12.2515 14.1036 12.2788C14.2225 12.306 14.3333 12.3607 14.4272 12.4385C14.5212 12.5162 14.5956 12.6148 14.6446 12.7265L15.5296 14.7151C15.5871 14.8441 15.6084 14.9863 15.5912 15.1264C15.5741 15.2665 15.5191 15.3993 15.4321 15.5106L14.9847 16.0913C14.8887 16.2112 14.8307 16.3571 14.8183 16.5102C14.8059 16.6633 14.8396 16.8166 14.9151 16.9504C15.1656 17.3899 15.7662 18.0362 16.4324 18.6347C17.1801 19.3109 18.0094 19.9293 18.5344 20.1401C18.6749 20.1975 18.8293 20.2115 18.9778 20.1803C19.1263 20.1492 19.2621 20.0742 19.3676 19.9651L19.8867 19.4421C19.9868 19.3434 20.1114 19.2729 20.2476 19.238C20.3839 19.2031 20.5269 19.2049 20.6622 19.2433L22.7642 19.8399C22.8802 19.8754 22.9865 19.937 23.0749 20.02C23.1634 20.1029 23.2318 20.205 23.2748 20.3184C23.3177 20.4318 23.3342 20.5536 23.323 20.6743C23.3117 20.7951 23.2729 20.9117 23.2097 21.0151Z" fill="white"/>
</svg>
